<svg xmlns="http://www.w3.org/2000/svg" xmlns:xlink="http://www.w3.org/1999/xlink" viewBox="0 0 375 235.23"><defs><style>.cls-1{fill:none}.cls-6{fill:#efa220}</style><clipPath id="clip-path"><rect class="cls-1" x="-1.5" y="-0.94" width="378" height="237.12"/></clipPath><clipPath id="clip-path-2"><rect class="cls-1" x="-6.23" y="-223.07" width="387.46" height="681.37"/></clipPath></defs><title>Artboard 34 copy</title><g id="Diet"><g style="clip-path:url(#clip-path)"><g style="clip-path:url(#clip-path-2)"><rect x="-20.46" y="-294.93" width="421.66" height="717.36" style="fill:#f7cf89"/><path d="M426.22-47.6c-47.92-29-112.38-23.2-159.12,7.71-15.84,10.48-29.85,23.45-44.29,35.8C181.27,31.45,133.76,63,79.82,72c-23,3.8-46.77,3.43-68.84,10.82s-43,25.49-43.86,48.74c-.5,13.36,5.79,26.34,15,36S3.14,184,15.34,189.48c61,27.14,130.58,23.38,197.16,19.11,38.23-2.45,77.31-5.1,112.53-20.16,17.57-7.51,33.74-18,49.14-29.24s30.11-23.49,41.21-38.86c19.63-27.2,26-61.5,31.77-94.54" style="fill:#f1c461"/><path class="cls-6" d="M422.8,81.36c-21.6-55.72-66.16-13.29-171-10.4C-11.27,78.19,62.34-14.8-72.34,30.86l23.25,261.4L401.2,288Z"/><path d="M436.45,86C306.23,115.66,236,32.89,152.12,37.68,57.68,43.07,35.53,81.92-37.76,76.76-42,76.46-27.14,467-27.14,467l450.28-5.63Z" style="fill:#f5be17"/><g style="opacity:.4"><path class="cls-6" d="M37.34,105.2c.57-.69,1.7-2,2.7-1.37.41.24.7.6,1.21.6a1.41,1.41,0,0,0,1.09-.72,1,1,0,0,1,1.24-.43c.5.14,1,.41,1.45.57a2,2,0,0,0,2.42-.57c.35-.53-.5-1-.86-.5-.49.73-1.89-.16-2.46-.36a2.64,2.64,0,0,0-1.52-.15,2,2,0,0,0-1,.83c-.12.17-.2.35-.42.3s-.41-.31-.6-.42a2,2,0,0,0-1.35-.26,4.59,4.59,0,0,0-2.55,1.78c-.41.48.29,1.19.7.7Z"/><path class="cls-6" d="M221.7,84.61a27.12,27.12,0,0,1,2.46-1.52c.22-.12,2.35-1.2,2.37-1.16s-.23.74-.25.89a1.67,1.67,0,0,0,0,.8,1.59,1.59,0,0,0,1,.93c.25.11.52.18.76.31a2,2,0,0,1,.73.78,1.7,1.7,0,0,0,1.52.76c.81,0,1.6-.18,2.42-.13a8.5,8.5,0,0,1,2.85.69c.58.25,1.09-.61.5-.86a9.85,9.85,0,0,0-5.2-.74c-.59.07-.94.13-1.34-.39a3.83,3.83,0,0,0-.6-.73c-.43-.34-1.24-.38-1.59-.78s.24-1.2.22-1.67a.9.9,0,0,0-1.15-.82,10.25,10.25,0,0,0-2.5,1.14,26.46,26.46,0,0,0-2.69,1.64c-.52.37,0,1.23.5.86Z"/><path class="cls-6" d="M119.86,64.51c1.73.4,3.07-1.36,4.77-1.26.79,0,1.23.81,2,.73a5.2,5.2,0,0,0,1.82-.8,3.93,3.93,0,0,1,1-.46c.41-.08.47,0,.29.34-.27.53-.89,1-.58,1.71.56,1.21,2.86.17,3.74,0a2.49,2.49,0,0,1,1.89.52,4.54,4.54,0,0,0,2.79.42c.62-.08.63-1.07,0-1a3.8,3.8,0,0,1-2.54-.43,3.38,3.38,0,0,0-1.62-.58,8.46,8.46,0,0,0-2,.41,5.51,5.51,0,0,1-1.2.22c-.19,0-.13.07-.13,0s.21-.35.28-.46c.32-.49.72-1,.39-1.64a1.32,1.32,0,0,0-1.43-.53,8.2,8.2,0,0,0-2,.93,1.92,1.92,0,0,1-.84.34c-.32,0-.7-.44-1-.57a3.67,3.67,0,0,0-2.7.22c-.78.33-1.81,1.1-2.69.9-.62-.14-.88.82-.26,1Z"/><path class="cls-6" d="M279.71,107.79a6.58,6.58,0,0,0,1.91-1.21,1,1,0,0,1,.82-.2c.15,0,.51.19.43.35a.5.5,0,0,0,.56.72l5.26-.71c.63-.08.37-1-.26-1l-5.26.72.56.73c.5-1-.47-1.81-1.42-1.87-1.22-.07-1.79,1.19-2.86,1.48a.49.49,0,0,0,.26,1Z"/><path class="cls-6" d="M298.06,202.47a9.09,9.09,0,0,1,4.14-2c1.64-.16,2.58,1,3.76,1.91,2.2,1.72,4.4.82,6.71-.15a9.64,9.64,0,0,1,8.83.49c2.16,1.25,4.41,2.76,6.92,1.49.82-.42.1-1.64-.71-1.23-1.59.81-3.23-.11-4.59-.94a14.38,14.38,0,0,0-3.72-1.75,11.37,11.37,0,0,0-7.55.76c-1.46.63-3.1,1.44-4.61.51-1-.63-1.77-1.64-2.89-2.15-2.44-1.13-5,.42-7,1.8-.74.52,0,1.75.71,1.23Z"/><path class="cls-6" d="M341.13,168.21c1-1,2.65-.86,3.94-.58,1.76.39,3.56,1,5.34.41.87-.28.5-1.65-.37-1.37-1.82.58-3.63-.3-5.42-.56a5.14,5.14,0,0,0-4.49,1.1.71.71,0,0,0,1,1Z"/><path class="cls-6" d="M-1,166.68c.67-1.05,1.46-2.35,2.71-2.75a2.29,2.29,0,0,1,1.53,0c.62.27.67.77,1,1.3.69,1.28,2.59.75,3.75.67l5.21-.35c.91-.06.91-1.48,0-1.42l-5.65.38-1.3.09c-.22,0-.6.1-.79-.08s-.11-.31-.16-.42a2.63,2.63,0,0,0-1.15-1.31,3.68,3.68,0,0,0-3.37,0,8.21,8.21,0,0,0-3,3.16c-.49.77.73,1.48,1.23.72Z"/><path class="cls-6" d="M232.85,169.66c2-1.11,4-2.27,6.09-3.32.43-.22,1-.54,1.45-.31s.42.85.59,1.29a2.16,2.16,0,0,0,1.47,1.29,9.16,9.16,0,0,0,2.22.07,5.88,5.88,0,0,1,2.9,1c1.63.91,3.33,1.68,5.17.88.83-.37.11-1.59-.72-1.23-2,.86-4-1.32-5.83-1.85a7.69,7.69,0,0,0-2.44-.16c-.4,0-1,.07-1.3-.25s-.3-.92-.45-1.28c-.66-1.63-2.36-1.37-3.65-.72-2.11,1.06-4.15,2.26-6.22,3.39-.8.43-.08,1.66.72,1.22Z"/><path class="cls-6" d="M228.19,232.16a10.28,10.28,0,0,1,5.06-1.83,4.87,4.87,0,0,1,.54,0c.53,0,.1,0,.14-.1a8.35,8.35,0,0,0,0,1.23,10.28,10.28,0,0,1-.8,3c-.31.76.6,1.53,1.31,1.31a13.51,13.51,0,0,1,5.17-.61c1,.08,2.57.31,3,1.39.47,1.27,2.53.72,2.05-.56-1.5-4-7.59-3.27-10.76-2.27l1.3,1.31c.72-1.7,2.08-6.16-.67-6.76a8.29,8.29,0,0,0-3.66.38,12.59,12.59,0,0,0-3.7,1.71c-1.13.76-.07,2.61,1.07,1.84Z"/><path class="cls-6" d="M30.88,205.38C36,205,40.26,202,45.06,200.65a4.38,4.38,0,0,1,2.34-.25c.78.26,1,1.39,1.48,2a3.75,3.75,0,0,0,4.46,1.44c2.29-.73,4-1.67,6.36-.38,1.19.66,2.27-1.18,1.07-1.84a7.41,7.41,0,0,0-6.41-.43c-1.67.62-2.91,1.4-4-.44-.5-.81-.78-1.63-1.66-2.12a4.07,4.07,0,0,0-2.43-.38,24.71,24.71,0,0,0-6.71,2.26c-2.73,1.16-5.63,2.55-8.64,2.75-1.36.09-1.37,2.21,0,2.12Z"/><path class="cls-6" d="M351.14,219.71a15.19,15.19,0,0,1,9.92-7c.26-.05,1.3-.28,1.45.11.05.13-.5.66-.59.79a1.76,1.76,0,0,0-.22,1.91c1,1.74,4,.39,5.43.08l-1.2-.49c1.21,2.51,4.28,2.71,6.72,2.74,3.81.05,7.62-.07,11.43-.34,1.35-.1,1.36-2.22,0-2.13q-4.74.34-9.48.36c-2,0-5.76.52-6.84-1.71a1.07,1.07,0,0,0-1.2-.48l-2,.44a5.83,5.83,0,0,0-1.1.24l.2.56.18-.22a2.35,2.35,0,0,0,.7-2.31c-.64-2.22-3.28-1.84-5-1.38a17.42,17.42,0,0,0-10.27,7.73c-.72,1.17,1.12,2.24,1.83,1.07Z"/></g><rect x="-4.87" y="-220.75" width="384.75" height="679.05" style="fill:#e49225;opacity:.2"/></g></g></g></svg>