<svg xmlns="http://www.w3.org/2000/svg" xmlns:xlink="http://www.w3.org/1999/xlink" viewBox="0 0 375 667"><defs><style>.cls-4{fill:#009f7e}.cls-10{fill:#116746}</style><clipPath id="clip-path"><rect x="-4.87" y="-6.02" width="384.75" height="679.05" style="fill:none"/></clipPath></defs><title>Artboard 1 copy 11</title><g id="Ending"><g style="clip-path:url(#clip-path)"><rect x="-27.43" y="-13.63" width="429.3" height="701.66" style="fill:#98d4bf"/><path class="cls-4" d="M397.87,285c-8.64-45.89-136.34-43.23-142.33,85.09-5,107.2,123.71,90.49,123.71,90.49Z"/><path d="M396.86,395.75c-37.06,45.8-92.16,80.43-151.07,79.56-15.43-.23-30.72-2.84-46.1-4.24-37.26-3.4-74.9.34-112.15-3.1S11.62,452.52-12.78,424.16c-17.23-20-25.67-46.44-28.06-72.74s.88-52.77,4.68-78.91c1.26-8.66-29.18,6.47-22.21,1.17,91.78-69.83,155.88-37.25,186.71,16,13.08-22.52,24.49-39.63,50.39-42.3C291.46,235.77,272.84,347.51,366,366.79Z" style="fill:#107e5b"/><rect x="-19.13" y="497.15" width="410.02" height="183.56" style="fill:#6dc6ab"/><path d="M433.34,530.85s-71.38,4.21-115.71-2.41c0,0-.71-2.66,11.17-7.07,26.06-9.68-64.69-13.58-113.83-13.58,0,0-24.72-70.27,60.53-91.78,64.75-16.34,59.85-75.82,151-56.53Z" style="fill:#37ba96"/><path class="cls-4" d="M-6.5,688c3.38-7.15,14.57-5.3,18.18-10.87,31.92-49.21,91-26.74,91.55-49.94s-32.41-28.31-22.61-38.91c27.72-30,258.72.62,258.89-18.28.08-9-36-9.5-85.5-68.53C192.35,428,211.64,301.64-14.14,362.16Z"/><path d="M108.41,248.62c-3,12.63-12.29-6-21.29,3.38C73,266.7,60,252.4,60,252.4,29.75,265,15.78,227.79,15.78,227.79-29.53,238-40.65,139.58-.3,135.59c19.59-1.94,71.93,27.68,91.23,31.53s38.18,9.68,57.53,13.29c28.54,5.32,59.23,6.21,83.52,22.11,9.7,6.35,17.84,14.81,25.24,23.74,7,8.47,13.52,17.56,17.46,27.84,4.82,12.58,5.58,26.3,6.27,39.77.54,10.31-1.57-4.73-7.45,3.75-6.38,9.21,11.68-3.66,6,6-24,40.57-63.8,17.13-69.17,2.66-6,9.79-21.91,18.23-30.89,11.05-6,5.93-17,2.77-21.93-4.07s-5.57-15.8-6-24.23c-8.94,4.16-20.58,2.81-27.34-4.36-3.56-3.77-5.56-8.71-7.43-13.53q-4.34-11.19-8.31-22.51" style="fill:#115b3d"/><path d="M89.83,287.28c3.44-5.92,1.47-13.56-2-19.47-5.27-9-13.51-15.8-20.7-23.36S53.41,227.71,53,217.28L62.57,213c2.71,13.28,15.22,22,27.07,28.53,7.94,4.39,16.54,9,20.64,17.06a21.38,21.38,0,0,1-19.66,31" style="fill:#0c6847"/><path class="cls-10" d="M169.47,268.85c-15.29-.37,4.93-31.3,10.84-39.49,2.77-3.84-5.46-16.64-5.46-16.64s-11.12,21.7-17.27,33.2c-1.8,3.37-3.13,5.59-5.18,1.25-2.33-4.92,1.66-26.34,1.66-26.34s-4.34-.49-5.45,1.88c-5.47,11.71,1.24,25-11.53,43C129.36,276.64,169.47,268.85,169.47,268.85Z"/><path d="M39.21,381.21s1.53,36.69,50.13,40.12c24.56,1.73,48.86-23.07,48.86-23.07-5.56-19.83-19.38-50.86,1.1-75.23,27-32.11,75.39-25.11,87-46.06l-5.12-11.28s-7.46,5.92-23.5,3.47c-6.51-1,6.29-22,6.29-22l-7.47,2.35s-3.35,12.14-11.67,15.77c-12.06,5.26-32.94,5.06-41.91-.32-25.15-15.09-23.63-44.17-23.63-44.17l-18.26-3.08c-11.32,29.77,11.93,38-29,77.2C47.81,318.17,37.82,357.47,39.21,381.21Z" style="fill:#127550"/><path class="cls-10" d="M-8.87,117.85c-27.22,64.38,34.63,71,34.63,71s-15,21.62,5.32,29.27c0,0,4.31,14.32,20,14.31,30.21,0,38.61-24.87,38.61-24.87s7.73,26.68,31.37,28.3,32.3-11.56,32.3-11.56c0,15,17.72,4.55,17.72,4.55-2.46,37.2,42.75,20.91,42.75,20.91-21.69,61.14,51.91,51.38,51.91,51.38,24.83,24.83,50.1-8,42.68-17.31,0,0,43.36.29,21.44-35.17,0,0,60-60.14-.49-89.4,0,0,1.42-22-21.19-12.08,0,0,2.6-41.29-34-29.82,0,0,20.39-55.65-42.13-56.76-18.17-25.49-49.65-2.44-49.65-2.44-61.43-26.16-75,24.38-75,24.38-36-11.74-39.43,19.19-39.43,19.19C-1.91,75.82-8.87,117.85-8.87,117.85Z"/><path d="M28.7,366.74c2.74-5.95,15.41-11.55,25.92-4.46,3.77,2.55,5.56,8.91,4.67,13.37A3.82,3.82,0,1,1,66,379.1c2.76-2.52,8.48-3.91,11.71-1,2.75,2.53,2.32,5.58,1.74,9.27C81,383,88,376.7,96.91,375.78c7.29-.76,13.61,3.43,13.65,10.21,1-3.69,7.53-7.89,11.3-.35,3.55-12.2,25.28-11.09,28.82-4.88,4.18,7.32,6.36-1.61,8.7,5.44,2.86,8.65,3.24,18.81-2,26.23-2.87,4.05-7.14,6.89-11.49,9.28a81,81,0,0,1-22.45,8.42c-16.62,3.42-34.08.76-50-5.15S43,410,29,400.46c-4.76-3.25-9.81-7.06-11.16-12.65-1.09-4.5.5-9.23,2.76-13.26" style="fill:#009e7e"/><rect x="-4.87" y="-6.02" width="384.75" height="679.05" style="fill:#126e4d;opacity:.2"/></g></g></svg>