<svg xmlns="http://www.w3.org/2000/svg" xmlns:xlink="http://www.w3.org/1999/xlink" viewBox="0 0 375 667"><defs><style>.cls-5{fill:#efa220}.cls-6{fill:#f5be17}</style><clipPath id="clip-path"><rect x="-6.23" y="-8.35" width="387.46" height="681.37" style="fill:none"/></clipPath></defs><title>Artboard 1 copy 9</title><g id="Diet"><g style="clip-path:url(#clip-path)"><rect x="-20.46" y="-80.21" width="421.66" height="717.36" style="fill:#f7cf89"/><path d="M426.22,167.13c-47.92-29-112.38-23.21-159.12,7.7-15.84,10.48-29.85,23.45-44.29,35.8-41.54,35.55-89.05,67.14-143,76.05-23,3.8-46.77,3.43-68.84,10.82S-32,323-32.88,346.25c-.5,13.35,5.79,26.34,15,36S3.14,398.76,15.34,404.2c61,27.14,130.58,23.38,197.16,19.11,38.23-2.45,77.31-5.1,112.53-20.16,17.57-7.51,33.74-17.95,49.14-29.24s30.11-23.48,41.21-38.86c19.63-27.2,26-61.49,31.77-94.53" style="fill:#f1c461"/><path class="cls-5" d="M422.8,296.08c-21.6-55.72-66.16-13.29-171-10.4-263.06,7.23-189.45-85.75-324.13-40.1L-49.09,507l450.29-4.25Z"/><path class="cls-6" d="M436.45,300.67C306.23,330.38,236,247.61,152.12,252.4c-94.44,5.39-116.59,44.24-189.88,39.08-4.2-.29,10.62,390.28,10.62,390.28l450.28-5.63Z"/><path d="M-20.46,527.42c49.21,56.73,64.84,7.19,157.17,38,101,33.67,34-32.1,91.9-36.1,39.28-2.7,63.59,13.08,84.8,18.63,17.09,4.47,23.3-6.32,52.54,2.66,19.71,6,35.25-14.64,35.25-14.64l-3.33,147H-20.46Z" style="opacity:.4;fill:#efa220"/><g style="opacity:.4"><path class="cls-5" d="M37.34,319.92c.57-.69,1.7-1.95,2.7-1.37.41.24.7.6,1.21.6a1.36,1.36,0,0,0,1.09-.72,1,1,0,0,1,1.24-.43c.5.14,1,.42,1.45.58a2,2,0,0,0,2.42-.58c.35-.53-.5-1-.86-.5-.49.74-1.89-.16-2.46-.36a2.64,2.64,0,0,0-1.52-.15,2,2,0,0,0-1,.83c-.12.17-.2.36-.42.3s-.41-.31-.6-.42a1.94,1.94,0,0,0-1.35-.25,4.53,4.53,0,0,0-2.55,1.77c-.41.49.29,1.19.7.7Z"/><path class="cls-5" d="M221.7,299.33a27.12,27.12,0,0,1,2.46-1.52c.22-.12,2.35-1.2,2.37-1.16s-.23.74-.25.89a1.67,1.67,0,0,0,0,.8,1.61,1.61,0,0,0,1,.94c.25.1.52.18.76.3a2,2,0,0,1,.73.78,1.73,1.73,0,0,0,1.52.77c.81,0,1.6-.19,2.42-.14a8.5,8.5,0,0,1,2.85.69c.58.25,1.09-.61.5-.86a9.85,9.85,0,0,0-5.2-.74c-.59.07-.94.13-1.34-.39a3.83,3.83,0,0,0-.6-.73c-.43-.34-1.24-.38-1.59-.78s.24-1.2.22-1.67a.9.9,0,0,0-1.15-.81,9.86,9.86,0,0,0-2.5,1.13,26.55,26.55,0,0,0-2.69,1.65c-.52.36,0,1.22.5.85Z"/><path class="cls-5" d="M119.86,279.23c1.73.4,3.07-1.35,4.77-1.26.79,0,1.23.82,2,.73a5.2,5.2,0,0,0,1.82-.8,3.93,3.93,0,0,1,1-.46c.41-.07.47,0,.29.34-.27.53-.89,1.05-.58,1.71.56,1.21,2.86.17,3.74,0a2.58,2.58,0,0,1,1.89.52,4.47,4.47,0,0,0,2.79.42c.62-.08.63-1.07,0-1a3.85,3.85,0,0,1-2.54-.42,3.29,3.29,0,0,0-1.62-.59,8.46,8.46,0,0,0-2,.41,5.51,5.51,0,0,1-1.2.22c-.19,0-.13.07-.13,0s.21-.35.28-.46c.32-.48.72-1,.39-1.63a1.29,1.29,0,0,0-1.43-.53,7.81,7.81,0,0,0-2,.92c-.22.12-.58.37-.84.34s-.7-.44-1-.57a3.62,3.62,0,0,0-2.7.23c-.78.32-1.81,1.1-2.69.89-.62-.14-.88.82-.26,1Z"/><path class="cls-5" d="M279.71,322.52a6.61,6.61,0,0,0,1.91-1.22,1,1,0,0,1,.82-.2c.15,0,.51.19.43.35a.51.51,0,0,0,.56.73l5.26-.72c.63-.08.37-1-.26-.95l-5.26.71.56.73c.5-1-.47-1.81-1.42-1.87-1.22-.07-1.79,1.19-2.86,1.48a.5.5,0,0,0,.26,1Z"/><path class="cls-5" d="M298.06,417.19a9.09,9.09,0,0,1,4.14-2c1.64-.16,2.58,1,3.76,1.92,2.2,1.72,4.4.82,6.71-.16a9.64,9.64,0,0,1,8.83.49c2.16,1.25,4.41,2.76,6.92,1.49.82-.41.1-1.64-.71-1.23-1.59.81-3.23-.11-4.59-.94A14.38,14.38,0,0,0,319.4,415a11.37,11.37,0,0,0-7.55.76c-1.46.63-3.1,1.44-4.61.51-1-.63-1.77-1.63-2.89-2.15-2.44-1.12-5,.42-7,1.8-.74.52,0,1.75.71,1.23Z"/><path class="cls-5" d="M341.13,382.93c1-1,2.65-.86,3.94-.57,1.76.38,3.56,1,5.34.4.87-.28.5-1.65-.37-1.37-1.82.58-3.63-.3-5.42-.55a5.1,5.1,0,0,0-4.49,1.09c-.64.64.36,1.65,1,1Z"/><path class="cls-5" d="M-1,381.4c.67-1,1.46-2.35,2.71-2.75a2.23,2.23,0,0,1,1.53.05c.62.26.67.77,1,1.3.69,1.27,2.59.74,3.75.66l5.21-.35c.91-.06.91-1.48,0-1.42l-5.65.39-1.3.08c-.22,0-.6.1-.79-.08s-.11-.31-.16-.42a2.67,2.67,0,0,0-1.15-1.31,3.65,3.65,0,0,0-3.37,0,8.21,8.21,0,0,0-3,3.16c-.49.76.73,1.48,1.23.71Z"/><path class="cls-5" d="M232.85,384.38c2-1.1,4-2.27,6.09-3.32.43-.22,1-.54,1.45-.31s.42.85.59,1.29a2.14,2.14,0,0,0,1.47,1.29,9.16,9.16,0,0,0,2.22.07,5.88,5.88,0,0,1,2.9,1c1.63.92,3.33,1.68,5.17.88.83-.37.11-1.59-.72-1.23-2,.87-4-1.32-5.83-1.85a7.69,7.69,0,0,0-2.44-.16c-.4,0-1,.07-1.3-.24s-.3-.93-.45-1.29c-.66-1.62-2.36-1.37-3.65-.72-2.11,1.06-4.15,2.26-6.22,3.39-.8.43-.08,1.66.72,1.22Z"/><path class="cls-5" d="M-6.51,499.25c4.57.65,8.91-.59,13.08-2.38,3.77-1.61,9.16-4.94,13.37-3,1.49.69,1.65,2.42,2.78,3.48,1.54,1.43,3.76.95,5.6.54,2.16-.49,4.42-1.17,6.41.19,1.77,1.19,3.2,2.57,5.51,2.31,1.34-.15,1.36-2.28,0-2.13-2.41.27-3.67-1.9-5.7-2.7s-4-.36-5.93.08a13.19,13.19,0,0,1-3.16.56c-1.13,0-1.53-.63-2-1.53a5.56,5.56,0,0,0-3.38-3c-4.06-1.35-8.36.64-12,2.25-4.4,1.95-9,4-14,3.28-1.34-.18-1.91,1.87-.56,2.05Z"/><path class="cls-5" d="M288.68,507a38.23,38.23,0,0,1,4.33-2.53,18.38,18.38,0,0,1,4.51-1.82c.86-.17,1.52-.11,1.8.81.18.56.17,1.14.39,1.69a3.73,3.73,0,0,0,2.46,2.14,9.64,9.64,0,0,0,3.55.25c1.39-.09,2.83-.19,3.73,1,1.57,2.14,3.87,3.15,6.41,1.92,1.23-.6.15-2.43-1.07-1.84-1.55.75-2.75-.12-3.62-1.33a4.38,4.38,0,0,0-2.91-1.85c-2-.35-6.18,1-6.73-1.73-.24-1.18-.48-2.31-1.64-2.93a4.62,4.62,0,0,0-3.45-.09,33.7,33.7,0,0,0-8.83,4.43c-1.13.76-.07,2.6,1.07,1.84Z"/><path class="cls-5" d="M228.19,446.88a10.38,10.38,0,0,1,5.06-1.83,4.87,4.87,0,0,1,.54,0c.53,0,.1,0,.14-.1a8.35,8.35,0,0,0,0,1.23,10.43,10.43,0,0,1-.8,3c-.31.75.6,1.53,1.31,1.3a13.92,13.92,0,0,1,5.17-.61c1,.08,2.57.32,3,1.4.47,1.26,2.53.71,2.05-.57-1.5-4-7.59-3.26-10.76-2.27l1.3,1.31c.72-1.7,2.08-6.15-.67-6.75a8.29,8.29,0,0,0-3.66.37,12.59,12.59,0,0,0-3.7,1.71c-1.13.77-.07,2.61,1.07,1.84Z"/><path class="cls-5" d="M30.88,420.1c5.08-.33,9.38-3.37,14.18-4.73a4.38,4.38,0,0,1,2.34-.25c.78.26,1,1.39,1.48,2a3.76,3.76,0,0,0,4.46,1.43c2.29-.73,4-1.66,6.36-.38,1.19.66,2.27-1.18,1.07-1.84a7.41,7.41,0,0,0-6.41-.43c-1.67.62-2.91,1.4-4-.43-.5-.82-.78-1.64-1.66-2.13a4.06,4.06,0,0,0-2.43-.37,24.68,24.68,0,0,0-6.71,2.25c-2.73,1.16-5.63,2.55-8.64,2.75-1.36.09-1.37,2.22,0,2.12Z"/><path class="cls-5" d="M351.14,434.44a15.12,15.12,0,0,1,9.92-7c.26-.05,1.3-.29,1.45.1.05.13-.5.66-.59.79a1.77,1.77,0,0,0-.22,1.92c1,1.73,4,.39,5.43.07l-1.2-.49c1.21,2.51,4.28,2.71,6.72,2.74,3.81.06,7.62-.06,11.43-.34,1.35-.09,1.36-2.22,0-2.12-3.16.22-6.32.35-9.48.35-2,0-5.76.52-6.84-1.7a1.06,1.06,0,0,0-1.2-.49l-2,.44a5.79,5.79,0,0,0-1.1.25l.2.56.18-.23a2.34,2.34,0,0,0,.7-2.31c-.64-2.21-3.28-1.83-5-1.38a17.42,17.42,0,0,0-10.27,7.73c-.72,1.17,1.12,2.24,1.83,1.08Z"/><path class="cls-5" d="M121.78,532.83c1.18-.53,2.35-1.08,3.54-1.59.25-.1.49-.2.74-.28s.42.06.31-.16c.1.2-.19.77-.25,1-.54,1.69.2,3.21,2.17,3,1.22-.16,2.42-.43,3.64-.6s1.83.55,2.83,1a21.59,21.59,0,0,0,6.78,1.5c1.36.14,1.35-2,0-2.13a16,16,0,0,1-7-2,4.21,4.21,0,0,0-3.16-.49l-1.88.31c-.37.07-.75.14-1.12.19s-.62-.05-.49.21.28-.38.33-.55a4.79,4.79,0,0,0,.29-1.23,2,2,0,0,0-1.16-2,3.4,3.4,0,0,0-2.73.28c-1.3.56-2.59,1.17-3.89,1.75s-.17,2.39,1.07,1.83Z"/></g><path class="cls-6" d="M197.7,554.31c-.77,11.51-2.56,23-6.51,33.91a107.51,107.51,0,0,1-10.32,20.28c-3.4,5.44-6.9,10.83-9.23,16.83-3.06,7.89-3.49,16.37-4.14,24.72-.5,6.33-1,12.67-2,18.93-.92,5.65-2.17,11.47-5,16.52-.67,1.19,1.17,2.27,1.83,1.07a47.73,47.73,0,0,0,4.7-14.26,164.47,164.47,0,0,0,2.15-17c.77-9,.79-18.41,3.64-27.08,2-6.15,5.44-11.64,8.87-17.09a123.61,123.61,0,0,0,10.44-19.52c4.78-11.86,6.82-24.63,7.68-37.33.09-1.37-2-1.36-2.13,0Z"/><path class="cls-6" d="M85.57,543.23c-.92,7.07-8.65,10.26-13.69,14a45.06,45.06,0,0,0-9.72,10.57c-6.09,8.65-10.88,18.18-17.46,26.5A44.13,44.13,0,0,1,32,605.77a1.07,1.07,0,0,0,1.08,1.84c9.46-5.29,15.76-14.79,21.38-23.75,2.88-4.58,5.62-9.25,8.67-13.72C65.89,566.07,69,562,73,559.06c5.84-4.34,13.69-7.71,14.74-15.83.18-1.35-2-1.34-2.12,0Z"/><path class="cls-6" d="M106.22,547.18A21.4,21.4,0,0,0,96.56,551a27.75,27.75,0,0,0-7.19,8.35,108.19,108.19,0,0,1-14.79,19.34c-1,1,.54,2.48,1.5,1.5A102,102,0,0,0,90.28,562c2-3.26,4-6.53,7-8.88a20,20,0,0,1,9.46-3.87c1.35-.19.78-2.24-.56-2.05Z"/><path class="cls-6" d="M126.72,547.2a34.53,34.53,0,0,0-10.54,6.14,40,40,0,0,0-8.05,10c-1.87,3.1-3.64,6.33-6.27,8.86-2.13,2-4.4,3.92-6.48,6a49.74,49.74,0,0,0-8.28,11c-.66,1.2,1.17,2.27,1.84,1.07a47.21,47.21,0,0,1,7.11-9.69c2.07-2.17,4.34-4.12,6.55-6.14,5.52-5.08,7.91-12.51,13.19-17.81a31.61,31.61,0,0,1,11.49-7.34c1.28-.46.73-2.52-.56-2Z"/><path class="cls-6" d="M136.78,554c-2.87,2.23-4.51,5.49-6.65,8.35-2.47,3.3-6.21,5.05-9.18,7.82-5.65,5.27-9.08,12.4-12.34,19.28-.59,1.23,1.25,2.31,1.83,1.07,3.24-6.83,6.61-14,12.3-19.11,2.9-2.64,6.4-4.33,8.84-7.48,2.2-2.84,3.81-6.17,6.7-8.42,1.08-.84-.43-2.34-1.5-1.51Z"/><path class="cls-6" d="M158.26,553.37c-12.61,3.81-17.42,17.14-23.49,27.42-3.25,5.49-7.52,10-12,14.45-4.19,4.2-8.42,8.53-11.18,13.84-2.68,5.15-4.17,11.93-9.58,15a1.07,1.07,0,0,0,1.08,1.84c4.72-2.68,6.73-7.83,8.82-12.55A48.53,48.53,0,0,1,122,599c4.17-4.27,8.59-8.33,12.06-13.22,3.87-5.47,6.47-11.69,10-17.37s8.22-11,14.76-13a1.06,1.06,0,0,0-.56-2Z"/><path class="cls-6" d="M171.13,559.83c-6.28,2.12-10.73,7.4-13.66,13.15-3.56,7-5.54,14.58-9.51,21.37-2.27,3.87-4.88,7.53-7.49,11.17-.79,1.12,1.05,2.18,1.84,1.08a139.75,139.75,0,0,0,8.05-12.16A97.17,97.17,0,0,0,156,581.61c3-7.82,7.06-16.83,15.66-19.73,1.29-.43.73-2.48-.57-2Z"/><path class="cls-6" d="M134.23,614.19c-3.33,9.12-13.48,13.78-16.19,23.3a1.06,1.06,0,0,0,2,.57c1.33-4.69,4.76-8.27,8-11.74s6.51-7,8.17-11.57c.47-1.29-1.58-1.84-2.05-.56Z"/><path class="cls-6" d="M189.31,559.92c-3.52,2.06-5.81,5.51-7.53,9.12a97.71,97.71,0,0,0-4.23,11.09c-2.5,7.58-4.9,15.51-10.4,21.53-.92,1,.58,2.51,1.5,1.5,5.31-5.8,7.91-13.25,10.33-20.59,1.25-3.77,2.46-7.57,4.07-11.21s3.72-7.49,7.34-9.6a1.07,1.07,0,0,0-1.08-1.84Z"/><path class="cls-6" d="M139.67,680.83c7.44-3,11.45-10.21,13.73-17.52,1.37-4.38,2.38-8.89,3.5-13.33l3.59-14.29a1.06,1.06,0,0,0-2.05-.57c-2.17,8.62-4.13,17.33-6.57,25.88-2,7.08-5.47,14.83-12.77,17.78-1.25.5-.7,2.56.57,2.05Z"/><path class="cls-6" d="M148,639.33a42.63,42.63,0,0,1,7.23-16.72c.8-1.11-1-2.17-1.84-1.07a44.14,44.14,0,0,0-7.44,17.22c-.26,1.34,1.79,1.91,2.05.57Z"/><path class="cls-6" d="M133.75,643.35a37.47,37.47,0,0,1-4.28,9.69c-1.9,3.05-4.43,5.6-6.48,8.54-3.92,5.61-5.84,12.33-7.7,18.84a1.06,1.06,0,0,0,2,.57c1.89-6.62,3.83-13.43,8-19,2.14-2.89,4.59-5.47,6.43-8.58a39.73,39.73,0,0,0,4-9.46,1.06,1.06,0,0,0-2.05-.56Z"/><path class="cls-6" d="M103.14,639.58c-6.22,5.16-7.6,13.57-10.36,20.73a58,58,0,0,1-15,21.77c-1,.93.49,2.43,1.5,1.51a60.23,60.23,0,0,0,14.89-21.18c3-7.2,4.1-16.07,10.43-21.33,1.06-.88-.45-2.37-1.5-1.5Z"/><path class="cls-6" d="M112.52,653.86a98.1,98.1,0,0,0-11.68,21.76c-.49,1.28,1.56,1.83,2,.56a95.67,95.67,0,0,1,11.47-21.25c.79-1.12-1-2.18-1.84-1.07Z"/><path class="cls-6" d="M51.14,677.14c13.91-7.72,16-25.18,25.7-36.51.88-1-.61-2.54-1.51-1.5-5.07,5.92-8,13.14-11.53,20-3.27,6.34-7.34,12.63-13.73,16.18a1.07,1.07,0,0,0,1.07,1.84Z"/><path class="cls-6" d="M85.93,629A121.42,121.42,0,0,0,98,612a1.06,1.06,0,0,0-1.84-1.07,118,118,0,0,1-11.75,16.57c-.88,1,.62,2.55,1.51,1.5Z"/><path class="cls-6" d="M72.77,611.85c-5.37,9.54-15,15.81-22,24a86.84,86.84,0,0,0-9.75,14A119.25,119.25,0,0,0,34.31,665c-2.18,5.61-4.63,11.3-9.25,15.34-1,.91.48,2.4,1.51,1.51,4-3.49,6.45-8.17,8.46-13,2.19-5.21,4-10.54,6.62-15.57a84.47,84.47,0,0,1,9.53-14.56,135,135,0,0,1,11.61-12c4.38-4.17,8.82-8.53,11.81-13.85a1.06,1.06,0,0,0-1.83-1.07Z"/><path class="cls-6" d="M-1.88,673a85.79,85.79,0,0,0,13.47-8.24A46.28,46.28,0,0,0,20.92,655c5.32-7.43,9.48-15.62,14.42-23.29a56.51,56.51,0,0,1,8.47-10.81c1-.93-.5-2.44-1.5-1.5-6.19,5.78-10.4,13.65-14.67,20.86-4.45,7.53-8.76,15.5-15.48,21.28a75.59,75.59,0,0,1-15.11,9.59c-1.22.62-.15,2.46,1.07,1.84Z"/><path class="cls-6" d="M19.52,621.42c-3.14,5.31-7.45,9.53-12.1,13.51-4.27,3.66-8.58,7.3-11.78,12A37.08,37.08,0,0,0-9.08,657c-.4,1.31,1.65,1.87,2.05.56A36.13,36.13,0,0,1,2.62,642c4-3.86,8.49-7.14,12.34-11.14a45.79,45.79,0,0,0,6.4-8.38,1.06,1.06,0,0,0-1.84-1.07Z"/><path class="cls-6" d="M38.87,582.89a52.26,52.26,0,0,0,6.77-8.62c2-3.23,3.69-6.67,5.47-10,3.24-6.13,7.08-12.33,13.41-15.64,1.22-.63.14-2.47-1.07-1.84C57.24,550,53.18,555.94,49.92,562c-1.82,3.35-3.46,6.79-5.41,10.07a50.33,50.33,0,0,1-7.15,9.36c-1,1,.55,2.48,1.51,1.5Z"/><path class="cls-6" d="M38.05,548.29a28.85,28.85,0,0,1-5,10.86,39,39,0,0,1-7.9,7.5c-5.4,4.08-11.39,7.92-14.53,14.14-.62,1.22,1.21,2.3,1.83,1.08,3.25-6.42,9.66-10.17,15.15-14.45,6.14-4.79,10.74-10.87,12.53-18.56.32-1.33-1.73-1.9-2.05-.57Z"/><path class="cls-6" d="M-6,620c2.38-6.06,7.35-10.51,12.23-14.6s10.12-8.2,13.81-13.6c.78-1.13-1.07-2.2-1.83-1.07-7.4,10.83-21.28,16-26.26,28.71-.5,1.27,1.55,1.82,2.05.56Z"/><path class="cls-6" d="M-9.51,575.22c6.24-3,12.15-6.23,15.92-12.27a101.41,101.41,0,0,1,6.08-9.37,56.81,56.81,0,0,1,7.47-7.8c1-.89-.47-2.39-1.5-1.5A64.59,64.59,0,0,0,5.28,560.71a24.27,24.27,0,0,1-6.9,7.74,62.42,62.42,0,0,1-9,4.93c-1.23.6-.16,2.43,1.07,1.84Z"/><path class="cls-6" d="M63.59,598.85a84.58,84.58,0,0,1-9.27,11.66c-.94,1,.56,2.5,1.51,1.5a89.57,89.57,0,0,0,9.6-12.09c.75-1.14-1.09-2.21-1.84-1.07Z"/><path class="cls-6" d="M262.68,517.44c-9.31,2.6-12.61,12.71-14.69,21.06-.64,2.57-1.26,5.16-2.11,7.67a49.45,49.45,0,0,1-3.33,7.34,41.92,41.92,0,0,0-3.08,6.75,26.33,26.33,0,0,0-1.09,6.6c-.31,5.11.21,10.76-3.09,15.06-.67.87.81,1.72,1.47.86,2.64-3.44,3-7.81,3.16-12a57.86,57.86,0,0,1,.46-7,23.67,23.67,0,0,1,2.26-6.8c1.07-2.17,2.3-4.25,3.31-6.44a45.76,45.76,0,0,0,2.56-7.21c1.32-4.85,2.17-9.93,4.37-14.5,2.1-4.38,5.42-8.43,10.26-9.78a.85.85,0,0,0-.46-1.64Z"/><path class="cls-6" d="M215.35,602.12a53.76,53.76,0,0,0,9.52-22.28c.2-1.07-1.44-1.53-1.64-.45a52.7,52.7,0,0,1-9.34,21.87c-.65.89.82,1.74,1.46.86Z"/><path class="cls-6" d="M227.52,569a53.88,53.88,0,0,0,4.39-13.5c.82-4.55.83-9.19,1.73-13.73a51,51,0,0,1,11.54-23.5c.72-.82-.48-2-1.2-1.2a52.59,52.59,0,0,0-11.72,23c-1,4.64-1.07,9.38-1.84,14.06a52.36,52.36,0,0,1-4.37,14c-.46,1,1,1.85,1.47.86Z"/><path class="cls-6" d="M227.53,523.19c-6.92,6.18-7.87,15.94-8.47,24.63-.36,5.2-.73,10.45-2.54,15.38-1.57,4.29-4,8.18-6.16,12.2-2.29,4.35-4.21,9-4.17,14a.85.85,0,0,0,1.7,0c-.07-8.94,6.29-16.16,9.61-24,3.81-9,2.48-18.9,4.54-28.28,1.05-4.76,3-9.35,6.69-12.65.82-.73-.39-1.93-1.2-1.2Z"/><path class="cls-6" d="M181.76,679.63c2.27-10.07,1.36-20.47,3-30.61a38.05,38.05,0,0,1,4.81-13.85c2.34-3.86,5.27-7.31,7.87-11,2.79-3.95,5.09-8.21,5.64-13.09.13-1.08-1.58-1.08-1.7,0-1,9-8.44,15.45-13,22.75-5.28,8.47-6,18.39-6.44,28.11a99.56,99.56,0,0,1-1.83,17.23c-.24,1.07,1.4,1.52,1.64.45Z"/><path class="cls-6" d="M202.13,680.93c-1.63-8.85,2.23-17.49,6.37-25.09,4-7.31,8.52-14.56,10-22.88.2-1.08-1.44-1.53-1.64-.46-3.08,17-19.76,30.54-16.39,48.88.19,1.08,1.83.62,1.64-.45Z"/><path class="cls-6" d="M230.69,639.1a66.74,66.74,0,0,0,7.36-15.84c.33-1-1.31-1.5-1.64-.46a65,65,0,0,1-7.19,15.44c-.59.93.88,1.78,1.47.86Z"/><path class="cls-6" d="M242.21,613.54c4.67-7.91,4-17.32,5.5-26.08a33,33,0,0,1,4.44-12.23c2.21-3.58,4.91-6.82,7.31-10.26,2.58-3.69,4.81-7.7,5.49-12.22.16-1.07-1.48-1.53-1.64-.45-1.26,8.31-7.63,14.38-12,21.14a33.43,33.43,0,0,0-4.81,11.39,130.73,130.73,0,0,0-1.64,13.09c-.55,5.12-1.43,10.27-4.09,14.76a.85.85,0,0,0,1.47.86Z"/><path class="cls-6" d="M288,529.46c-8.12,4.26-10.27,14-11.29,22.29-.67,5.45-1.19,10.92-3.29,16-2,4.84-4.91,9.21-7.19,13.91a58,58,0,0,0-5.2,16.78c-.17,1.07,1.47,1.53,1.64.45A56.71,56.71,0,0,1,267,584c2.07-4.57,4.82-8.78,7-13.3a46.69,46.69,0,0,0,3.87-14.3c.62-4.89,1-9.86,2.58-14.56,1.52-4.47,4.16-8.66,8.43-10.9,1-.51.11-2-.86-1.47Z"/><path class="cls-6" d="M233.22,676.27c-.13-9.3,6.56-16.51,11.44-23.76a50.84,50.84,0,0,0,8.53-24.15c.09-1.09-1.61-1.08-1.7,0a50.27,50.27,0,0,1-9.34,24.8c-4.89,7-10.76,14.12-10.63,23.11a.85.85,0,0,0,1.7,0Z"/><path class="cls-6" d="M315.1,536.33c-2.2,8.13-9.68,13.13-14.67,19.45A44.86,44.86,0,0,0,291,579.6c-.1,1.09,1.61,1.09,1.7,0a42.92,42.92,0,0,1,10.2-24.16c5.06-5.84,11.72-10.87,13.83-18.66a.85.85,0,0,0-1.64-.45Z"/><path class="cls-6" d="M329.88,578.14c-8.22,3.79-7.35,14.25-10.87,21.2-1.86,3.68-4.91,6.53-7.54,9.64a25.25,25.25,0,0,0-5.37,10.21c-1.1,4.36-1.53,9-4.35,12.72-.67.87.81,1.71,1.47.86,2.33-3,3.12-6.8,3.92-10.47.87-4,2-7.68,4.62-11,2.39-3.06,5.26-5.71,7.44-8.94,2.48-3.69,3.3-8,4.42-12.18s2.94-8.65,7.12-10.58c1-.46.13-1.93-.86-1.47Z"/><path class="cls-6" d="M284.49,613.69a27.6,27.6,0,0,1-5.16,13c-2.51,3.39-5.78,6.18-8,9.81a16,16,0,0,0-2.14,5.88c-.38,2.38-.38,4.82-.95,7.17-1.13,4.6-3.91,8.54-6.15,12.64-2.46,4.49-4.35,9.56-3.17,14.72.24,1.07,1.88.62,1.64-.45-2.22-9.68,6.87-17.32,9.21-26.05a48.53,48.53,0,0,0,1-6.9A15.39,15.39,0,0,1,273,637c2.23-3.53,5.46-6.29,7.9-9.66a29.22,29.22,0,0,0,5.27-13.67c.13-1.09-1.57-1.08-1.7,0Z"/><path class="cls-6" d="M252.23,661.42a25,25,0,0,0,5.89-11.52c.22-1.07-1.42-1.53-1.65-.46A23.11,23.11,0,0,1,251,660.22c-.73.81.47,2,1.21,1.2Z"/><path class="cls-6" d="M278.61,587c-2.84,3.81-2.92,8.72-3.85,13.2A53.23,53.23,0,0,1,269.29,615c-.53,1,.94,1.81,1.47.85a54.94,54.94,0,0,0,5.46-14.33c1-4.57.95-9.77,3.86-13.67.65-.88-.82-1.73-1.47-.86Z"/><path class="cls-6" d="M341.75,564.8c6.76-6.62,5.31-17.32,11.1-24.48.69-.84-.51-2.05-1.2-1.2-2.87,3.54-4.11,7.89-5.3,12.21s-2.45,9-5.81,12.26c-.78.77.42,2,1.21,1.21Z"/><path class="cls-6" d="M335.56,540.56c-6.82,2.12-9.2,9.35-11.38,15.38a36.41,36.41,0,0,1-5.19,9.55c-1.95,2.64-3.81,5.39-3.92,8.78,0,1.1,1.66,1.1,1.7,0,.1-3.18,2.1-5.77,3.92-8.23a34.38,34.38,0,0,0,4.68-8.42c2.16-5.71,4-13.36,10.64-15.42,1.05-.32.6-2-.45-1.64Z"/><path class="cls-6" d="M358.81,645c2.94-2.2,4-5.62,5-9a31.57,31.57,0,0,1,4.87-9.95c4.35-5.93,10.08-11.07,12.24-18.32a.85.85,0,0,0-1.64-.45c-2.07,6.94-7.64,12-11.85,17.62a30.55,30.55,0,0,0-4.79,9.08c-1,3.32-1.71,7.33-4.68,9.55-.86.65,0,2.13.86,1.47Z"/><path class="cls-6" d="M356.33,674.37A51,51,0,0,0,365.19,656a.85.85,0,0,0-1.64-.45,49.78,49.78,0,0,1-8.69,17.92c-.66.87.81,1.72,1.47.86Z"/><path class="cls-6" d="M309.05,677.72a37.24,37.24,0,0,0,9.79-10.38,42.83,42.83,0,0,0,5.27-13.72c1.13-5,2.15-10.15,5.27-14.39,2.55-3.48,6-6.22,9.08-9.17,3.37-3.17,6.49-6.7,7.81-11.23a.85.85,0,0,0-1.64-.45c-2.38,8.15-10.66,12.49-15.75,18.74-3,3.68-4.55,8-5.62,12.52-1.15,4.9-2.07,9.78-4.42,14.29a35.43,35.43,0,0,1-10.65,12.33c-.88.63,0,2.11.86,1.46Z"/><path class="cls-6" d="M327.74,617.21c-.69,5.32-4.71,9.42-8,13.32s-6.45,7.92-6.8,13.11c-.07,1.09,1.63,1.08,1.7,0,.36-5.35,4.23-9.5,7.56-13.37s6.6-7.87,7.28-13.06c.14-1.08-1.56-1.07-1.7,0Z"/><path class="cls-6" d="M331.61,672c6.85-4.79,6.58-14.41,12.51-19.9.8-.75-.4-2-1.21-1.2-2.9,2.68-4.4,6.38-5.88,10s-3,7.39-6.28,9.67c-.89.62,0,2.1.86,1.47Z"/><path class="cls-6" d="M283.72,677.38a22.28,22.28,0,0,1,7.53-13.59,23.49,23.49,0,0,0,5-5.66,36.2,36.2,0,0,0,2.84-7.42.85.85,0,0,0-1.64-.45,31.06,31.06,0,0,1-3,7.56c-1.45,2.35-3.63,4-5.59,5.91a22.87,22.87,0,0,0-6.74,13.19c-.16,1.08,1.48,1.54,1.64.46Z"/><path class="cls-6" d="M355.36,601.39c-.07-9.12,8.7-14.54,15.25-19.17a39.34,39.34,0,0,0,9.28-8.6,64.94,64.94,0,0,0,6.39-11.87c.44-1-1-1.86-1.47-.86a81,81,0,0,1-4.84,9.57,31.37,31.37,0,0,1-7.17,8c-5.36,4.28-11.61,7.46-15.73,13.11a16.47,16.47,0,0,0-3.41,9.8.85.85,0,0,0,1.7,0Z"/><path class="cls-6" d="M368.66,544.41c-6.34,4.52-6.55,12.88-9.64,19.39-1.85,3.89-5,6.78-8,9.75s-5.85,6.23-7.44,10.36a76.38,76.38,0,0,0-2.32,7.87l-2.39,9a.85.85,0,0,0,1.64.45c1.31-4.93,2.46-9.94,4-14.8a26.2,26.2,0,0,1,7-11c2.84-2.81,5.91-5.49,8-8.94,1.9-3.14,2.85-6.74,3.93-10.21,1.2-3.87,2.64-7.95,6.08-10.4.88-.63,0-2.11-.86-1.47Z"/><path class="cls-6" d="M308.34,588.7a36,36,0,0,1-5.08,11c-.63.9.85,1.75,1.46.86A37.07,37.07,0,0,0,310,589.15a.85.85,0,0,0-1.64-.45Z"/><circle cx="187.5" cy="0.01" r="146.32" style="opacity:.15;fill:#f5be17"/><circle cx="187.5" cy="0.01" r="123.95" style="opacity:.35;fill:#f5be17"/><circle class="cls-6" cx="187.5" cy="0.01" r="105.19"/><rect x="-4.87" y="-6.02" width="384.75" height="679.05" style="fill:#e49225;opacity:.2"/></g></g></svg>