<?xml version="1.0" encoding="utf-8"?>
<!--Generator: Adobe Illustrator 24.0.1, SVG Export Plug-In . SVG Version: 6.00 Build 0)-->
<svg version="1.1" id="Layer_1" xmlns="http://www.w3.org/2000/svg" xmlns:xlink="http://www.w3.org/1999/xlink" x="0px" y="0px" viewBox="0 0 375 667" style="enable-background:new 0 0 375 667" xml:space="preserve">
  <style type="text/css">
    .st3{fill:#efa220}.st4{fill:#f5be17}
  </style>
  <g id="Diet">
    <g>
      <defs>
        <rect id="SVGID_1_" x="-6.2" y="-8.4" width="387.5" height="681.4"/>
      </defs>
      <clipPath id="SVGID_2_">
        <use xlink:href="#SVGID_1_" style="overflow:visible"/>
      </clipPath>
      <g style="clip-path:url(#SVGID_2_)">
        <rect x="-20.5" y="-80.2" width="421.7" height="717.4" style="fill:#f7cf89"/>
        <path d="M426.2,167.1c-47.9-29-112.4-23.2-159.1,7.7c-15.8,10.5-29.9,23.4-44.3,35.8c-41.5,35.6-89.1,67.1-143,76
				c-23,3.8-46.8,3.4-68.8,10.8s-43,25.5-43.9,48.8c-0.5,13.4,5.8,26.3,15,36s21,16.5,33.2,22c61,27.1,130.6,23.4,197.2,19.1
				c38.2-2.5,77.3-5.1,112.5-20.2c17.6-7.5,33.7-18,49.1-29.2s30.1-23.5,41.2-38.9c19.6-27.2,26-61.5,31.8-94.5" style="fill:#f1c461"/>
        <path class="st3" d="M422.8,296.1c-21.6-55.7-66.2-13.3-171-10.4c-263.1,7.2-189.4-85.8-324.1-40.1L-49.1,507l450.3-4.2
				L422.8,296.1z"/>
        <path class="st4" d="M436.5,300.7c-130.2,29.7-200.5-53.1-284.3-48.3c-94.4,5.4-116.6,44.2-189.9,39.1
				c-4.2-0.3,10.6,390.3,10.6,390.3l450.3-5.6L436.5,300.7z"/>
        <path d="M-20.5,527.4c49.2,56.7,64.8,7.2,157.2,38c101,33.7,34-32.1,91.9-36.1c39.3-2.7,63.6,13.1,84.8,18.6
				c17.1,4.5,23.3-6.3,52.5,2.7c19.7,6,35.2-14.6,35.2-14.6l-3.3,147H-20.5V527.4z" style="opacity:.4;fill:#efa220;enable-background:new"/>
        <g style="opacity:.4">
          <path class="st3" d="M37.3,319.9c0.6-0.7,1.7-2,2.7-1.4c0.4,0.2,0.7,0.6,1.2,0.6c0.5,0,0.9-0.3,1.1-0.7c0.2-0.4,0.8-0.6,1.2-0.4
					c0.5,0.1,1,0.4,1.5,0.6c0.8,0.4,1.8,0.2,2.4-0.6c0.3-0.5-0.5-1-0.9-0.5c-0.5,0.7-1.9-0.2-2.5-0.4c-0.5-0.2-1-0.3-1.5-0.1
					c-0.4,0.2-0.8,0.4-1,0.8c-0.1,0.2-0.2,0.4-0.4,0.3s-0.4-0.3-0.6-0.4c-0.4-0.2-0.9-0.3-1.3-0.2c-1,0.3-1.9,0.9-2.5,1.8
					C36.3,319.7,37,320.4,37.3,319.9L37.3,319.9z"/>
          <path class="st3" d="M221.7,299.3c0.8-0.6,1.6-1.1,2.5-1.5c0.2-0.1,2.4-1.2,2.4-1.2s-0.2,0.7-0.2,0.9c-0.1,0.3-0.1,0.5,0,0.8
					c0.2,0.4,0.5,0.8,1,0.9c0.2,0.1,0.5,0.2,0.8,0.3c0.3,0.2,0.6,0.5,0.7,0.8c0.3,0.5,0.9,0.8,1.5,0.8c0.8,0,1.6-0.2,2.4-0.1
					c1,0.1,1.9,0.3,2.9,0.7c0.6,0.2,1.1-0.6,0.5-0.9c-1.6-0.7-3.4-1-5.2-0.7c-0.6,0.1-0.9,0.1-1.3-0.4c-0.2-0.3-0.4-0.5-0.6-0.7
					c-0.4-0.3-1.2-0.4-1.6-0.8s0.2-1.2,0.2-1.7c0-0.5-0.5-0.9-1-0.8c0,0,0,0,0,0c-0.1,0-0.1,0-0.2,0c-0.9,0.3-1.7,0.6-2.5,1.1
					c-0.9,0.5-1.8,1-2.7,1.6C220.6,298.8,221.2,299.7,221.7,299.3L221.7,299.3z"/>
          <path class="st3" d="M119.9,279.2c1.7,0.4,3.1-1.4,4.8-1.3c0.8,0,1.2,0.8,2,0.7c0.7-0.1,1.3-0.4,1.8-0.8c0.3-0.2,0.6-0.4,1-0.5
					c0.4-0.1,0.5,0,0.3,0.3c-0.3,0.5-0.9,1-0.6,1.7c0.6,1.2,2.9,0.2,3.7,0c0.7-0.1,1.4,0.1,1.9,0.5c0.9,0.4,1.8,0.6,2.8,0.4
					c0.6-0.1,0.6-1.1,0-1c-0.9,0.2-1.8,0-2.6-0.4c-0.5-0.3-1-0.5-1.6-0.6c-0.7,0.1-1.4,0.2-2,0.4c-0.4,0.1-0.8,0.2-1.2,0.2
					c-0.2,0-0.1,0.1-0.1,0c0.1-0.2,0.2-0.3,0.3-0.5c0.3-0.5,0.7-1,0.4-1.6c-0.3-0.5-0.9-0.7-1.4-0.5c-0.7,0.2-1.4,0.5-2,0.9
					c-0.2,0.1-0.6,0.4-0.8,0.3s-0.7-0.4-1-0.6c-0.9-0.3-1.9-0.2-2.7,0.2c-0.8,0.3-1.8,1.1-2.7,0.9c-0.3,0-0.5,0.2-0.6,0.4
					C119.4,278.9,119.6,279.1,119.9,279.2L119.9,279.2z"/>
          <path class="st3" d="M279.7,322.5c0.7-0.3,1.3-0.7,1.9-1.2c0.2-0.2,0.5-0.3,0.8-0.2c0.1,0,0.5,0.2,0.4,0.4
					c-0.1,0.2,0,0.6,0.2,0.7c0,0,0,0,0,0c0.1,0,0.2,0,0.3,0l5.3-0.7c0.6-0.1,0.4-1-0.3-1l-5.3,0.7l0.6,0.7c0.5-1-0.5-1.8-1.4-1.9
					c-1.2-0.1-1.8,1.2-2.9,1.5c-0.3,0-0.5,0.3-0.4,0.6c0,0.3,0.3,0.5,0.6,0.4C279.6,322.5,279.7,322.5,279.7,322.5z"/>
          <path class="st3" d="M298.1,417.2c1.2-1,2.6-1.7,4.1-2c1.6-0.2,2.6,1,3.8,1.9c2.2,1.7,4.4,0.8,6.7-0.2c2.8-1.3,6.1-1.1,8.8,0.5
					c2.2,1.2,4.4,2.8,6.9,1.5c0.8-0.4,0.1-1.6-0.7-1.2c-1.6,0.8-3.2-0.1-4.6-0.9c-1.2-0.8-2.4-1.4-3.7-1.8c-2.5-0.6-5.2-0.4-7.5,0.8
					c-1.5,0.6-3.1,1.4-4.6,0.5c-0.9-0.8-1.9-1.5-2.9-2.1c-2.4-1.1-5,0.4-7,1.8C296.6,416.4,297.4,417.7,298.1,417.2L298.1,417.2z"/>
          <path class="st3" d="M341.1,382.9c1-1,2.6-0.9,3.9-0.6c1.8,0.4,3.6,1,5.3,0.4c0.9-0.3,0.5-1.6-0.4-1.4c-1.8,0.6-3.6-0.3-5.4-0.5
					c-1.6-0.4-3.3,0-4.5,1.1C339.5,382.6,340.5,383.6,341.1,382.9z"/>
          <path class="st3" d="M-1,381.4c0.7-1,1.5-2.4,2.7-2.8c0.5-0.2,1-0.1,1.5,0c0.6,0.3,0.7,0.8,1,1.3c0.7,1.3,2.6,0.7,3.8,0.7
					l5.2-0.4c0.9-0.1,0.9-1.5,0-1.4l-5.7,0.4l-1.3,0.1c-0.2,0-0.6,0.1-0.8-0.1s-0.1-0.3-0.2-0.4c-0.2-0.6-0.6-1-1.2-1.3
					c-1.1-0.5-2.3-0.5-3.4,0c-1.3,0.8-2.3,1.9-3,3.2C-2.7,381.5-1.5,382.2-1,381.4L-1,381.4z"/>
          <path class="st3" d="M232.9,384.4c2-1.1,4-2.3,6.1-3.3c0.4-0.2,1-0.5,1.4-0.3s0.4,0.9,0.6,1.3c0.3,0.6,0.8,1.1,1.5,1.3
					c0.7,0.1,1.5,0.1,2.2,0.1c1,0.1,2,0.4,2.9,1c1.6,0.9,3.3,1.7,5.2,0.9c0.8-0.4,0.1-1.6-0.7-1.2c-2,0.9-4-1.3-5.8-1.9
					c-0.8-0.2-1.6-0.2-2.4-0.2c-0.4,0-1,0.1-1.3-0.2s-0.3-0.9-0.4-1.3c-0.7-1.6-2.4-1.4-3.6-0.7c-2.1,1.1-4.1,2.3-6.2,3.4
					C231.3,383.6,232,384.8,232.9,384.4L232.9,384.4z"/>
          <path class="st3" d="M-6.5,499.2c4.6,0.6,8.9-0.6,13.1-2.4c3.8-1.6,9.2-4.9,13.4-3c1.5,0.7,1.6,2.4,2.8,3.5
					c1.5,1.4,3.8,1,5.6,0.5c2.2-0.5,4.4-1.2,6.4,0.2c1.8,1.2,3.2,2.6,5.5,2.3c1.3-0.1,1.4-2.3,0-2.1c-2.4,0.3-3.7-1.9-5.7-2.7
					s-4-0.4-5.9,0.1c-1,0.3-2.1,0.5-3.2,0.6c-1.1,0-1.5-0.6-2-1.5c-0.7-1.4-1.9-2.5-3.4-3c-4.1-1.4-8.4,0.6-12,2.2
					c-4.4,2-9,4-14,3.3C-7.3,497-7.8,499.1-6.5,499.2L-6.5,499.2z"/>
          <path class="st3" d="M288.7,507c1.4-0.9,2.8-1.8,4.3-2.5c1.4-0.8,2.9-1.4,4.5-1.8c0.9-0.2,1.5-0.1,1.8,0.8
					c0.2,0.6,0.2,1.1,0.4,1.7c0.5,1.1,1.4,1.8,2.5,2.1c1.2,0.3,2.4,0.4,3.5,0.2c1.4-0.1,2.8-0.2,3.7,1c1.6,2.1,3.9,3.1,6.4,1.9
					c1.2-0.6,0.1-2.4-1.1-1.8c-1.5,0.8-2.8-0.1-3.6-1.3c-0.7-1-1.7-1.7-2.9-1.9c-2-0.4-6.2,1-6.7-1.7c-0.2-1.2-0.5-2.3-1.6-2.9
					c-1.1-0.5-2.3-0.5-3.5-0.1c-3.1,1-6.1,2.5-8.8,4.4C286.5,505.9,287.5,507.7,288.7,507L288.7,507z"/>
          <path class="st3" d="M228.2,446.9c1.5-1,3.2-1.7,5.1-1.8h0.5c0.5,0,0.1,0,0.1-0.1c0,0.4,0,0.8,0,1.2c-0.1,1-0.4,2-0.8,3
					c-0.3,0.8,0.6,1.5,1.3,1.3c1.7-0.5,3.4-0.7,5.2-0.6c1,0.1,2.6,0.3,3,1.4c0.5,1.3,2.5,0.7,2-0.6c-1.5-4-7.6-3.3-10.8-2.3l1.3,1.3
					c0.7-1.7,2.1-6.1-0.7-6.8c-1.2-0.2-2.5,0-3.7,0.4c-1.3,0.4-2.6,0.9-3.7,1.7C226,445.8,227,447.7,228.2,446.9L228.2,446.9z"/>
          <path class="st3" d="M30.9,420.1c5.1-0.3,9.4-3.4,14.2-4.7c0.7-0.3,1.6-0.4,2.3-0.2c0.8,0.3,1,1.4,1.5,2c1,1.5,2.8,2.1,4.5,1.4
					c2.3-0.7,4-1.7,6.4-0.4c1.2,0.7,2.3-1.2,1.1-1.8c-2-1.1-4.3-1.3-6.4-0.4c-1.7,0.6-2.9,1.4-4-0.4c-0.5-0.8-0.8-1.6-1.7-2.1
					c-0.8-0.4-1.6-0.5-2.4-0.4c-2.3,0.4-4.6,1.2-6.7,2.2c-2.7,1.2-5.6,2.5-8.6,2.8C29.6,418.1,29.5,420.2,30.9,420.1L30.9,420.1z"/>
          <path class="st3" d="M351.1,434.4c2.2-3.6,5.8-6.2,9.9-7c0.3,0,1.3-0.3,1.5,0.1c0,0.1-0.5,0.7-0.6,0.8c-0.4,0.5-0.5,1.3-0.2,1.9
					c1,1.7,4,0.4,5.4,0.1l-1.2-0.5c1.2,2.5,4.3,2.7,6.7,2.7c3.8,0.1,7.6-0.1,11.4-0.3c1.4-0.1,1.4-2.2,0-2.1
					c-3.2,0.2-6.3,0.4-9.5,0.4c-2,0-5.8,0.5-6.8-1.7c-0.2-0.4-0.7-0.6-1.2-0.5l-2,0.4c-0.4,0-0.7,0.1-1.1,0.2l0.2,0.6l0.2-0.2
					c0.6-0.6,0.9-1.5,0.7-2.3c-0.6-2.2-3.3-1.8-5-1.4c-4.3,1.2-8,3.9-10.3,7.7C348.6,434.5,350.4,435.6,351.1,434.4L351.1,434.4z"/>
          <path class="st3" d="M121.8,532.8c1.2-0.5,2.3-1.1,3.5-1.6c0.2-0.1,0.5-0.2,0.7-0.3s0.4,0.1,0.3-0.2c0.1,0.2-0.2,0.8-0.2,1
					c-0.5,1.7,0.2,3.2,2.2,3c1.2-0.2,2.4-0.4,3.6-0.6s1.8,0.5,2.8,1c2.2,0.9,4.5,1.4,6.8,1.5c1.4,0.1,1.4-2,0-2.1
					c-2.5-0.1-4.9-0.8-7-2c-0.9-0.6-2.1-0.7-3.2-0.5l-1.9,0.3c-0.4,0.1-0.8,0.1-1.1,0.2s-0.6,0-0.5,0.2c0.1,0.3,0.3-0.4,0.3-0.5
					c0.2-0.4,0.2-0.8,0.3-1.2c0.1-0.8-0.4-1.6-1.2-2c-0.9-0.3-1.9-0.2-2.7,0.3c-1.3,0.6-2.6,1.2-3.9,1.8S120.6,533.4,121.8,532.8
					L121.8,532.8z"/>
        </g>
        <path class="st4" d="M197.7,554.3c-0.8,11.5-2.6,23-6.5,33.9c-2.7,7.1-6.2,13.9-10.3,20.3c-3.4,5.4-6.9,10.8-9.2,16.8
				c-3.1,7.9-3.5,16.4-4.1,24.7c-0.5,6.3-1,12.7-2,18.9c-0.9,5.7-2.2,11.5-5,16.5c-0.7,1.2,1.2,2.3,1.8,1.1
				c2.3-4.5,3.9-9.3,4.7-14.3c1-5.6,1.7-11.3,2.1-17c0.8-9,0.8-18.4,3.6-27.1c2-6.2,5.4-11.6,8.9-17.1c4.1-6.2,7.6-12.7,10.4-19.5
				c4.8-11.9,6.8-24.6,7.7-37.3C199.9,552.9,197.8,552.9,197.7,554.3L197.7,554.3z"/>
        <path class="st4" d="M85.6,543.2c-0.9,7.1-8.7,10.3-13.7,14c-3.8,3-7.1,6.5-9.7,10.6c-6.1,8.7-10.9,18.2-17.5,26.5
				c-3.4,4.6-7.8,8.5-12.7,11.5c-0.5,0.3-0.6,1-0.3,1.5c0.3,0.4,0.9,0.6,1.3,0.4c9.5-5.3,15.8-14.8,21.4-23.8
				c2.9-4.6,5.6-9.2,8.7-13.7c2.8-4.1,5.9-8.1,9.9-11.1c5.8-4.3,13.7-7.7,14.7-15.8C87.9,541.9,85.7,541.9,85.6,543.2L85.6,543.2z"/>
        <path class="st4" d="M106.2,547.2c-3.5,0.5-6.8,1.8-9.7,3.8c-2.9,2.3-5.4,5.1-7.2,8.3c-4.2,7-9.2,13.5-14.8,19.3
				c-0.4,0.4-0.4,1.1,0,1.5s1.1,0.4,1.5,0c5.4-5.5,10.2-11.6,14.2-18.2c2-3.3,4-6.5,7-8.9c2.8-2.1,6-3.4,9.5-3.9
				C108.1,549.1,107.5,547,106.2,547.2L106.2,547.2z"/>
        <path class="st4" d="M126.7,547.2c-3.9,1.4-7.4,3.5-10.5,6.1c-3.2,2.9-5.9,6.3-8.1,10c-1.9,3.1-3.6,6.3-6.3,8.9
				c-2.1,2-4.4,3.9-6.5,6c-3.3,3.3-6,7-8.3,11c-0.7,1.2,1.2,2.3,1.8,1.1c1.9-3.5,4.3-6.8,7.1-9.7c2.1-2.2,4.3-4.1,6.6-6.1
				c5.5-5.1,7.9-12.5,13.2-17.8c3.3-3.3,7.2-5.8,11.5-7.3C128.6,548.8,128,546.8,126.7,547.2L126.7,547.2z"/>
        <path class="st4" d="M136.8,554c-2.9,2.2-4.5,5.5-6.6,8.3c-2.5,3.3-6.2,5-9.2,7.8c-5.7,5.3-9.1,12.4-12.3,19.3
				c-0.6,1.2,1.2,2.3,1.8,1.1c3.2-6.8,6.6-14,12.3-19.1c2.9-2.6,6.4-4.3,8.8-7.5c2.2-2.8,3.8-6.2,6.7-8.4
				C139.4,554.7,137.9,553.2,136.8,554L136.8,554z"/>
        <path class="st4" d="M158.3,553.4c-12.6,3.8-17.4,17.1-23.5,27.4c-3.2,5.5-7.5,10-12,14.5c-4.2,4.2-8.4,8.5-11.2,13.8
				c-2.7,5.2-4.2,11.9-9.6,15c-0.5,0.3-0.6,1-0.3,1.5c0.3,0.4,0.9,0.6,1.3,0.4c4.7-2.7,6.7-7.8,8.8-12.5c2.5-5.4,5.9-10.2,10.1-14.4
				c4.2-4.3,8.6-8.3,12.1-13.2c3.9-5.5,6.5-11.7,10-17.4s8.2-11,14.8-13c0.5-0.3,0.7-0.9,0.5-1.4c0,0,0,0,0,0
				C159.1,553.6,158.7,553.4,158.3,553.4L158.3,553.4z"/>
        <path class="st4" d="M171.1,559.8c-6.3,2.1-10.7,7.4-13.7,13.2c-3.6,7-5.5,14.6-9.5,21.4c-2.3,3.9-4.9,7.5-7.5,11.2
				c-0.8,1.1,1.1,2.2,1.8,1.1c2.9-3.9,5.6-8,8.1-12.2c2.2-4.1,4.1-8.4,5.6-12.8c3-7.8,7.1-16.8,15.7-19.7
				C172.9,561.5,172.4,559.4,171.1,559.8L171.1,559.8z"/>
        <path class="st4" d="M134.2,614.2c-3.3,9.1-13.5,13.8-16.2,23.3c0,0.6,0.4,1.1,1,1.1c0.4,0,0.8-0.2,1-0.6c1.3-4.7,4.8-8.3,8-11.7
				c3.2-3.5,6.5-7,8.2-11.6C136.7,613.5,134.6,612.9,134.2,614.2L134.2,614.2z"/>
        <path class="st4" d="M189.3,559.9c-3.5,2.1-5.8,5.5-7.5,9.1c-1.6,3.6-3,7.3-4.2,11.1c-2.5,7.6-4.9,15.5-10.4,21.5
				c-0.9,1,0.6,2.5,1.5,1.5c5.3-5.8,7.9-13.2,10.3-20.6c1.2-3.8,2.5-7.6,4.1-11.2s3.7-7.5,7.3-9.6c0.5-0.3,0.6-1,0.3-1.5
				C190.4,559.8,189.8,559.7,189.3,559.9L189.3,559.9z"/>
        <path class="st4" d="M139.7,680.8c7.4-3,11.4-10.2,13.7-17.5c1.4-4.4,2.4-8.9,3.5-13.3l3.6-14.3c0.2-0.6-0.2-1.2-0.7-1.3
				c-0.6-0.2-1.2,0.2-1.3,0.7c-2.2,8.6-4.1,17.3-6.6,25.9c-2,7.1-5.5,14.8-12.8,17.8C137.8,679.3,138.4,681.3,139.7,680.8
				L139.7,680.8z"/>
        <path class="st4" d="M148,639.3c1.2-6,3.6-11.7,7.2-16.7c0.8-1.1-1-2.2-1.8-1.1c-3.7,5.1-6.2,11-7.4,17.2
				C145.7,640.1,147.7,640.7,148,639.3z"/>
        <path class="st4" d="M133.8,643.3c-1,3.4-2.4,6.7-4.3,9.7c-1.9,3-4.4,5.6-6.5,8.5c-3.9,5.6-5.8,12.3-7.7,18.8
				c0,0.6,0.4,1.1,1,1.1c0.4,0,0.8-0.2,1-0.6c1.9-6.6,3.8-13.4,8-19c2.1-2.9,4.6-5.5,6.4-8.6c1.7-3,3.1-6.1,4-9.5
				c0.2-0.6-0.2-1.2-0.7-1.3C134.4,642.5,133.8,642.8,133.8,643.3L133.8,643.3z"/>
        <path class="st4" d="M103.1,639.6c-6.2,5.2-7.6,13.6-10.4,20.7c-3.3,8.3-8.4,15.8-15,21.8c-1,0.9,0.5,2.4,1.5,1.5
				c6.4-5.9,11.5-13.1,14.9-21.2c3-7.2,4.1-16.1,10.4-21.3C105.7,640.2,104.2,638.7,103.1,639.6L103.1,639.6z"/>
        <path class="st4" d="M112.5,653.9c-4.8,6.7-8.7,14-11.7,21.8c-0.5,1.3,1.6,1.8,2,0.6c2.9-7.5,6.8-14.7,11.5-21.2
				C115.1,653.8,113.3,652.8,112.5,653.9L112.5,653.9z"/>
        <path class="st4" d="M51.1,677.1c13.9-7.7,16-25.2,25.7-36.5c0.9-1-0.6-2.5-1.5-1.5c-5.1,5.9-8,13.1-11.5,20
				c-3.3,6.3-7.3,12.6-13.7,16.2c-0.5,0.3-0.6,1-0.2,1.5C50.1,677.2,50.7,677.4,51.1,677.1L51.1,677.1z"/>
        <path class="st4" d="M85.9,629c4.5-5.3,8.5-11,12.1-17c0.3-0.5,0.1-1.2-0.4-1.5s-1.2-0.1-1.5,0.4l0,0l0,0
				c-3.4,5.9-7.4,11.4-11.8,16.6C83.5,628.5,85,630,85.9,629L85.9,629z"/>
        <path class="st4" d="M72.8,611.8c-5.4,9.5-15,15.8-22,24c-3.7,4.3-7,9-9.8,14c-2.6,4.9-4.8,9.9-6.7,15.2
				c-2.2,5.6-4.6,11.3-9.2,15.3c-1,0.9,0.5,2.4,1.5,1.5c4-3.5,6.4-8.2,8.5-13c2.2-5.2,4-10.5,6.6-15.6c2.7-5.2,5.9-10,9.5-14.6
				c3.6-4.2,7.5-8.2,11.6-12c4.4-4.2,8.8-8.5,11.8-13.8c0.3-0.5,0.1-1.2-0.4-1.4C73.7,611.1,73.1,611.3,72.8,611.8L72.8,611.8z"/>
        <path class="st4" d="M-1.9,673c4.7-2.3,9.2-5.1,13.5-8.2c3.6-2.8,6.7-6.1,9.3-9.8c5.3-7.4,9.5-15.6,14.4-23.3
				c2.4-3.9,5.2-7.6,8.5-10.8c1-0.9-0.5-2.4-1.5-1.5c-6.2,5.8-10.4,13.7-14.7,20.9c-4.4,7.5-8.8,15.5-15.5,21.3
				c-4.6,3.8-9.7,7-15.1,9.6C-4.2,671.8-3.1,673.6-1.9,673L-1.9,673z"/>
        <path class="st4" d="M19.5,621.4c-3.1,5.3-7.4,9.5-12.1,13.5c-4.3,3.7-8.6,7.3-11.8,12C-6.4,650-8,653.4-9.1,657
				c-0.4,1.3,1.7,1.9,2.1,0.6c1.8-5.9,5.2-11.3,9.6-15.6c4-3.9,8.5-7.1,12.3-11.1c2.4-2.5,4.6-5.3,6.4-8.4c0.3-0.5,0.1-1.2-0.4-1.5
				S19.8,620.9,19.5,621.4L19.5,621.4z"/>
        <path class="st4" d="M38.9,582.9c2.6-2.6,4.8-5.5,6.8-8.6c2-3.2,3.7-6.7,5.5-10c3.2-6.1,7.1-12.3,13.4-15.6
				c1.2-0.6,0.1-2.5-1.1-1.8c-6.2,3.2-10.3,9.2-13.5,15.2c-1.8,3.3-3.5,6.8-5.4,10.1c-2,3.4-4.4,6.5-7.2,9.4c-0.4,0.4-0.4,1.1,0,1.5
				C37.8,583.3,38.5,583.3,38.9,582.9L38.9,582.9z"/>
        <path class="st4" d="M38,548.3c-0.9,3.9-2.6,7.6-5,10.9c-2.3,2.9-4.9,5.4-7.9,7.5c-5.4,4.1-11.4,7.9-14.5,14.1
				c-0.6,1.2,1.2,2.3,1.8,1.1c3.2-6.4,9.7-10.2,15.1-14.5c6.1-4.8,10.7-10.9,12.5-18.6C40.4,547.5,38.4,547,38,548.3L38,548.3z"/>
        <path class="st4" d="M-6,620c2.4-6.1,7.3-10.5,12.2-14.6s10.1-8.2,13.8-13.6c0.8-1.1-1.1-2.2-1.8-1.1
				c-7.4,10.8-21.3,16-26.3,28.7C-8.6,620.7-6.5,621.3-6,620L-6,620z"/>
        <path class="st4" d="M-9.5,575.2c6.2-3,12.1-6.2,15.9-12.3c1.9-3.2,3.9-6.4,6.1-9.4c2.2-2.8,4.7-5.4,7.5-7.8
				c1-0.9-0.5-2.4-1.5-1.5c-5.3,4.7-9.7,10.3-13.2,16.4c-1.7,3-4.1,5.7-6.9,7.7c-2.9,1.9-5.9,3.5-9,4.9
				C-11.9,574-10.8,575.8-9.5,575.2L-9.5,575.2z"/>
        <path class="st4" d="M63.6,598.8c-2.7,4.2-5.8,8.1-9.3,11.7c-0.9,1,0.6,2.5,1.5,1.5c3.5-3.7,6.8-7.8,9.6-12.1
				C66.2,598.8,64.3,597.7,63.6,598.8L63.6,598.8z"/>
        <path class="st4" d="M262.7,517.4c-9.3,2.6-12.6,12.7-14.7,21.1c-0.6,2.6-1.3,5.2-2.1,7.7c-0.9,2.5-2,5-3.3,7.3
				c-1.2,2.2-2.3,4.4-3.1,6.8c-0.6,2.1-1,4.4-1.1,6.6c-0.3,5.1,0.2,10.8-3.1,15.1c-0.7,0.9,0.8,1.7,1.5,0.9c2.6-3.4,3-7.8,3.2-12
				c0-2.3,0.2-4.7,0.5-7c0.4-2.4,1.2-4.7,2.3-6.8c1.1-2.2,2.3-4.2,3.3-6.4c1.1-2.3,1.9-4.7,2.6-7.2c1.3-4.8,2.2-9.9,4.4-14.5
				c2.1-4.4,5.4-8.4,10.3-9.8c0.5-0.1,0.7-0.6,0.6-1C263.6,517.5,263.1,517.3,262.7,517.4L262.7,517.4z"/>
        <path class="st4" d="M215.4,602.1c4.8-6.6,8.1-14.2,9.5-22.3c0.2-1.1-1.4-1.5-1.6-0.5c-1.4,7.9-4.6,15.4-9.3,21.9
				C213.2,602.1,214.7,603,215.4,602.1L215.4,602.1z"/>
        <path class="st4" d="M227.5,569c2.1-4.3,3.5-8.8,4.4-13.5c0.8-4.5,0.8-9.2,1.7-13.7c1.7-8.7,5.7-16.8,11.5-23.5
				c0.7-0.8-0.5-2-1.2-1.2c-5.8,6.6-9.8,14.5-11.7,23c-1,4.6-1.1,9.4-1.8,14.1c-0.8,4.8-2.3,9.6-4.4,14
				C225.6,569.1,227.1,570,227.5,569L227.5,569z"/>
        <path class="st4" d="M227.5,523.2c-6.9,6.2-7.9,15.9-8.5,24.6c-0.4,5.2-0.7,10.5-2.5,15.4c-1.6,4.3-4,8.2-6.2,12.2
				c-2.3,4.3-4.2,9-4.2,14c0,0.5,0.4,0.8,0.9,0.8c0.5,0,0.8-0.4,0.8-0.8c-0.1-8.9,6.3-16.2,9.6-24c3.8-9,2.5-18.9,4.5-28.3
				c1.1-4.8,3-9.3,6.7-12.7C229.6,523.7,228.3,522.5,227.5,523.2L227.5,523.2z"/>
        <path class="st4" d="M181.8,679.6c2.3-10.1,1.4-20.5,3-30.6c0.7-4.9,2.3-9.6,4.8-13.8c2.3-3.9,5.3-7.3,7.9-11
				c2.8-4,5.1-8.2,5.6-13.1c0.1-1.1-1.6-1.1-1.7,0c-1,9-8.4,15.5-13,22.8c-5.3,8.5-6,18.4-6.4,28.1c-0.1,5.8-0.7,11.6-1.8,17.2
				C179.9,680.2,181.5,680.7,181.8,679.6L181.8,679.6z"/>
        <path class="st4" d="M202.1,680.9c-1.6-8.8,2.2-17.5,6.4-25.1c4-7.3,8.5-14.6,10-22.9c0.2-1.1-1.4-1.5-1.6-0.5
				c-3.1,17-19.8,30.5-16.4,48.9C200.7,682.5,202.3,682,202.1,680.9L202.1,680.9z"/>
        <path class="st4" d="M230.7,639.1c3.1-4.9,5.6-10.3,7.4-15.8c0.3-1-1.3-1.5-1.6-0.5c-1.7,5.4-4.1,10.6-7.2,15.4
				C228.6,639.2,230.1,640,230.7,639.1L230.7,639.1z"/>
        <path class="st4" d="M242.2,613.5c4.7-7.9,4-17.3,5.5-26.1c0.7-4.3,2.2-8.5,4.4-12.2c2.2-3.6,4.9-6.8,7.3-10.3
				c2.6-3.7,4.8-7.7,5.5-12.2c0.2-1.1-1.5-1.5-1.6-0.5c-1.3,8.3-7.6,14.4-12,21.1c-2.3,3.5-3.9,7.3-4.8,11.4
				c-0.8,4.3-1.3,8.7-1.6,13.1c-0.6,5.1-1.4,10.3-4.1,14.8c-0.2,0.4-0.1,0.9,0.3,1.2S242,613.9,242.2,613.5L242.2,613.5L242.2,613.5
				L242.2,613.5z"/>
        <path class="st4" d="M288,529.5c-8.1,4.3-10.3,14-11.3,22.3c-0.7,5.5-1.2,10.9-3.3,16c-2,4.8-4.9,9.2-7.2,13.9
				c-2.6,5.3-4.3,11-5.2,16.8c-0.2,1.1,1.5,1.5,1.6,0.5c0.8-5.1,2.2-10.1,4.3-14.9c2.1-4.6,4.8-8.8,7-13.3c2-4.5,3.3-9.4,3.9-14.3
				c0.6-4.9,1-9.9,2.6-14.6c1.5-4.5,4.2-8.7,8.4-10.9C289.9,530.4,289,528.9,288,529.5L288,529.5z"/>
        <path class="st4" d="M233.2,676.3c-0.1-9.3,6.6-16.5,11.4-23.8c4.9-7.2,7.8-15.5,8.5-24.2c0.1-1.1-1.6-1.1-1.7,0
				c-0.8,9-4.1,17.5-9.3,24.8c-4.9,7-10.8,14.1-10.6,23.1c0,0.5,0.4,0.8,0.9,0.8C232.8,677.1,233.2,676.7,233.2,676.3L233.2,676.3z"/>
        <path class="st4" d="M315.1,536.3c-2.2,8.1-9.7,13.1-14.7,19.5c-5.4,6.9-8.7,15.1-9.4,23.8c-0.1,1.1,1.6,1.1,1.7,0
				c0.8-8.9,4.4-17.4,10.2-24.2c5.1-5.8,11.7-10.9,13.8-18.7c0.1-0.5-0.1-0.9-0.6-1C315.7,535.6,315.2,535.9,315.1,536.3
				L315.1,536.3z"/>
        <path class="st4" d="M329.9,578.1c-8.2,3.8-7.4,14.2-10.9,21.2c-1.9,3.7-4.9,6.5-7.5,9.6c-2.6,2.9-4.4,6.4-5.4,10.2
				c-1.1,4.4-1.5,9-4.4,12.7c-0.7,0.9,0.8,1.7,1.5,0.9c2.3-3,3.1-6.8,3.9-10.5c0.9-4,2-7.7,4.6-11c2.4-3.1,5.3-5.7,7.4-8.9
				c2.5-3.7,3.3-8,4.4-12.2s2.9-8.7,7.1-10.6C331.7,579.1,330.9,577.7,329.9,578.1L329.9,578.1z"/>
        <path class="st4" d="M284.5,613.7c-0.6,4.7-2.4,9.2-5.2,13c-2.5,3.4-5.8,6.2-8,9.8c-1.1,1.8-1.8,3.8-2.1,5.9
				c-0.4,2.4-0.4,4.8-1,7.2c-1.1,4.6-3.9,8.5-6.1,12.6c-2.5,4.5-4.4,9.6-3.2,14.7c0.2,1.1,1.9,0.6,1.6-0.5c-2.2-9.7,6.9-17.3,9.2-26
				c0.5-2.3,0.8-4.6,1-6.9c0.2-2.3,1-4.5,2.2-6.5c2.2-3.5,5.5-6.3,7.9-9.7c2.9-4,4.7-8.7,5.3-13.7
				C286.3,612.6,284.6,612.6,284.5,613.7L284.5,613.7z"/>
        <path class="st4" d="M252.2,661.4c2.9-3.3,5-7.2,5.9-11.5c0.2-1.1-1.4-1.5-1.6-0.5c-0.8,4-2.7,7.7-5.5,10.8
				C250.3,661,251.5,662.2,252.2,661.4L252.2,661.4z"/>
        <path class="st4" d="M278.6,587c-2.8,3.8-2.9,8.7-3.9,13.2c-1.1,5.2-2.9,10.2-5.5,14.8c-0.2,0.4-0.1,0.9,0.4,1.1
				c0.4,0.2,0.9,0.1,1.1-0.3c2.5-4.5,4.3-9.3,5.5-14.3c1-4.6,1-9.8,3.9-13.7C280.7,587,279.3,586.1,278.6,587L278.6,587z"/>
        <path class="st4" d="M341.8,564.8c6.8-6.6,5.3-17.3,11.1-24.5c0.7-0.8-0.5-2-1.2-1.2c-2.9,3.5-4.1,7.9-5.3,12.2s-2.5,9-5.8,12.3
				c-0.3,0.4-0.2,0.9,0.1,1.2C341,565.1,341.4,565.1,341.8,564.8L341.8,564.8z"/>
        <path class="st4" d="M335.6,540.6c-6.8,2.1-9.2,9.3-11.4,15.4c-1.2,3.4-3,6.6-5.2,9.5c-2,2.6-3.8,5.4-3.9,8.8
				c0,0.5,0.4,0.8,0.9,0.8s0.9-0.4,0.9-0.8c0.1-3.2,2.1-5.8,3.9-8.2c1.9-2.6,3.5-5.4,4.7-8.4c2.2-5.7,4-13.4,10.6-15.4
				C337.1,541.9,336.6,540.2,335.6,540.6L335.6,540.6z"/>
        <path class="st4" d="M358.8,645c2.9-2.2,4-5.6,5-9c1-3.6,2.7-7,4.9-10c4.4-5.9,10.1-11.1,12.2-18.3c0.1-0.5-0.1-0.9-0.6-1
				c-0.5-0.1-0.9,0.1-1,0.6l0,0l0,0c-2.1,6.9-7.6,12-11.9,17.6c-2.1,2.7-3.7,5.8-4.8,9.1c-1,3.3-1.7,7.3-4.7,9.5
				C357.1,644.1,358,645.6,358.8,645L358.8,645z"/>
        <path class="st4" d="M356.3,674.4c4.2-5.5,7.2-11.7,8.9-18.4c0.1-0.5-0.1-0.9-0.6-1c-0.5-0.1-0.9,0.1-1,0.6l0,0l0,0
				c-1.7,6.5-4.6,12.6-8.7,17.9C354.2,674.3,355.7,675.2,356.3,674.4L356.3,674.4z"/>
        <path class="st4" d="M309,677.7c3.9-2.8,7.2-6.3,9.8-10.4c2.5-4.2,4.3-8.9,5.3-13.7c1.1-5,2.1-10.2,5.3-14.4
				c2.5-3.5,6-6.2,9.1-9.2c3.4-3.2,6.5-6.7,7.8-11.2c0.1-0.5-0.1-0.9-0.6-1c-0.5-0.1-0.9,0.1-1,0.6l0,0l0,0
				c-2.4,8.2-10.7,12.5-15.8,18.7c-3,3.7-4.5,8-5.6,12.5c-1.1,4.9-2.1,9.8-4.4,14.3c-2.5,4.9-6.2,9.1-10.6,12.3
				C307.3,676.9,308.2,678.4,309,677.7L309,677.7z"/>
        <path class="st4" d="M327.7,617.2c-0.7,5.3-4.7,9.4-8,13.3s-6.5,7.9-6.8,13.1c-0.1,1.1,1.6,1.1,1.7,0c0.4-5.3,4.2-9.5,7.6-13.4
				s6.6-7.9,7.3-13.1C329.6,616.1,327.9,616.1,327.7,617.2L327.7,617.2z"/>
        <path class="st4" d="M331.6,672c6.9-4.8,6.6-14.4,12.5-19.9c0.8-0.8-0.4-2-1.2-1.2c-2.9,2.7-4.4,6.4-5.9,10s-3,7.4-6.3,9.7
				C329.9,671.2,330.8,672.7,331.6,672L331.6,672z"/>
        <path class="st4" d="M283.7,677.4c0.8-5.3,3.5-10.1,7.5-13.6c2-1.6,3.6-3.5,5-5.7c1.2-2.4,2.2-4.8,2.8-7.4c0.1-0.5-0.1-0.9-0.6-1
				c-0.5-0.1-0.9,0.1-1,0.6c-0.7,2.6-1.7,5.2-3,7.6c-1.5,2.3-3.6,4-5.6,5.9c-3.6,3.5-6,8.2-6.7,13.2
				C282,678,283.6,678.5,283.7,677.4L283.7,677.4z"/>
        <path class="st4" d="M355.4,601.4c-0.1-9.1,8.7-14.5,15.2-19.2c3.5-2.3,6.7-5.3,9.3-8.6c2.5-3.7,4.7-7.7,6.4-11.9
				c0.4-1-1-1.9-1.5-0.9c-1.4,3.3-3,6.5-4.8,9.6c-1.9,3.1-4.3,5.8-7.2,8c-5.4,4.3-11.6,7.5-15.7,13.1c-2.2,2.8-3.4,6.3-3.4,9.8
				c0,0.5,0.4,0.9,0.9,0.9S355.4,601.8,355.4,601.4L355.4,601.4z"/>
        <path class="st4" d="M368.7,544.4c-6.3,4.5-6.5,12.9-9.6,19.4c-1.9,3.9-5,6.8-8,9.8s-5.9,6.2-7.4,10.4c-0.9,2.6-1.7,5.2-2.3,7.9
				l-2.4,9c-0.1,0.5,0.1,0.9,0.6,1c0.5,0.1,0.9-0.1,1-0.6c1.3-4.9,2.5-9.9,4-14.8c1.4-4.2,3.8-8,7-11c2.8-2.8,5.9-5.5,8-8.9
				c1.9-3.1,2.9-6.7,3.9-10.2c1.2-3.9,2.6-8,6.1-10.4C370.4,545.2,369.5,543.8,368.7,544.4L368.7,544.4z"/>
        <path class="st4" d="M308.3,588.7c-1.1,3.9-2.8,7.6-5.1,11c-0.6,0.9,0.9,1.8,1.5,0.9c2.4-3.5,4.2-7.3,5.3-11.4
				c0.1-0.5-0.1-0.9-0.6-1C309,588,308.5,588.2,308.3,588.7L308.3,588.7L308.3,588.7L308.3,588.7z"/>
        <circle cx="187.5" cy="0" r="146.3" style="opacity:.15;fill:#f5be17;enable-background:new"/>
        <circle cx="187.5" cy="0" r="124" style="opacity:.35;fill:#f5be17;enable-background:new"/>
        <circle class="st4" cx="187.5" cy="0" r="105.2"/>
        <rect x="-4.9" y="-6" width="384.8" height="679" style="opacity:.3;fill:#ba7122;enable-background:new"/>
      </g>
    </g>
  </g>
</svg>
