<svg xmlns="http://www.w3.org/2000/svg" xmlns:xlink="http://www.w3.org/1999/xlink" viewBox="0 0 375 667"><defs><style>.cls-1{fill:none;}.cls-2{clip-path:url(#clip-path);}.cls-3{fill:#99d4bf;}.cls-4{fill:#115b3d;}.cls-5{fill:#116746;}.cls-6{fill:#127550;}.cls-13,.cls-7{fill:#126e4d;}.cls-8{fill:#6ec6ab;}.cls-9{fill:#1c9c7c;}.cls-10,.cls-12{fill:#3dba96;}.cls-10{opacity:0.56;}.cls-11{fill:#137d5a;}.cls-13{opacity:0.2;}</style><clipPath id="clip-path"><rect class="cls-1" x="-2.28" y="-4.2" width="379.57" height="675.41"/></clipPath></defs><title>Artboard 1 copy 10</title><g id="Generic"><g class="cls-2"><rect class="cls-3" x="-31.78" y="-23.07" width="425.71" height="332.44"/><path class="cls-4" d="M391.05,158.14c-2.15-5.39-7.34-9.12-12.89-10.84s-11.46-1.71-17.26-1.52c-18.12.61-36.14,2.79-54.14,5-36.11,4.38-72.62,8.86-106.66,21.67-9.73,3.66-19.67,8.36-25.66,16.85a39,39,0,0,0-6.19,16c-1.26,7.24-1.07,14.92,1.95,21.62,2.63,5.81,7.23,10.55,12.38,14.31,12.64,9.24,28.33,13,43.28,17.63,10.45,3.26,20.81,7.09,31.64,8.72,25.6,3.85,51.73-5,73.75-18.67,15.32-9.48,29.4-21.5,39.07-36.7,9.14-14.37,14-31,22.28-45.92"/><path class="cls-5" d="M244.24,85.55a15.3,15.3,0,0,0-15-10.26c-.63-9.43-9.07-17.68-18.51-18.11s-18.6,7-20.1,16.35c-5.76-3.63-13.89-.69-17.93,4.79S167.86,91,167.91,97.8a13.22,13.22,0,0,0-14.75-2.94c4.23-5.39-2.59-14.7-9-12.29-2.25-9.09-15.45-11.64-23-6.08s-10,15.84-9.64,25.19C93.28,85.48,93.7,55.3,76,38.53c7.19-1.26,13.57-9.89,9.28-15.8-1.58-2.16-4.16-3.36-6.73-4.11-15-4.36-32.66,5.94-36.24,21.18a24.64,24.64,0,0,0-13.57,3.39,14.43,14.43,0,0,0-15.66-6.54c.23-9.5-6.36-19.34-15.74-20.83s-19.4,7.85-17,17c-8-2-16.79,2.14-21.73,8.78S-47.86,57-47.13,65.22c.35,4,1.26,8.08,3.55,11.38,3.33,4.79-5.45,76.05.08,77.86,31.49,10.32,52.67,0,83.24,12.79,15.57,6.52,49.17-16.59,62.39-6.1,13.7,10.87,35.57-6.18,49.06,4.95,3.32,2.75,6.7,5.55,9,9.18,5.45,8.43,3,27.23,12.43,30.56,23,8.07,27.74-10.34,27.74-10.34,8.58,4.79,12.36-4.29,12.36-4.29,8.33,12.11,20.69,3.53,20.69,3.53,5.54,8.83,21.14,4.47,21.93-8.46,3.07,2.77,8.88,1,9.86-3a29.24,29.24,0,0,0,30.4-5.5c3,5,10.37,5.6,15.5,2.91s8.54-7.74,11.68-12.61a20.1,20.1,0,0,0,32.27-15.46,16.07,16.07,0,0,0,17.36.16c1.87-1.22,3.6-2.89,5.82-3.17,2.76-.34,5.22,1.58,7.54,3.11,9.82,6.47,23.37,7.11,33.41,1s15.74-18.91,12.93-30.32c-4.41-17.93-26.46-28.5-27.85-46.91-.7-9.26,2.55-18.44.85-27.57C402.66,35.51,383.6,28,376.79,38.11c0,0-12.45-4.15-19,4.42-3.84,5.07-10.4,7.27-15.32,11.29A142.85,142.85,0,0,1,248.64,85.6"/><path class="cls-5" d="M240.68,194.81c6.15,7.9,9.25,17.87,10.13,27.84s-.33,20-2.08,29.88a7.16,7.16,0,0,0-.06,3.41c.5,1.57,2,2.58,3.54,3.25,5.89,2.61,12.76,1.87,18.9-.08,1.34-.42,2.79-1,3.39-2.28a5.07,5.07,0,0,0,.29-2.48c-.43-7,5.19-7.3,2.2-13.61-7.31-15.46-9.26-39-6-54.85.34-1.67.7-3.47,0-5s-2.86-2.57-4.15-1.46c-.69.6-2,1.58-2.21,2.48-1.61,8.52-2.33,17-4.42,25.42-.29,1.18-.68,2.47-1.72,3.07-1.89,1.09-4.05-.84-5.29-2.63a63.46,63.46,0,0,1-8.68-18.21"/><path class="cls-5" d="M318.65,163.25c2.54,4,2,9.17,1.42,13.88l-2.9,22.74a1.41,1.41,0,0,0,1.27,1.94q2.82.72,5.68,1.25c1.59.29,3.38.51,4.73-.4,1.74-1.17,2-3.6,2-5.71a176.08,176.08,0,0,1,3.18-27.28,5.79,5.79,0,0,0,.09-2.77,2,2,0,0,0-2.06-1.5c-1.22.26-1.54,1.82-1.69,3.06a23.91,23.91,0,0,1-2.28,7.61,1.71,1.71,0,0,1-.89,1c-1.05.31-1.54-1.26-1.47-2.36l.64-11a23.57,23.57,0,0,0-5.44-.13"/><path class="cls-5" d="M363.8,151.64c8.59-1.93,7.82,2.69,10.39,5.77a15.64,15.64,0,0,1,2.88,6c1.62,6,1.12,12.36,2.43,18.42a2,2,0,0,0,.64,1.27,2,2,0,0,0,1.42.21c1.55-.16,3.1-.34,4.65-.53s3.44-.49,4.62-1.68,1.46-3.09,1.6-4.82a104.72,104.72,0,0,0-.89-24.06c-.32-2.1-.85-4.42-2.6-5.64a7.15,7.15,0,0,0-3.41-1,28.1,28.1,0,0,0-17.4,3.95"/><path class="cls-5" d="M277.05,245.19c.27-14.86,5.77-29.19,6.6-44a70.44,70.44,0,0,0-1.21-17.45,2.66,2.66,0,0,1,.08-1.85,2.58,2.58,0,0,1,1.18-.89l3.51-1.73c1-.48,2.26-1,3.12-.25a2.93,2.93,0,0,1,.82,1.71A360.4,360.4,0,0,1,298,217.82c.61,5,1,10.17,0,15.12s-3.77,9.77-8.17,12.27c-3.08,1.73-6.68,2.22-10.18,2.67"/><path class="cls-5" d="M223.3,221.19a162.38,162.38,0,0,1-2.93-34.29,56,56,0,0,0-13.63.34c1,11.58-1.91,23.45.73,34.77a9.22,9.22,0,0,0,1.95,4.32,3.82,3.82,0,0,0,4.34,1.06"/><path class="cls-6" d="M256.7,143c-1.54,9,3.36,17.93,9.23,25s12.94,13.24,17.15,21.38c7.07,13.68,4.79,30.18,8,45.25a7.38,7.38,0,0,0,1.77,3.95c2.38,2.27,6.28.77,9.15-.84l10.73-6c2.54-1.42,5.13-2.87,7-5.07,2.74-3.16,3.71-7.45,4.58-11.54a21.39,21.39,0,0,0,.68-7.28c-.46-3.45-2.54-6.42-4.35-9.39C308,177.79,306,152.31,307.45,128.11c-.53-1.32-2.48-1.5-3.63-.67a6.3,6.3,0,0,0-2.06,3.62c-2.12,7.53-1.95,15.8-5.7,22.67a22.1,22.1,0,0,1-8.06,8.34c-3.37,2-8.27,2.8-10.79-.2-1.24-1.48-1.56-3.5-1.83-5.41l-1.76-12.57a2.37,2.37,0,0,0-3,1,6.82,6.82,0,0,0-.85,3.33l-.69,8.53a3.16,3.16,0,0,1-.69,2.09,2.13,2.13,0,0,1-2.69,0,5.5,5.5,0,0,1-1.58-2.44,33.6,33.6,0,0,1-2.4-11.1"/><path class="cls-6" d="M342.21,196.94c-3.28-7.36-4.17-15.52-5-23.54l-4.52-42.54a.87.87,0,0,1,.75-1.14l13.36-4.79c.73-.26,1.65-.48,2.17.08a2,2,0,0,1,.4,1.29l.82,11.82a10.48,10.48,0,0,0,.75,3.82,3.56,3.56,0,0,0,3,2.18c1.64,0,2.86-1.45,3.77-2.8a61.41,61.41,0,0,0,4.79-8.47,9,9,0,0,1,1.44-2.45,4.35,4.35,0,0,1,5.66-.45c-1.12,7.35-8.5,12.35-10.29,19.57a27.53,27.53,0,0,0-.35,8.11l1.82,32.54c0,.48,0,1.08-.45,1.29"/><path class="cls-6" d="M287.67,35.08s11.86-10.59,21.44,1.26c0,0,24.22,1.26,15.75,27.87,11,2.32,24.27,18.2,32.22,26.08,5.46,5.43,9.93,12.18,11.19,19.77s-3.15,8.52-7.2,15.07c-3.28,5.29-13.37,10.84-17.91,5.55-1,6.81-10.44,9.82-17.15,3.17-5.29,2.12-8.21-2.35-9-6.32-6.94,17.46-26.14,14.42-28.55,9.14-6.6,15.46-23.24,20.69-38.91,14.64,3.65,17-9.32,22.12-9.65,17.95-11,14-24.88,4.29-24.88,4.29-5.55,7.57-20.43,3-23.2-6.81C187.3,150.69,209,145.56,209,145.56c-8.71-5.81-7.46-12.91,5.8-16.9-2.17-3.06-2.39-9.78,1.26-10.6-4.36-5.4-7.23-18.89-2.77-24.21,6.56-7.82,14.49-10,20.38-6.29-2.24-10.94.81-23.2,9.06-30.71s21.8-9.16,30.84-2.6C273.55,54.25,270,34.83,287.67,35.08Z"/><path class="cls-6" d="M314.36,66.38c-1-8.7-.25-17.77,3.37-25.76S328,25.84,336.37,23.15s18.27-.8,24.31,5.56A25.36,25.36,0,0,1,367.14,45a44,44,0,0,1-3.24,17.51,7.76,7.76,0,0,1,11.27,1.19,4.94,4.94,0,0,1,6-1.92c-7.26-18.14,12.13-20.53,12.13-20.53,3.85-5.2,11.16-7.23,17.43-5.59S422.15,42.19,425,48s3.6,12.49,3.14,19a53.77,53.77,0,0,1-6,21c-2.9,5.52-6.79,10.6-8.59,16.58-1,3.45-1.33,7.09-2.3,10.57s-2.78,7-5.92,8.72-7.79,1.13-9.49-2a23,23,0,0,1-32.28,8.81,14,14,0,0,1-5.55-5.74c-2-4.31-1.09-10.25-4.89-13.13a12.84,12.84,0,0,0-4.72-1.85c-7.08-1.81-14.08-4.65-19.51-9.55s-9.1-12.12-8.43-19.4"/><path class="cls-6" d="M170.07,184.59c15-13.05,2.84-23.65,2.84-23.65,4.54-2.77,5.3-11.43,4.79-15.89-.6-5.3-5.08-9.52-10.07-11.41s-10.47-1.88-15.81-1.83a26.12,26.12,0,0,0,6.55-10.16c1.2-3.89.92-8.38-1.44-11.69-3.76-5.25-17.06-6.27-25.11-.93a10.23,10.23,0,0,0-4.72-17.42,35.73,35.73,0,0,0,3-11.6c.21-4-.3-8.67-3.35-11.28C120.26,63.14,108,66.17,108,66.17c5.26-18.47-10.37-20.3-10.37-20.3C97.09,34.73,83,22.93,68.52,31.13c-4.11,2.34-6,8.19-3.85,12.39-1.73-.48-3.4,1.35-3.44,3.14s1,3.41,2,4.87c-3.19,1.87-3.21,7.31,0,9.2a10.73,10.73,0,0,0-18.51,1.36c-5.49-7.34-12.3-10.36-23.4-5.32C14.23,60,14,70.14,14,70.14,6.69,58.29-2.81,64.46-6.12,68.42a7.39,7.39,0,0,0-6.58.77,21.64,21.64,0,0,0-5,4.69,10.14,10.14,0,0,0-5-10.72,10.16,10.16,0,0,0-11.68,1.77c-2.6,2.64-3.51,6.48-4,10.14a78.84,78.84,0,0,0,1.06,28.48l-7.14,4.24c1.35,2.66-5.44,8.53-2.46,8.51s7.63-2.12,10.41-3.22c2.08-.82,10,5.68,20.05-4.35,0,0,8.32,3.22,11.14-4.45a10.77,10.77,0,0,0,12.89-.7c1,4.89,3.44,9.66,7.46,12.64s9.81,3.79,14.08,1.18c.83,4.4,6.63,6.33,10.78,4.66s6.83-5.7,8.87-9.69a13.2,13.2,0,0,0,14.16,8.16,4.78,4.78,0,0,0,7.83,5.29c-.5,5.21,2.56,10.29,6.77,13.41s1.83,6.07,1.83,6.07a71.24,71.24,0,0,0,19.28,2.55c1.69,0-3.82.82-4.12,2.47C93.19,157.43,99,163.76,105,167.88c10.92,7.58,23.61,12.14,36.13,16.61Z"/><path class="cls-6" d="M-18,147.32a62.31,62.31,0,0,0,4.47-41.58l1.59.4L-8,103.08c.58,1.9.07,4,.22,6s1.52,4.24,3.51,4.06a3.64,3.64,0,0,0,2.81-2.59c.46-1.26.54-2.64.93-3.92a8.54,8.54,0,0,1,8.24-5.87,1.69,1.69,0,0,1,1.11.32,1.72,1.72,0,0,1,.47.88c1.6,5.47-1.21,11.11-2.68,16.62-1.3,4.9-1.55,10-1.79,15.08-.15,3.17-1.37,15.14-1.52,18.31,0,.39-1.22,7.66,0,0,.09-.61,7,6.67,5.77,0-.35-1.86-1.8-.56,0,0,1.53.47,5.47-4.07,7.05-4.3,4-.58,5.93-5.1,6.64-9a45.25,45.25,0,0,0-1.6-22.06,1.76,1.76,0,0,1,0-1.55,1.67,1.67,0,0,1,1.09-.53l4.18-.88a30.45,30.45,0,0,0,.36,8.84,2.79,2.79,0,0,0,.61,1.49c.91.89,2.54.15,3.16-1s.7-2.46,1.24-3.61A4.88,4.88,0,0,1,37,116.7c.78,3-.41,6.12-1.05,9.16a23.26,23.26,0,0,0,4.14,19,5,5,0,0,0,1.55,1.41,4.27,4.27,0,0,0,3.31,0c3-1.1,5.15-3.87,6.27-6.86A33.57,33.57,0,0,0,52.77,130c.35-5-.43-10-.07-15,1.28-.07,2.55,1.84,2.3,3.1a19.39,19.39,0,0,0,.3,8.64c.23.87.88,1.91,1.73,1.64a1.67,1.67,0,0,0,.86-.91,21.37,21.37,0,0,0,2.2-6.58,5.92,5.92,0,0,1,.68-2.35c1.06-1.59,3.38-1.51,5.28-1.25a2.89,2.89,0,0,1,1.6.56c.88.79.5,2.22.07,3.32a74.19,74.19,0,0,0-4.38,32c-22.37,4.4-49.66-3.08-72.3-.51-2.07.23-4.69.26-5.62-1.6"/><path class="cls-6" d="M67,154.36c6.26-5.87,7.74-15.22,8.35-23.78,0-.37,2.54.27,2.86.09a1.11,1.11,0,0,1,.6-.08l5.72.3a1,1,0,0,1,.6.18c.3.28.1.77-.08,1.12-1.62,3.12-1.52,6.81-1.51,10.33q0,6-.37,11.91A6.79,6.79,0,0,1,82.2,158c-1,1.4-2.89,1.86-4.61,1.87a30.66,30.66,0,0,0-5.16,0"/><path class="cls-7" d="M248.31,257.49c3.36-1.88,6.85-4.32,7.85-8.05s-2.33-8.49-6-7.33c2.84-3-.07-8.56-4.14-9s-7.78,2.93-9.17,6.78c0-5-5.58-9.25-10.41-7.84a14,14,0,0,0,5-12.6c-.67-5-3.29-9.58-8.28-9.24-6,.41-9.48,4.75-7.82,8.3-1.47-2.92-2.91-8.48-9.12-8.52-5.4,0-6.69,2.14-7.7,4.12a13.59,13.59,0,0,0-8.3-9,11.63,11.63,0,0,0-11.81,2.51c-3.09,3.08-4,7.87-3.25,12.17s2.92,8.22,5.26,11.9a213.33,213.33,0,0,0,13.19,17.92c4.38,5.49,8.88,11,14.65,15.05,8.12,5.66,18.08,7.81,27.47,10.93"/><path class="cls-7" d="M253.59,258.79a4.93,4.93,0,0,0,1.83-1.23,4.78,4.78,0,0,0,.75-2.71c.18-2.79-.5-6,1.23-8.25a16.9,16.9,0,0,1,16.79-6.3,9.32,9.32,0,0,1,9.47-14.92,6.55,6.55,0,0,1,9.84-6.62c-.7-4.86-1.92-13.19,6.74-18.35,11.85-7.07,20.18,1.38,24.21,5.29s-4.66,4.68-2.27,9.65l-4.12,51.77Z"/><path class="cls-7" d="M97.47,149.61c4.22-12.73-6.42-9.07-6.42-9.07-3.22-4.1-9.09-2.44-9.42,1.77-7.3-3.42-7.68,2.44-7.59,3.33-1.5-6.54-7.5-4.24-8.16-2.22.15-3.5-1.95-6.17-7.31-5.32,0,0-2.35-4.25-6.87-3.44-2.16.39-4.36,2.71-3,5.1-2.87-.53-7.64.33-7.2,5.32,0,.44,4.6,1.23,4.71,1.65a1.92,1.92,0,0,0,.39.68,18.84,18.84,0,0,0,9.15,5.86,55.75,55.75,0,0,0,10.84,1.95L82.5,157c4,.45,8.64.74,11.67-2"/><path class="cls-7" d="M-9.26,137.68c1.85-2.36.88-2.61,3.8-3.28a29.09,29.09,0,0,0,3.18-.82c6.64-2.24,8.14,3.47,8.2,5.85.26-1.11,3.54-2.22,5.1.55,0,0,2.1-3.32,5.12-1.93a3.6,3.6,0,0,1,1.6,4.28s5.26-5.48,9.85,4c0,0,2.29.86,1.6,4.18-.31,1.51-1.91-2.61-1.94-1.07a2,2,0,0,1-.18,1,2.08,2.08,0,0,1-1.77.76c-4.67.34-9.37.31-14,1.18-5.44,1-11.15,3.29-16.3,1.26a6.44,6.44,0,0,1-2.6-1.75c-2.26-2.7-.81-6.84-1.79-10.22"/><polygon class="cls-8" points="108.67 430.44 177.95 424.47 271.46 442.19 255.99 528.79 358.98 692.07 58.29 685.05 13.6 527.38 108.67 430.44"/><path class="cls-9" d="M101.38,175.09c6.05-3.36,37.29-12,51.21-6.55,51.41,20.21,27.85,85.63,110.12,86.1L98,356.77Z"/><path class="cls-8" d="M59.88,149.33c16.79,6.33,32.19-6,46.85-4.53,8.32.84,19.79,9.65,13.94,16.67,14.47,5.48,8.18,24.57,1.19,19.91,7,9.81-1.49,21-5.82,15.8l1.79,160.76-11.17-3.36h-4.77l-32.18,3.36Z"/><path class="cls-9" d="M-28.23,160.27s73.65-35.87,113.37-4.61c14.12,11.11,9.44,251.52,9.44,251.52L-28.23,373Z"/><path class="cls-10" d="M158.77,298.25c-6.23-7.43-6-21.21-19.56-18.92-14.76,2.49-15.81,11.87-15.81,11.87s-5.37-1.42-9.68,1.34c-7.14,4.57-4,15.28-4,15.28s-.66-7.41-7.75-6.52c-6.09.76-8.62,13.45-8.62,13.45s-.75-6.35-5.91-4.69a4.5,4.5,0,0,0-3.05,6.48s-7.24-7.43-14.86-2.29C65.47,317,64,324.42,64,324.42S50.44,319,43.21,338.06c-5,13.19,34.09,52.58,34.09,52.58L166.07,300Z"/><path class="cls-11" d="M333.3,267.31c-32-41.89-230.54-48.33-263.59,152l72.87,11.1,117.17-19.78Z"/><path class="cls-9" d="M414.49,683.63l-7.19.53L265.49,694.45q2.81-4,5.23-8.29C288.44,655,291.1,614,272,583.91q-2-3.21-4.18-6.11l-1.32-1.74C231.65,530.75,178,539.52,178,526c0-30.08,114.28-49.53,62.17-77.93a59.44,59.44,0,0,0-9.33-4c-1.65-.56-3.37-1.1-5.19-1.61A217.38,217.38,0,0,0,195,436.51c-3.44-.45-7-.86-10.54-1.24a534.2,534.2,0,0,0-66.59-2.54,127.65,127.65,0,0,0,50.74-18q3.38-2.07,6.58-4.34a145.83,145.83,0,0,0,15.73-12.78l1.37-1.28c13.06-12.42,24.24-27.14,34.18-43,2.64-4.19,5.2-8.48,7.67-12.81,41.54-72.67,62.23-161.15,119.29-161.15,42.85,0,55.75,46.41,60.22,61l.56,281,.08,40.59,0,9.72.18,90.38Z"/><path class="cls-12" d="M53,558.34s14.66-56.85,64.8-69.09,74.29-27.78,68.66-31.53c-5.21-3.47-14.46-1-26.07-11.85-18.09-16.85-3.27-41.8-34.8-46.47-13.71-2-48.48,10.55-48.48,10.55s14.91-79.24-27.53-86.37C3,315.75-29.46,360.77-29.46,360.77l1.23,257.87Z"/><path class="cls-7" d="M-25.79,552.38c1.82-4.09,9.63-14,21.29-11.76,10,1.94,7,11.35,7,11.35s3-3.18,6.92-1.37,2.84,6.66,2.84,6.66,10.13-1.18,11,6.55c.86,7.24-5,13.87-5,13.87l37.29-1.14s16.8-9.31,24.47,1c4.52,6.06-1.28,14.25-1.28,14.25s8.26.48,10.08,4.17c2.74,5.57-2.81,10.93-2.81,10.93s7-5.41,10.23-1.23c2,2.57,2,4.09,2,4.09s11.37-8,12,5.91S97.2,631.18,97.2,631.18s16.37-8.26,21.83,0c4.15,6.28,0,13.25,0,13.25s7-1.44,8.86,3.38c2.29,6.05-8.18,9.07-8.18,9.07s4.58,5.35-.46,7.64c-5.23,2.38-10.91-.23-10.91-.23s3.17,10.46-9.92,11c-8,.3-33.4,7-33.4,7l-95.81-12.5Z"/><path class="cls-11" d="M27.9,651.5c5.61-8.39,13.37-20.17,31.33-27,18.49-7,35.53-.86,54.33-15.53a1.36,1.36,0,0,1,2.17,1.29A54.35,54.35,0,0,1,95.53,644s10.31,6.42,3.94,12.64c-9.4,9.18-32.51,9-40.46,23.18-3.2,5.7-33.22-9-33.22-9Z"/><path class="cls-7" d="M47.94,617.85c2.49-3.63,32.59,0,32.59,0,6.6,10.25-8.59,13.33-8.59,13.33s6.77,9-11,11.82c0,0,10.49,7.54-2.09,13.15,0,0-.47,10.34-12.06,6Z"/><path class="cls-11" d="M-25.79,641.79c15-16.37,11.33-46.14,22.81-63.66,15.22-23.23,52.79-21.39,73.08-62.38a3.89,3.89,0,0,1,7.21.56c4,12.85,8.55,36.34-3.4,53.41,0,0-9.41-8.26-14,4.55-4,11.05,9.32,7.08,9.32,7.08,6,18.41-14,30.63-12.8,44,.92,10.15,2.94,43.75-21.91,55.55s-56.91-6.25-56.91-6.25Z"/><path class="cls-7" d="M406.57,589.31c-4-14.47,14.33-42.56,14.33-42.56C363.7,529.48,367,561.26,367,561.26s-8-7.14-14.6-3.62-2.45,10.86-2.45,10.86-4.65-1.28-6.73,2.55c0,0,.27-27-16.83-20.33-11.74,4.57-12.56,18.71-12.56,18.71s-11.94,4.55-5.88,15.69c0,0-13.29-5.47-20.51,1.37-9.8,9.28.34,22.87.34,22.87s-9.22-5.11-13,1.34,4.14,10.71,4.14,10.71-11.78,7.56,1,15c9.16,5.29-12.2,14-12.2,14s-17-18.8-25.46-10.73c-6.31,6,1.34,13.33,1.34,13.33s-8.52-1-9.71,3.56c-1.75,6.83,5,7.21,5,7.21-4,8.4,12.18,7,12.18,7C244.77,685.49,267.24,687,267.24,687s9.8,0,28.45-1,99.92-18.91,99.92-18.91Z"/><path class="cls-11" d="M332.3,694.46c-32.64-.4-79.44-35.26-83.46-66.64a1.92,1.92,0,0,1,3-1.79c4.36,2.92,13.3,6.94,28.34,5.38,18.05-1.87,42.57-8,64.9,11.06s1.66,55.73,1.66,55.73Z"/><path class="cls-7" d="M310.26,623.12c-10.59,2.37-10.58,15.88,3.61,18.8,0,0-11.61,5-1.37,13.39,0,0-18.63,6.46-12.71,23.65l87.61,12.7-14.12-64.43Z"/><path class="cls-11" d="M351.81,685.31c-13.06-3.15-25.16-13.65-30.44-38.91-4.63-22.11-8.49-34.95-17-40.67a1.58,1.58,0,0,1,.61-2.89c8.17-1.21,25.28-2.11,33.6,9.67,0,0-5.34,1.66-2.18,6.29,4.48,6.56,7.28.05,7.28.05,5.93.22,10.86,10.72,10.86,10.72s-4.63-21,1.43-39.19a68.71,68.71,0,0,0-.74-46.84,2.3,2.3,0,0,1,2.86-3c9,2.86,27.2,13.4,34.52,38.94,12.28,42.8,6.7,100,6.7,100Z"/><rect class="cls-13" x="-4.87" y="-6.02" width="384.75" height="679.05"/></g></g></svg>