<svg xmlns="http://www.w3.org/2000/svg" xmlns:xlink="http://www.w3.org/1999/xlink" viewBox="0 0 375 235.23"><defs>
	<style>
		.cls-1{fill:none}
		.cls-4{fill:#a8d8d8}
		.cls-5{fill:#4dbab9}
		.cls-6{fill:#70cac7}
		.cls-14{fill:#17726e;opacity:.08}
		.cls-15{fill:#21948c}
		.cls-18{stroke-width:.71px;stroke-miterlimit:10;stroke:#9fd5d3;fill:none}
		.cls-19{stroke-width:.85px;stroke-miterlimit:10;stroke:#9fd5d3;fill:none}
		.cls-20{stroke-width:.99px;stroke-miterlimit:10;stroke:#9fd5d3;fill:none}
	</style>
<clipPath id="clip-path"><rect class="cls-1" x="-1.5" y="-0.94" width="378" height="237.12"/></clipPath><clipPath id="clip-path-2"><rect class="cls-1" x="-1.89" y="-427.21" width="377.44" height="672.77"/></clipPath></defs><title>Artboard 34</title><g id="Meditation"><g style="clip-path:url(#clip-path)"><g style="clip-path:url(#clip-path-2)"><rect class="cls-4" x="-23.46" y="-443.95" width="413.22" height="579.28"/><path class="cls-5" d="M26.38-23.88C211.32-7.32,217.63-104.76,379-22.32L366.61,68.26Z"/><path class="cls-6" d="M387.56-2c-44.22,8-379.76-28.29-411-23V268.24H391.89Z"/><path d="M366.61,252.72c-34.91-1.33-41.76-27.88-77.81-24.94-16.3,1.33-4.32,20-69.84,29.27-37.62,5.34-87.12,4-93.11-19.29-2.11-8.22,14-14.08,6.65-18.66-15-9.27-64.51,16.33-107.41,2.37-38.82-12.65-44.22-42.9-44.22-42.9" style="stroke-width:1.98px;opacity:.8;stroke-miterlimit:10;stroke:#afdfe1;fill:none"/><path d="M-17.14,114.12c16.47,37.51,66.84,7.25,75.82,19.55s-46.49,23.09-30.59,46.56c21.61,31.92,143.32,3.66,154,14.63,4.69,4.84-34.3,9.92-17,30.93,6.65,8.06,36.78,11.59,51.21,8.91,25.8-4.8,50.71-20.81,68.74-22.56,41-4,62.62,20,102.52-1.32" style="stroke-width:1.7px;opacity:.75;stroke-miterlimit:10;stroke:#afdfe1;fill:none"/><path d="M-19.13,70.49c6,8.32,19.28,11.31,31.25,11S39.06,74.17,46.71,76s9.64,10.8-16.79,17.49C13.1,97.73,7.47,109.4,19.44,114.12c16.86,6.64,63.78-9.71,71.42,1.26s-15.33,24.23,0,43.3c28,34.85,130.91,5.92,155.45,15.23s54.22,27.06,83.06,25.61c32.92-1.67,54.54-26.94,58.19-32.59" style="stroke-width:1.42px;opacity:.7;stroke-miterlimit:10;stroke:#afdfe1;fill:none"/><path d="M378.58,121.37c-24.94,0-5.87,27.36-63.84,35.25-56.2,7.65-64-8.25-88.05-10.56-59.93-5.73-93.95,16.23-100.3,1.8-5.52-12.53,22.49-9.56,26.13-19.69,5.92-16.45-7.07-33.27-36.31-33.4-35.19-.16-52.87,11-55.53,1.33-4.26-15.42,57.19-15,68.17-24.61,10.41-9.14-10.65-12.3,0-19.61,5.78-4,23.27-5,40.57,1.32,0,0,146.31,16,155,11s27.27-7.65,33.49-1.4c6.57,6.61-10.16,15.78,22.71,16.7" style="stroke-width:1.13px;opacity:.65;stroke-miterlimit:10;stroke:#afdfe1;fill:none"/><path d="M383.24,48.68C363.62,54,365,36.9,349.65,41.89c-16.93,5.52-21.61-9.31-48.88-3.65s-133-9.65-154-2.91c-14.33,4.61-28.26-3.75-39.09.6-12.84,5.17,10.83,17.6-6.32,24.8C91,65.1,10.19,79.83-4.5,50.21" style="opacity:.6;stroke-width:.85px;stroke-miterlimit:10;stroke:#afdfe1;fill:none"/><path d="M-4.19,40.3C5,26.79,51.59,24.47,68.32,26.26c9.31,1,30.26-10.31,55.87-5C141,24.73,158.68,15.47,188,17c30.92,1.56,112.53,7.24,120,7.88,24.6,2.1,31.92-5.24,43.22-1.58s15.3,5.3,31.93,1.58" style="opacity:.5;stroke-width:.57px;stroke-miterlimit:10;stroke:#afdfe1;fill:none"/><path d="M-8.83,6C13.79-5.69,29.86,4.52,68.32-1.67c16.3-2.62,76.16,12.63,129.36,4,52.6-8.54,99.67,18.18,142,8.3,19.3-4.51,34.67,4.67,63.53-.17" style="stroke-width:.28px;opacity:.5;stroke-miterlimit:10;stroke:#afdfe1;fill:none"/><path class="cls-14" d="M42.34,42c22,14.8,59.33,13.41,63.77,10.08,6.21-4.66-16.39-14.7-16.39-14.7Z"/><path class="cls-14" d="M189.85,211.32s52.45,3.11,70.85-9.31c3.29-2.22,36,9.08,31.79,15.21C284.66,228.67,197.24,226.56,189.85,211.32Z"/><path class="cls-14" d="M144.92,127.13c-4.95,3.24-25.27,0-32.4-5.4l23.14-2.28S151,123.14,144.92,127.13Z"/><path class="cls-14" d="M137,88.39s20.78,17.35,56.69,23.34c21.11,3.51-26.75,11.43-26.75,11.43s17.92,15.08,76.3,20.82c20.29,2,116.4,27.69,189.22,15,123-21.51-84.91-60.51-84.91-60.51l-186-24.17Z"/><path class="cls-15" d="M357.3,109.07c1,11.67-46.11,26.26-106.41,26.26-57.2,0-86-7.17-86.12-16.29-.12-8.33,14.82-10.63,13.62-14.63-2.59-8.71-44.56-8.31-43.06-20.12-.17-19.12,77-166.1,117.78-166.1C313.41-81.81,356.41,98.87,357.3,109.07Z"/><path class="cls-15" d="M111.89,120.59c-.33,3,17.43,7.65,25.26,1,2.78-2.36-.39-13.27-8-13.27C120.78,108.35,112.41,116,111.89,120.59Z"/><path class="cls-15" d="M90.86,39c0,7.53-48.36,9.91-49.94.9C40.1,35.16,57.35,4,67.44,4,81.29,4,90.86,30.74,90.86,39Z"/><path class="cls-15" d="M189.85,211.32c1.62,9.48,58.16,4.82,76.56-7.59,3.28-2.22.58-40.13-20.1-41C227.77,161.88,188.77,205,189.85,211.32Z"/><rect class="cls-4" x="-23.46" y="-446.95" width="413.22" height="579.28"/><path class="cls-5" d="M7.68-78.83c202.17,18.09,209.08-88.42,385.51,1.7l-13.57,99Z"/><path class="cls-6" d="M401.42-64.28C362-61.11,290.55-70,191-72,107.7-73.78,26.09-84.14-24.22-77.79L-46.8,259.07h454Z"/><g style="opacity:.5"><g style="opacity:.9"><path class="cls-18" d="M-17.94,7.73C-20.78,16-9.5,22.86,17.43,22.86,44,22.86,55.66,13,54,7.9,52.14,2.48,37.42-.32,19.61-.29,9.09-.28-15.87,1.68-17.94,7.73Z"/><path class="cls-18" d="M-30.8,6.55c-3.84,11.24,3.41,32.1,46.17,27.7S69.21,12.63,66.92,5.77C64.46-1.56,44.17-5.35,20.05-5.32,5.81-5.29-28-1.64-30.8,6.55Z"/><path class="cls-18" d="M-42.75,1.66c-3.84,11.24,4.77,54,62.63,41.78,56-11.8,64.33-29.07,60.69-39.56-5.27-15.2-36.4-16.23-60.52-16.2C5.81-12.29-39.94-6.54-42.75,1.66Z"/><path class="cls-18" d="M-19.81-13.32c28.6-9,80.15-7.3,102.3,3.67C105.75,1.87,107.12,50.23-28.89,60.52"/><path class="cls-18" d="M-18.37-20.29C17.88-25.81,49.44-27.23,80.44-18,117.2-7,98,10.72,104.58,15.28c9.52,6.58,35.24-16.56,74.64-4"/><path class="cls-18" d="M-23.46-24.68c36.25-5.52,78-10.27,109-1C117-16.27,110-2.18,117,1.68c14.15,7.76,35.56-14,77,1.36"/></g><path class="cls-19" d="M165.09,36.46c-17.29,2.11-47.22,8.86-41.84,24.81,4.51,13.34,36.85,8.33,40.84,18.39,3.27,8.24-12.22,9.41-6.09,22.76,11.74,25.56,126.92,38,232.76,7.53"/><path class="cls-19" d="M164.53,29.7c-41.92,3.1-62.2,20.19-56.87,36.15C113.22,82.47,140,79.06,144.2,86.06c5.82,9.7-4,14,2.14,27.36,14.21,30.78,155.31,32.23,250.2,10.63"/><path class="cls-19" d="M166.53,24.2c-56.42,0-77.68,25.22-76.44,42,1,14.26,16.13,14.93,32.52,25.79,12.09,8,10.65,24.15,16.47,37.63,15.82,36.63,208.69,28.89,262.34,6.38"/><path class="cls-19" d="M59.67,121c1.5,12.8,53,12.25,51.66,3.31-.94-6.47-18.07-8-27.82-8.08C72.42,116.24,59.17,116.83,59.67,121Z"/><path class="cls-19" d="M46.71,120.21c-4,5.58,9,19.28,40.07,17.43,31.75-1.89,37.91-9.21,35.83-14.77-3.4-9.15-29.9-11.29-39.65-11.14C68.38,112,52.08,112.69,46.71,120.21Z"/><path class="cls-19" d="M35.57,120c-5.49,10.84,5.5,27,51,25.61,50.05-1.5,45.33-19.9,42.91-25.12-4.12-8.84-22.7-12.63-46.56-13.29C68.38,106.83,41.57,108.18,35.57,120Z"/><path class="cls-20" d="M227.71,183.12c-37.29,1.62-67.29,8.15-62.72,26.7,3.16,12.81,31.47,20.74,77.61,20.5,23.57-.12,51.29-10.41,51.26-28C293.83,189.78,265.31,181.49,227.71,183.12Z"/><path class="cls-20" d="M225.39,175.66c-48.95,2.12-86.47,11-80.47,35.31,4.15,16.82,30.08,31.4,103.18,26.6,47.77-3.13,71.11-21.27,65.87-40.66C309.69,181.08,274.74,173.52,225.39,175.66Z"/><path class="cls-20" d="M225.31,161.39C152.23,163.6,117,186.86,117,210.61c0,27.89,38,48.65,127.83,41.55,72.89-5.77,93.66-33.58,88.37-57C328.71,175.48,305,159,225.31,161.39Z"/><path class="cls-20" d="M385.46,150.63C366,163.16,325.51,157,323.71,164s29.87,12.64,25.36,44.5c-3.52,24.88-13.27,35.22-66.48,59-11,4.92,30.15,8.76,30.15,8.76,1.29,13.39,39-10.26,51.42-47.84C374.51,197.1,354,176.3,357.85,173c5-4.2,17.15.77,32.91-8,2.82-1.57,10.66,10.26,10.66,10.26s16.59,9.06,7.09,7.62c-36.78-5.57,20.82,58.05-7.09,80.89"/><path class="cls-20" d="M95.6,262.7c-45.5-83.15,41.32-100.92,48.87-103.55,7.05-2.45-1.88-5.62-6.45-7.52-6.35-2.64-7.36,7.06-61.38,15.63-27.27,4.32-61.19-1.36-69.52-29.62C-1.11,109.7,21.44,96.69,50.37,94.76,73.65,93.21,93.2,98.86,90.51,93S71.65,86.79,67,73.48c-2.82-8,6.46-19.12.66-22.56C56,44,26.09,74.17-27.78,70.47"/><path class="cls-20" d="M77,273c-12.62-24.69-17.3-47.34-12.64-65.17,4.2-16.06,13.72-18.93,9.19-25.55C68.49,175,12,194-5.17,151.6-33.48,81.79,60.65,94.1,64,85.12c2-5.43-6-3-6.65-10.64-.44-5.16,3.34-9.26-3.59-11.65-10.12-3.48-41.3,23.77-85.2,18.34"/><path class="cls-20" d="M57.66,272C34.71,231.45,54.8,209.76,44,197.88c-7.64-8.43-47,1.64-62.15-30.95C-53,92,41.1,88.13,46.72,80.16c4-5.75-5-8.67-24.83,0C5.53,87.31-2.62,92.89-31.44,92.44"/><path class="cls-20" d="M35.91,274.1C24,248.24,34,226,24.37,213.65c-12.32-15.72-29.2-7.34-47.65-18-18.94-11-8.23,14.78-4.24,16.39,7.82,3.15,26.5,3.24,35.2,15.84C16.8,241.06,11,265,15.74,273c1.94,3.25-34.11-4.64-34.11-4.64s-13.07-44.89,3.89-41.43"/><path class="cls-20" d="M172.74,17.84c-25.21-4.42-90.17,0-95.44,44.33-2.84,23.89,30.59,22,36.58,37.25,3.64,9.27-14.41-.11-37.69,1.44-28.93,1.93-62.76,3.53-54.53,31.47,8.33,28.26,50.69,28.65,91.77,18,16.44-4.28,16.39-10.66,22.37-10.76,2.91,0,2.93,4.22,14.66,9.75,13.19,6.21,26.48,3.52,27.38,7.21,1.88,7.77-113.83,5.65-65,97.67"/></g><path class="cls-14" d="M-7.51,11.73C15.16,28.47,55.7,31.32,65.42,25.53,73,21,46.63,6.45,46.63,6.45Z"/><path class="cls-15" d="M47.94,8.3c0,8.61-55.27,11.32-57.07,1-.94-5.38,18.77-41,30.3-41C37-31.67,47.93-1.1,47.94,8.3Z"/><path class="cls-14" d="M135.52,59.7s50.29,24.38,57.42,35.07l-21.34,7.09s27.17,21,100.1,30.22c45.84,5.77,141.27,42.32,232.6,14.61,149.77-45.43-106.39-75.82-106.39-75.82L164.85,40.59Z"/><path class="cls-15" d="M410.13,84.2c1.27,14.63-57.78,32.91-133.33,32.91-71.67,0-107.76-9-107.91-20.41-.15-10.44,18.57-13.32,17.07-18.33C182.7,67.45,130.13,68,132,53.16,131.78,29.21,228.46-155,279.57-155,355.13-155,409,71.42,410.13,84.2Z"/><path class="cls-14" d="M109.72,134.67C93.45,138.8,68,126.36,66.63,122.84l38-1S121.53,131.68,109.72,134.67Z"/><path class="cls-15" d="M66.15,122.17c1.59,4.31,31.55,8.62,38.2,1.55,3.77-4-20.76-21.66-32.2-20.47C63.06,104.19,63.11,113.94,66.15,122.17Z"/><path class="cls-14" d="M185.28,216.29s61.39,3.05,89.45-15.88c5-3.38,61.26,16.3,49.33,28.07C310.2,242.15,212.46,235.91,185.28,216.29Z"/><path class="cls-15" d="M179.9,212c16.39,18.72,93.76,18.45,103.53-8.94,2-5.7-10.64-58.79-42.18-60.18C213,141.61,173.1,204.19,179.9,212Z"/><rect x="-5.54" y="-430.35" width="384.75" height="679.05" style="opacity:.2;fill:#17726e"/></g></g></g></svg>