<svg xmlns="http://www.w3.org/2000/svg" xmlns:xlink="http://www.w3.org/1999/xlink" viewBox="0 0 375 667"><defs><style>.cls-1{fill:none}.cls-4{fill:#f5be17}.cls-14{fill:#a4477a}.cls-21{fill:#e36eaa}</style><clipPath id="clip-path"><rect class="cls-1" x="-0.84" y="-430.66" width="378" height="237.12"/></clipPath><clipPath id="clip-path-2"><rect class="cls-1" x="-5.56" y="-652.79" width="387.46" height="681.37"/></clipPath><clipPath id="clip-path-3"><rect class="cls-1" x="-2.61" y="-2" width="380.21" height="670.99"/></clipPath></defs><title>Artboard 1 copy 13</title><g id="Diet"><g style="clip-path:url(#clip-path)"><g style="clip-path:url(#clip-path-2)"><path class="cls-4" d="M437.11-343.77C306.9-314.07,236.68-396.83,152.79-392,58.35-386.65,36.19-347.8-37.09-353c-4.2-.3,10.61,390.28,10.61,390.28l450.29-5.63Z"/><path d="M-19.8-117c49.22,56.73,64.85,7.18,157.18,38,101,33.66,34-32.11,91.89-36.1,39.29-2.71,63.6,13.08,84.8,18.62,17.1,4.48,23.31-6.31,52.54,2.66,19.72,6.06,35.25-14.63,35.25-14.63l-3.32,147H-19.8Z" style="fill:#efa220;opacity:.4"/><path class="cls-4" d="M198.36-90.13c-.77,11.5-2.55,23-6.5,33.91a107.55,107.55,0,0,1-10.33,20.28c-3.4,5.43-6.9,10.82-9.23,16.83-3.06,7.89-3.49,16.37-4.14,24.72-.49,6.32-1,12.66-2,18.93-.92,5.65-2.18,11.47-5,16.51-.66,1.2,1.17,2.27,1.84,1.08a47.79,47.79,0,0,0,4.7-14.27,161.41,161.41,0,0,0,2.14-17c.77-9,.8-18.4,3.65-27.07,2-6.15,5.44-11.65,8.86-17.09A123.66,123.66,0,0,0,192.82-52.8c4.77-11.86,6.82-24.63,7.67-37.33.09-1.37-2-1.36-2.13,0Z"/><path class="cls-4" d="M140.33,36.39c7.44-3,11.46-10.22,13.74-17.53,1.37-4.38,2.37-8.88,3.49-13.33l3.6-14.29a1.06,1.06,0,0,0-2-.56C156.94-.7,155,8,152.54,16.56c-2,7.07-5.47,14.83-12.77,17.78-1.25.5-.71,2.56.56,2Z"/><path class="cls-4" d="M134.42-1.1a38.23,38.23,0,0,1-4.28,9.7c-1.9,3.05-4.43,5.6-6.49,8.53C119.73,22.75,117.81,29.47,116,36a1.06,1.06,0,0,0,2.05.57c1.88-6.63,3.83-13.43,8-19,2.14-2.89,4.59-5.47,6.44-8.59a40.07,40.07,0,0,0,4-9.45,1.06,1.06,0,0,0-2.05-.57Z"/><path class="cls-4" d="M103.8-4.87C97.59.3,96.21,8.7,93.45,15.86a58,58,0,0,1-15,21.78c-1,.93.5,2.43,1.5,1.5A60.19,60.19,0,0,0,94.87,18c3-7.2,4.1-16.08,10.44-21.33,1-.88-.46-2.37-1.51-1.51Z"/><path class="cls-4" d="M113.19,9.41A98,98,0,0,0,101.5,31.18c-.49,1.27,1.57,1.83,2,.56A96.27,96.27,0,0,1,115,10.49c.8-1.12-1-2.18-1.83-1.08Z"/><path class="cls-4" d="M51.81,32.7C65.71,25,67.8,7.51,77.5-3.81c.89-1-.61-2.54-1.5-1.5-5.07,5.92-8,13.13-11.54,20C61.2,21,57.13,27.31,50.74,30.86c-1.2.66-.13,2.5,1.07,1.84Z"/><path class="cls-4" d="M73.43-32.59c-5.36,9.53-15,15.81-22,24a87.67,87.67,0,0,0-9.75,14A120,120,0,0,0,35,20.54c-2.18,5.61-4.62,11.29-9.24,15.34-1,.9.48,2.4,1.5,1.5,4-3.48,6.46-8.16,8.47-13,2.18-5.21,4-10.54,6.61-15.57A84.52,84.52,0,0,1,51.85-5.72a130.86,130.86,0,0,1,11.6-12c4.38-4.18,8.83-8.53,11.82-13.85a1.06,1.06,0,0,0-1.84-1.07Z"/><path class="cls-4" d="M-1.21,28.54a85.44,85.44,0,0,0,13.47-8.23,46.29,46.29,0,0,0,9.32-9.74C26.9,3.15,31.06-5,36-12.71a55.43,55.43,0,0,1,8.47-10.81C45.48-24.46,44-26,43-25,36.79-19.24,32.58-11.37,28.31-4.16c-4.46,7.53-8.76,15.49-15.49,21.28A75.59,75.59,0,0,1-2.29,26.71c-1.22.62-.14,2.46,1.08,1.83Z"/><path class="cls-4" d="M20.18-23c-3.13,5.31-7.44,9.53-12.09,13.51C3.81-5.85-.49-2.21-3.69,2.48A36.67,36.67,0,0,0-8.42,12.55c-.4,1.31,1.65,1.87,2.05.56A36.09,36.09,0,0,1,3.29-2.43c4-3.86,8.48-7.14,12.33-11.14A44.92,44.92,0,0,0,22-21.95,1.06,1.06,0,0,0,20.18-23Z"/><path class="cls-4" d="M182.43,35.19c2.26-10.07,1.36-20.47,3-30.62a38.27,38.27,0,0,1,4.82-13.84c2.33-3.86,5.27-7.31,7.87-11,2.79-3.95,5.08-8.22,5.64-13.09.12-1.09-1.58-1.08-1.7,0-1,9-8.44,15.45-13,22.74-5.28,8.48-6,18.4-6.45,28.12a100.64,100.64,0,0,1-1.82,17.23c-.24,1.06,1.4,1.52,1.64.45Z"/><path class="cls-4" d="M202.79,36.49C201.17,27.64,205,19,209.17,11.4c4-7.31,8.51-14.56,10-22.89.19-1.07-1.45-1.53-1.64-.45-3.08,17-19.76,30.54-16.4,48.88.2,1.08,1.84.62,1.64-.45Z"/><path class="cls-4" d="M233.89,31.83c-.14-9.3,6.56-16.51,11.43-23.77a50.6,50.6,0,0,0,8.53-24.14c.09-1.09-1.61-1.08-1.7,0a50.27,50.27,0,0,1-9.34,24.8c-4.88,7-10.75,14.12-10.62,23.11a.85.85,0,0,0,1.7,0Z"/><path class="cls-4" d="M285.15-30.75a27.47,27.47,0,0,1-5.16,13c-2.51,3.39-5.78,6.18-8,9.81a16.08,16.08,0,0,0-2.14,5.88c-.37,2.38-.37,4.81-.95,7.16-1.12,4.61-3.9,8.55-6.15,12.65-2.45,4.49-4.35,9.56-3.17,14.72.25,1.07,1.89.61,1.64-.45-2.21-9.68,6.88-17.32,9.22-26a51.59,51.59,0,0,0,1-6.9,15.42,15.42,0,0,1,2.26-6.48c2.23-3.52,5.46-6.28,7.9-9.65a29.22,29.22,0,0,0,5.27-13.67c.14-1.09-1.57-1.08-1.7,0Z"/><path class="cls-4" d="M252.89,17a24.93,24.93,0,0,0,5.89-11.53c.22-1.06-1.41-1.52-1.64-.45a23.2,23.2,0,0,1-5.45,10.78c-.73.81.47,2,1.2,1.2Z"/><path class="cls-4" d="M359.48.59c2.94-2.2,4-5.62,5-9a31.38,31.38,0,0,1,4.88-9.95c4.34-5.94,10.07-11.07,12.23-18.32a.85.85,0,0,0-1.64-.46c-2.07,7-7.64,12-11.84,17.63a30.68,30.68,0,0,0-4.8,9.08c-1,3.32-1.71,7.33-4.67,9.55-.87.65,0,2.12.86,1.47Z"/><path class="cls-4" d="M357,29.93a51,51,0,0,0,8.85-18.33.85.85,0,0,0-1.64-.45,49.67,49.67,0,0,1-8.68,17.92c-.67.87.81,1.72,1.47.86Z"/><path class="cls-4" d="M309.72,33.28a37.39,37.39,0,0,0,9.79-10.38,42.81,42.81,0,0,0,5.26-13.72C325.9,4.14,326.93-1,330-5.21c2.56-3.48,6-6.23,9.09-9.17,3.36-3.17,6.48-6.7,7.8-11.23a.85.85,0,0,0-1.64-.45c-2.38,8.15-10.66,12.48-15.75,18.74-3,3.68-4.54,8-5.61,12.52-1.15,4.89-2.08,9.78-4.42,14.29a35.31,35.31,0,0,1-10.65,12.32c-.88.64,0,2.11.86,1.47Z"/><path class="cls-4" d="M328.4-27.23c-.69,5.32-4.7,9.42-8,13.32S313.91-6,313.57-.81c-.07,1.1,1.63,1.09,1.7,0,.35-5.35,4.23-9.5,7.55-13.36s6.61-7.88,7.28-13.06c.14-1.09-1.56-1.08-1.7,0Z"/><path class="cls-4" d="M332.28,27.58c6.85-4.79,6.57-14.41,12.5-19.9.81-.75-.4-1.95-1.2-1.21-2.9,2.69-4.4,6.39-5.88,10s-3,7.39-6.28,9.67c-.89.62,0,2.1.86,1.47Z"/><path class="cls-4" d="M284.38,32.93a22.36,22.36,0,0,1,7.53-13.58,23.35,23.35,0,0,0,5-5.67,35.55,35.55,0,0,0,2.84-7.41c.32-1-1.32-1.5-1.64-.45a31,31,0,0,1-3,7.56c-1.45,2.34-3.64,4-5.59,5.9a22.85,22.85,0,0,0-6.75,13.2c-.15,1.07,1.49,1.54,1.64.45Z"/><rect x="-4.21" y="-650.47" width="384.75" height="679.05" style="opacity:.2;fill:#e49225"/></g></g></g><g id="Behavior"><g style="clip-path:url(#clip-path-3)"><rect x="-11.49" y="-12.97" width="397.05" height="442.5" style="fill:#e38bba"/><rect x="-10.49" y="-8.98" width="396.39" height="685.03" style="fill:#893a69"/><path d="M-83.65,408.42c99.1-38.32,124.83,22.81,163.74,28.8,55.28,8.5,67-32.59,140.87-25.34,58.82,5.77,57.18,61.17,73.81,67.28,17.4,6.39,19.56-8.23,45.24-12,41.23-6,52.54,22.56,99.2,18.17,42.29-4-29.7,132.17-29.7,132.17L-41.41,629.76Z" style="fill:#bb4e85"/><path d="M249.82-3.42c40.87,8.84,48.8,111.33-32.94,160.14-38,22.66-95.26,3.82-122.11,39.2-40.34,53.17-123.13,78.23-196.95,16.31C-168.45,156.66-24.72,8.78-24.72,8.78Z" style="fill:#bc4e86"/><path d="M412.89,212.71c-43.81-34.78-158.1-15.21-100.81,105.79,35.85,75.73,97.76,66.25,133.06,24.37C468.44,315.21,412.89,212.71,412.89,212.71Z" style="fill:#bd4e87"/><path d="M176.34,505.71q1.51-25.09,5.44-50C186,429.28,193.5,401,214.63,384.53c5.56-4.33,12.15-7.73,19.2-8s14.52,3.07,17.66,9.38c1.7,3.38,2,7.27,2.06,11.06,0,12.27-3,24.31-6.05,36.19a50.24,50.24,0,0,1,18.66-26.67c3.3-2.39,7.29-4.46,11.31-3.73s7.34,5.51,5.25,9c12.67-26.94,39.57-46.68,69.08-50.67,4.55-.62,9.43-.83,13.48,1.34,6.08,3.24,8.48,11.12,7.33,17.92s-5.08,12.76-9.07,18.38C350.63,416.9,336.22,434,321.82,451c4.62,1.46,9.86-.17,14.36,1.62,6.09,2.41,8.34,10.35,6.58,16.65s-6.43,11.31-10.95,16.05l-17.6,18.46a6.15,6.15,0,0,1,5.55,10.79c4.1-4.64,8.93-9.65,15.12-9.85,4.91-.17,9.55,3,12.09,7.19s3.23,9.31,3,14.22c-1.07,19.65-15.93,35.51-30.6,48.61-11.49,10.26-25.22,20.61-40.55,19.14-6.3-.6-12.23-3.2-17.75-6.29a101.38,101.38,0,0,1-49.31-68.52" style="fill:#a24678"/><path class="cls-14" d="M334.74,285a45.66,45.66,0,0,0-15.23-13.56c-3.75-2.05-7.84-3.6-11.1-6.36s-5.58-7.23-4.29-11.3,7.37-6.19,10.09-2.89a68.17,68.17,0,0,0-31.41-8.21c-2.77,0-5.67.07-8.19-1.11-6.63-3.11-6.29-13.53-1.1-18.7s13-6.48,20.22-7.53c-9.73-11.29-29.14-11.17-37.13-23.75-5-7.81-3.5-18.66,2.2-25.94s14.94-11.22,24.15-12.07c13.45-1.23,27.1,3.68,37.65,12.11s18.19,20.16,23.06,32.77c1.27-2.89,1.25-6.17,1.88-9.26s2.27-6.38,5.29-7.32,6.19.85,8,3.37,2.43,5.64,3,8.67c1.67-5.06,7.46-8,12.75-7.45s9.92,4.12,12.92,8.52c3.64,5.36,5.14,11.86,6.31,18.23,2.51,13.73,3.65,28.53-2.46,41.07s-21.8,21.32-34.48,15.48"/><path d="M-2.17,190.83A40.33,40.33,0,0,0-8.72,209.5c-.56,6.39.61,13.29,4.93,18s12.33,6.37,17.28,2.29A22.21,22.21,0,0,0,15.63,253a22.19,22.19,0,0,0,21.92,7.9c2.57,13.74-6.18,30,2.68,40.86,3.85,4.7,10.34,6.76,16.39,6.18s11.69-3.5,16.45-7.29c12.68-10.12,19.51-26.16,21.78-42.23s.45-32.39-1.36-48.52c5.68,3,11.51,6,17.87,6.91s13.46-.74,17.51-5.73c5.13-6.29,3.92-15.44,2.43-23.43,5.94,3.71,15.39-1.86,14.52-8.8-2.06-16.56-22-18.69-27-21.37,7.69-1.35,16.83-2.43,21.1-9,9.05-13.88-3.76-27.27-11.38-28.94,6.7-.66,16.38-.69,12.24-6s-11.48-6.8-18.2-7.24C99.89,104.86,77.14,111,56.71,121,33.14,132.6,10.94,151.26,4.65,176.75" style="fill:#a6477b"/><path d="M-83.65,461.19C38.06,409.44,36.73,510.42,82.09,516.45c55.44,7.37,55.73-60.44,138.87-51.8,58.79,6.11,47.22,83.13,69.63,88.1,18.09,4,21.17-22.84,40.11-33.56,34.44-19.52,46.34,27.44,108.51,14.95,41.65-8.36-29.7,136.17-29.7,136.17L-41.41,682.53Z" style="fill:#d35a9c"/><path class="cls-14" d="M140.61,593.58c9.48-27.65,1.62-60.45-19.37-80.79-3.44-3.34-8.33-6.55-12.71-4.6a10.85,10.85,0,0,0-4.37,4.21,29.4,29.4,0,0,0-4.22,21.21,9.19,9.19,0,0,0-11.62-6.22c-8-20.92-13.88-61.35-35.58-55.77-16.6,4.26-14.69,39.2,1,47.15-5-1-9.22,5-8.53,10.1s4.45,9.17,8,12.88c-5.38-5.07-15-2.93-19.44,2.94s-4.78,14-3.07,21.22a10.27,10.27,0,0,0,1.74,4.15c1,1.22,2.38,2,3.45,3.13,3.77,4,2,10.42,2.79,15.86,1.4,10,11.42,16.29,21,19.51A87.67,87.67,0,0,0,119,607.23"/><path d="M-90.3,557.27c115.73-54.87,115.73,12,170.39,21.8,70.49,12.61,70-55.49,132.89-49.74,58.86,5.37,34.58,91.84,77.61,90.69,22.13-.59,14.64-28.72,34.11-38.44C364,562,361.62,620,423.8,607.53c41.64-8.36-14.29,78.3-14.29,78.3L-41.41,698.05Z" style="fill:#e16eaa"/><path d="M163.75-19.2C229.51-32.77,246.26,78,176.11,125.57c-36.59,24.82-79.73-7.32-102.91,25.13C45.58,189.35,4.87,219.52-75.66,185.36c-79.62-33.78,50-192.17,50-192.17Z" style="fill:#d35b9e"/><path d="M149.75,84.34c-.74,4-2.61,7.77-3.49,11.78s-.54,8.68,2.44,11.49,9,2,10-2c-1.18,3.09-2.37,6.37-1.8,9.63s3.61,6.32,6.85,5.64c-1.35,4.41-2.71,9-2.25,13.54s3.21,9.26,7.64,10.53c3.89,1.12,8.19-.67,11-3.61s4.29-6.85,5.37-10.75a65.49,65.49,0,0,0,1.32-28.87c4.89,3.2,10.58,5.58,16.42,5.31S215,103.4,217,97.91s-1.15-12.67-6.89-13.83c2,2.36,6.23-.83,5.59-3.86s-3.83-4.74-6.8-5.61c-5.79-1.69-11.92-1.68-18-1.66,4.67-.69,7.84-5.78,7.45-10.48s-3.63-8.8-7.56-11.41A24.32,24.32,0,0,0,163,52.26C156.2,57.7,153,66.36,150,74.6" style="fill:#a8477c"/><path d="M407.72,229.84c-43.81-34.78-101.41,5.42-83,61.4,16,48.57,65.18,80.21,102.43,46.29C453.88,313.18,407.72,229.84,407.72,229.84Z" style="fill:#d25c9f"/><path class="cls-21" d="M118.94-15.85C184.7-29.41,196.74,52.07,152.81,96c-31.26,31.26-93.59-23.68-100.66,15.24C41.79,168.3-38.13,174.41-46,124.14-59.38,38.69-24.72-.39-24.72-.39Z"/><path class="cls-21" d="M412.4,245.57c-43.8-34.78-78.06,11.27-62.41,48.73,8.65,20.72,14.62,42.85,54.5,26.33C437.9,306.78,412.4,245.57,412.4,245.57Z"/><rect x="-4.87" y="-6.02" width="384.75" height="679.05" style="fill:#893a69;opacity:.2"/></g></g></svg>