<svg xmlns="http://www.w3.org/2000/svg" xmlns:xlink="http://www.w3.org/1999/xlink" viewBox="0 0 375 667"><defs><style>.cls-3{fill:#0f2b33}.cls-5{fill:#193d4c}.cls-6{fill:#43838e}.cls-7{fill:#2a5b6b}.cls-8{fill:#22485b}.cls-11,.cls-12{fill:#94afaf}.cls-11{opacity:.35}</style><clipPath id="clip-path"><rect x="-3.56" y="-6.33" width="382.12" height="679.66" style="fill:none"/></clipPath></defs><title>Artboard 1 copy 14</title><g id="Sleep"><g style="clip-path:url(#clip-path)"><rect class="cls-3" x="-11.61" y="-17.97" width="398.21" height="702.93"/><g style="opacity:.68"><path class="cls-5" d="M275.14,265.74H249.55s-8.39-7.18-.59-9.06c6.81-1.64,11.54,5.3,11.54,5.3,3.07-3,5.62,1.1,5.62,1.1,2.85-.83,4.76,2,8.8,2C275.61,265.11,275.75,265.74,275.14,265.74Z"/><path class="cls-5" d="M37.83,237.17s30.22-5.73,33,13c66,9,38.13,51.09,38.13,51.09s49.22.91,34.8,35.87c21.42,10.72,4.64,43.18,4.64,43.18s22.77-.7,12,20.41c0,0,24.41.58,8.92,42.47,0,0,13.42-3.29,8.1,18.51,0,0,15.86-9.2,23.39,4.64,0,0-5.32-39.67,22.49-47.53,0,0-16.36-45.39,18.31-42.25,0,0-27.46-35.09,8.45-40.84,0,0-2.82-38,47.51-20.74,0,0-6-23.94,23.24-28.17,0,0-8.1-16.54,10.74-21H284.58c-1,0-1.15-.63.11-.77,21.05-2.21,11.23-12.14,24.82-6.43,0,0-.34-13.13,16.73-3.8C319.91,225.35,353,234.05,353,234.05s-8.52-13.71,16.13-10.19c0,0-8.25-28.62,11.82-30.33,19.82-1.7,26.71,12.28,26.71,12.28s39.25-4.59,49.46,21.46-7,474.23-7,474.23l-479.7-1.85,3.75-497.33c10.57-10.55,40.64-13.9,55.42-2.28C47.82,214.34,37.83,237.17,37.83,237.17Z"/></g><path class="cls-6" d="M400,391.31c-32.91-38.8-67.13-2.35-67.13-2.35C305.37,376.05,297,415.48,297,415.48c-14.31-12.44-25.5,3.29-25.5,3.29s-6.09-13.52-17.56-10.41c-26.89,7.29-11.4,36.92-11.4,36.92s-18.62,19,3.66,31c0,0-30.26.65-25.4,26,0,0-30.21-10.79-38,26.06l-17.75-2.82s7-31.69-22.15-34.5c0,0,8.45-21.6-8-20.66,0,0,3.29-27-22.53-32.39,0,0,42.72-5.63,35.68-32.86-5.31-20.5-31-20.65-31-20.65s15-47.24-38.61-43.23c0,0-3.13-13.71-13.21-18.79,0,0,8.63-28.34-23.41-31.31,0,0,3.17-23.44-24.64-12.17,0,0-18.13-65.13-58.45-33.45-15.1,11.87,12.09,429.28,12.09,429.28l428.81,4.82Z"/><path class="cls-6" d="M403.66,359.89H301.38c-1.37,0-1.63-1.8.59-1.8,19.9,0,13.26-16.2,30-11,0,0-13.66-20.59,8.35-21.87,0,0-27.68-42.84,12.71-42.84,24.29,0,20.25,25.53,20.25,25.53S403.66,307.07,403.66,359.89Z"/><path class="cls-7" d="M-47.63,286.16c9.15-3.29,45.06-12.92,52.11,8.68A45.23,45.23,0,0,1,.24,332.65s14.76,0,9.4,18c-1.73,5.84-4,14.1,11,19.5,19.46,7,11.26,32.84,11.26,32.84S54,376.29,77.71,390.8c10.5,6.43,20.18,29.28,20.18,29.28s10.49-19.46,27.93-12.34c22.7,9.26,22.11,58.57-29.9,72.65,0,0,30.24,7.16,26.2,29.8,0,0,19.19-11.62,24.39,8.36,0,0,42.92-16.46,53.48,27.66,0,0,4.93-15.25,16.19-6.8,0,0,15-33.57,33.67-12.21,0,0,8.82-34.5,52.71-18.31,0,0-32.63-34-4.93-46.23,0,0-5.4-19,15-17.84,0,0-16.9-64.31,67.59-37.55L399.72,484l-7.51,188.7H-24.16Z"/><path class="cls-7" d="M141.57,364.92H32.38s-1.77-3.73,4.4-4.61c0,0-14.81-15.25-.44-25,17.82-12.15,29,9.63,29,9.63S63,310.13,90.25,319.71c22.22,7.81,0,37.52,0,37.52s11.57-10.79,21.78-1.76c8.08,7.15,23.34,7.53,29.58,7.53C144.26,363,144,364.92,141.57,364.92Z"/><path class="cls-8" d="M417.56,350.11s-64.66-11.85-55.86,41.67c0,0-26.52,4.69-12.67,29.1,0,0-17.13,2.59-22.3,12.91-7.05,14.09,15.15,34.93,15.15,34.93s-34.43-10.05-36,9.47c0,0-20.3-10.94-26.34,3.48,0,0-11.82-9.22-17.55-.19-12.2,19.25,10.16,38.68,10.16,38.68s-8.4,7.36-.65,23.47c0,0-22-10.09-39.66,1.35-13.53,8.76-6.27,26.49-6.27,26.49s-38.28,7.75-39,43.28c0,0-1.63-26.29-27.46-22.23,0,0-1.05-40.94-28.17-43.76-20.27-2.11-30.37,11.2-30.37,11.2s3.83-30.36-44.68-18.05c0,0,5.87-18.76-10.23-18.49,0,0,3.25-6.52-7.13-7.13H86.52c2.17,0,2.22-2,0-2-11.1,0-9.52-12-25.36-7.88-1.13-6.55-1.9-24.16-16.81-17.25.35-39.43-35.74-33.62-35.74-33.62s10.74-48.59-35-47.71l-4.74,35.39,6.86,234.29,424,2.12Z"/><path class="cls-3" d="M-40.29,547.62c47.73-15.34,53.5,28.87,53.5,28.87,52.81-3.42,37.61,26,37.61,26s18-9.67,48.13-2.81c35.94,8.17,38.61,34,38.61,34,27.84-10,35.27,19.49,35.27,19.49s39.48-44.11,78.56-21.53c0,0-5.18-27.22,20.12-32.21,31.36-6.2,55.31,13.77,55.31,13.77s15.38-30.13,34.41-22.7c0,0,1.54-32.73,38.91-34.14,20.22-.76-6.05,123.22-6.05,123.22l-423.18-4.82Z"/><rect class="cls-3" x="-11.61" y="-17.97" width="398.21" height="702.93"/><path d="M59.12,185s29.27.89,25.72,22.17c74.8-8,24.07,64.45,24.07,64.45s46.19-8,46.43,37.53c25.34,5.05,5.32,37.69,5.32,37.69s23.21,9.93,12.41,31c0,0,17.72.06,2.23,41.95,0,0,14.62,7.71,2.32,23,0,0,15.86-9.2,23.39,4.64,0,0-5.6-50.46,22.21-58.32,0,0-16.36-45.38,18.31-42.25,0,0-24.11-30.24,11.8-36,0,0-2.22-32.81,32.53-25.73,0,0-5.93-15.95,11.81-14.62,0,0,5.55-24.33,24.38-28.82,0,0-16.85-42.57,33.26-44.34,0,0-5.77-29.71,25.67-33.49,19.75-2.37,26.71,12.28,26.71,12.28s39.25-4.59,49.46,21.46-7,474.24-7,474.24l-479.7-1.86,3.75-514.31c10.57-10.55,43.46-26.48,73.41-15.08C75.53,151.31,59.12,185,59.12,185Z" style="fill:#173944"/><path class="cls-6" d="M408.15,352.22c-43.88-44-71.31,2-71.31,2-19.88-13-35.46,5.62-35.46,5.62-14.32-12.44-44.07,1.92-51.62,12.9C234,395.72,248,417.34,248,417.34s-24.08,17.36-1.8,29.35c0,0-27.45,4.87-22.59,30.26,0,0-36.59-5.12-44.34,31.73l-19.05-8s10.68-25.07-11.35-28.51c0,0,4.21-32.9-27-36.23,0,0,10.63-18.6-15.18-24,0,0,48.51-9.22,41.47-36.44-5.31-20.51-31-20.66-31-20.66s15-47.23-38.61-43.22c0,0,27.43-15.36,16.25-36.92-9-17.26-23.58-18.15-41.86-16.15,0,0-2.22-19.51-18.63-12.42,0,0-12.41-49.21-75.47-30.23-18.39,5.53,12.09,429.28,12.09,429.28l428.81,4.81Z"/><path class="cls-6" d="M391.52,288.75h-82.7c-1.1,0-1.31-1.45.48-1.45,16.09,0,10.72-13.11,24.22-8.92,0,0-11-16.66,6.75-17.68,0,0-22.38-34.65,10.29-34.64,19.63,0,16.37,20.64,16.37,20.64S391.52,246,391.52,288.75Z"/><g style="opacity:.2"><path class="cls-3" d="M408.15,352.22c-43.88-44-71.31,2-71.31,2-19.88-13-35.46,5.62-35.46,5.62-14.32-12.44-44.07,1.92-51.62,12.9C234,395.72,248,417.34,248,417.34s-24.08,17.36-1.8,29.35c0,0-27.45,4.87-22.59,30.26,0,0-36.59-5.12-44.34,31.73l-19.05-8s10.68-25.07-11.35-28.51c0,0,4.21-32.9-27-36.23,0,0,10.63-18.6-15.18-24,0,0,48.51-9.22,41.47-36.44-5.31-20.51-31-20.66-31-20.66s15-47.23-38.61-43.22c0,0,27.43-15.36,16.25-36.92-9-17.26-23.58-18.15-41.86-16.15,0,0-2.22-19.51-18.63-12.42,0,0-12.41-49.21-75.47-30.23-18.39,5.53,12.09,429.28,12.09,429.28l428.81,4.81Z"/><path class="cls-3" d="M391.52,288.75h-82.7c-1.1,0-1.31-1.45.48-1.45,16.09,0,10.72-13.11,24.22-8.92,0,0-11-16.66,6.75-17.68,0,0-22.38-34.65,10.29-34.64,19.63,0,16.37,20.64,16.37,20.64S391.52,246,391.52,288.75Z"/></g><path class="cls-7" d="M-33.1,383.32C-31.77,362-30,337.54-7.83,338.5c35.72,1.55,30.15,29.75,30.15,29.75s25.73-19.95,51-8.38c21.28,9.76,20,27.88,20,27.88s15.12-11.73,32.56-4.61c22.7,9.26,30,56-22,70.08,0,0,22.8,4.11,18.75,26.75,0,0,22.54-2.65,23.91,14,0,0,42.92-16.46,53.48,27.67,0,0,4.93-15.26,16.19-6.81,0,0,15-33.56,33.67-12.2,0,0,8.82-34.51,52.71-18.31,0,0-32.63-34-4.93-46.24,0,0-5.4-19,15-17.84,0,0-16.9-64.31,67.59-37.55l19.48,76.75-7.51,188.71H-24.16Z"/><path class="cls-8" d="M450,284.34S326.56,294.62,349.1,371.76c0,0-19.4,12-4.27,30.74,0,0-14.8,4.73-17,17.59-3.37,19.54,8.62,25.09,8.62,25.09s-29-5.83-30.55,13.7c0,0-31.93-6.53-43.1,16.07C252.7,495.38,270,512.19,270,512.19s-12,6.18-4.26,22.29c0,0-19.58-14.55-37.24-3.1-13.53,8.76-8,20.53-8,20.53S188,549.5,187.26,585c0,0-1.62-26.29-27.46-22.24,0,0,8.74-22.7-16.43-33.19-21.29-8.86-40.79,5.77-40.79,5.77s-10.65-28.6-40.22-14.21c0,0-3.68-15.72-19.64-12.4,0,0,11.64-20.95-5.66-28.26,18.63-9.65,6.32-30.93-8.31-32.59,4.66-11.64,3-61.85-57.53-46.22l-2.36,22.23,6.86,234.3,424,2.11Z"/><path class="cls-3" d="M-73.23,519.89c52.66-16.93,49.61,25.33,49.61,25.33,56.36-17,58.09,50.4,58.09,50.4s30.38-15.72,61.71-4.77c33.6,11.74,23.31,48.65,23.31,48.65,32.91-13.71,53.34,13.74,53.34,13.74s45.58-57.16,88.7-32.24c0,0-21.66-38.26,12-47.92,33.91-9.73,53.61,17.47,53.61,17.47s-9.78-33.4,26.13-31.4c0,0,17.24-64,73.83-40.57,20.64,8.53-11.28,211.48-11.28,211.48l-467-5.31Z"/><circle class="cls-11" cx="74.64" cy="157.74" r="3.9"/><circle class="cls-12" cx="74.64" cy="157.74" r="2.36"/><circle class="cls-11" cx="312.3" cy="164.46" r="3.9"/><circle class="cls-12" cx="312.3" cy="164.46" r="2.36"/><circle class="cls-11" cx="344.22" cy="108.12" r="5.29"/><circle class="cls-12" cx="344.22" cy="108.12" r="3.2"/><circle class="cls-11" cx="65.55" cy="97.09" r="2.89"/><circle class="cls-12" cx="65.55" cy="97.09" r="1.75"/><circle class="cls-11" cx="20.6" cy="89.87" r="3.9"/><circle class="cls-12" cx="20.6" cy="89.87" r="2.36"/><circle class="cls-11" cx="122.08" cy="148.65" r="2.89"/><circle class="cls-12" cx="122.08" cy="148.65" r="1.75"/><circle class="cls-11" cx="252.04" cy="140.99" r="4.11"/><circle class="cls-12" cx="252.04" cy="140.99" r="2.49"/><circle class="cls-11" cx="293.23" cy="79.17" r="2.89"/><circle class="cls-12" cx="293.23" cy="79.17" r="1.75"/><circle class="cls-11" cx="236.92" cy="97.09" r="3.9"/><circle class="cls-12" cx="236.92" cy="97.09" r="2.36"/><circle class="cls-11" cx="149.33" cy="57.34" r="75.15"/><circle class="cls-12" cx="149.33" cy="57.34" r="61.35"/><rect x="-4.87" y="-6.02" width="384.75" height="679.05" style="opacity:.2;fill:#0f2b33"/></g></g></svg>