<svg xmlns="http://www.w3.org/2000/svg" xmlns:xlink="http://www.w3.org/1999/xlink" viewBox="0 0 375 667"><defs><style>.cls-5{fill:#eaa7a7}.cls-6{fill:#d75754}.cls-7{fill:#e78b86}.cls-8{fill:#ec8280}.cls-9{fill:#cf4241}</style><clipPath id="clip-path"><rect x="-0.19" y="-0.33" width="375.37" height="667.67" style="fill:none"/></clipPath></defs><title>Artboard 1 copy 12</title><g id="Exercise"><g style="clip-path:url(#clip-path)"><rect x="-5.5" y="-6.98" width="387.08" height="322.17" style="fill:#ee8e8f"/><path d="M350.27,102.1c-10.91,14.05-27.33,24.46-45.1,25.32s-36.32-9.18-42.86-25.72c-8.54,12.36-33.05,4.52-28.94-15.57,0,0-23.49,2.22-25.09-16.29a7.64,7.64,0,0,0-3-5.69A9.19,9.19,0,0,0,200.86,63a80,80,0,0,1-24.47-6.24c-6.48-2.8-13.11-6.56-20.11-5.63-3.86.51-7.36,2.41-10.95,3.91a55.09,55.09,0,0,1-29.92,3.51c-2-.33-4.11-.76-6,0-2.59,1-3.94,3.75-5.2,6.21-4.42,8.59-10.9,16.37-19.46,20.85s-19.35,5.24-27.82.59A18.22,18.22,0,0,1,42.84,99.77c-1.58.3-3.32.44-4.47,1.56a8.67,8.67,0,0,0-1.61,3.14c-4,10.13-17.53,12.81-28.1,10.16-16.68-4.17-30.5-18.32-34-35.15A34.73,34.73,0,0,1-25,62.35c2.14-7.07,7-13,12.28-18.16C16.7,15.62,60,7.41,100.77,3.4A877.64,877.64,0,0,1,196.54-.78c27,.3,54.29,1.88,80.39,8.92,6.88,1.85,13.81,4.16,19.43,8.55S305.7,27,309.83,32.59a158.34,158.34,0,0,0,26.39,28c5.87,4.89,12.28,9.54,16,16.22S356,93,350,97.77" style="fill:#ea9b9c"/><path class="cls-5" d="M366,18.52C361.63,30,356.76,41.34,349.3,51s4.3,23-6.41,28.91c-41.23,22.61-71.83-13.3-78.9-28.15,4,18.84-28.84,17.07-28.84,17.07-16,21.56-45.23,5.76-50.1-6-4.43,19-24.94,29.48-44.34,31.66s-36.34-4.06-44.88-21.62c-8,10.21-23.92,12.22-35.1,5.72S43.42,58.66,44,45.74C38,52.8,26.37,54.12,19,48.59c-4.17,8.8-15.44,12.29-25,10.56A34.5,34.5,0,0,1-32.72,34.44,34.51,34.51,0,0,1-21.44-.11c9.49-7.76,22.33-9.76,34.52-11,20.94-2.15,42-2.92,63-3.7,93.48-3.44,187.08-6.88,280.55-2.92,11.72.5,23.67,1.16,34.58,5.47a32.53,32.53,0,0,1-10,26.24"/><path class="cls-6" d="M110.74-26C64.67-26,4.81,271.37,4.81,271.37H216.67S153.12-26,110.74-26Z"/><path class="cls-7" d="M24.16,149c-5.83-19.6-.05-41.85,13.44-57.23s34-23.9,54.42-24.28c4.73-.09,1.35-26.7,4.79-23.46,4.54,4.26-5.27,21,.44,23.5,14,6.09,8.43,55.42-32.36,55,0,0,7.53,20-22.17,18.62,0,6.81,16.85,6.21.91,5.73-6.8-.2-1.63,1.09-8-1.42Z"/><path class="cls-5" d="M75.53-6.1c39-.7,28.7,22.6,28.7,22.6C145.14,45.78,111.89,91.89,81,80.11c8,15-11,31.26-26.31,25.27,0,0-4.95,27.6-35.21,16C-16.89,107.37-5.5,30.23-5.5,30.23Z"/><path class="cls-8" d="M-30.41-4.65c-46,0-192.19,426-192.19,426H161.78S15.26-4.65-30.41-4.65Z"/><path class="cls-9" d="M262.57,72.16c-32.3,0-112.43,335.56-112.43,335.56H375S293.45,72.16,262.57,72.16Z"/><path class="cls-7" d="M300.14,133.17c-6.25-4.6,4.18.24-3.32-2.12-21.92-6.91-31.58,7.13-30.95,14.56-2.06-.9-7.46-1-9.83,1.31-3.43,3.3-1.06,9.22.88,10-10.51-4.46-21.53-.86-28.16,11-4.16,7.43,7.29,15.17,11.19,22.8a23.37,23.37,0,0,0,7.06,8.64A33.45,33.45,0,0,0,255,203c7.46,2.72,15.85,5.16,23.2,2.32,7.1-2.74,11.22-9.65,14.53-16.2,6.15-12.17,11.48-25.4,10-38.89"/><path d="M194.32,81C151.67,81,36.07,458.1,36.07,458.1H361.29S236.66,81,194.32,81Z" style="fill:#ec625a"/><path class="cls-6" d="M382.57-28.63c-42.65,0-211,409.08-211,409.08H535.88S424.91-28.63,382.57-28.63Z"/><path d="M407.64,167.71H314.86c-2.77,0-2.81-2.29.58-2.29,9.53,0,9.71-8.74,24.9-6.57,0,0-19.17-11.33-7-22.61,7.77-7.23,17.54-3.79,17.54-3.79s-7.23-36.71,35.63-31.11C429.71,107,407.64,167.71,407.64,167.71Z" style="fill:#eca7a8"/><path class="cls-9" d="M340.58,218.48c-52.45,0-139.09,355.2-139.09,355.2H479.68S395.21,218.48,340.58,218.48Z"/><path class="cls-5" d="M52.44,228.56c-9.71-7-24.14-6.57-33.39,1S6.58,251.29,11.6,262.17C-4.28,256-14.31,273.91-9.16,279c-6.74-1.8,2.9,3.76-1.42,9.24s-7.74,12-13.7,15.65H44l11.74-36c1.12-13.06-.52-26.18-2.16-39.18"/><path d="M106.57,159.29c-73.16,0-208.16,478.46-208.16,478.46H314.73S168.42,159.29,106.57,159.29Z" style="fill:#d14240"/><path class="cls-5" d="M-8.6,306.05h42c6.2,0,3.27-13.54-8.26-14.43,0,0,11.36-19.27-7.71-23.26l-5.32,16.85L-14,294.43Z"/><path d="M331.72,346.77a19,19,0,0,1,9.75-15.15c4.88-2.64,11.15-2.88,15.91,0s7.51,9,5.91,14.28c7-6.59,19-4.93,26.25,1.36s10.73,15.86,12.94,25.2A141.88,141.88,0,0,1,406.29,403c.06,3.55,0,7.2-1.32,10.51-2.44,6.26-8.93,10.32-15.58,11.27S376,424,369.75,421.41c-24.33-10-42.48-33.7-45.77-59.8" style="fill:#e88a86"/><path d="M284.14,258.38C223.62,258.38,114.47,637,114.47,637H439.7S356.64,258.38,284.14,258.38Z" style="fill:#ed615a"/><path class="cls-5" d="M152.2,621c4.17-14.44-4.42-12.86,9.57-18.38,49.44-19.51,86.46,19.95,80.47,46.56,4-4.38,38.82-9.73,43.9-6.65s-6.63,17-8.65,22.61c7.73-1.41-11.45-7.63-9.37-.05,4-4.93,8.16-10,13.73-13,10.8-5.92,24.09-3,36,0,6.3,1.61,14,4.86,14,11.36,0,1.73-.56,3.49-.07,5.15.54,1.85,2.23,3.06,3.64,4.37,7.48,7,7.52,20.35.07,27.36-5.51,5.18-13.5,6.53-21,7.53a699.65,699.65,0,0,1-138.3,4.55,6.72,6.72,0,0,1-2.81-.6,6.85,6.85,0,0,1-2.62-3.56q-12.09-27.39-24.16-54.77"/><path d="M45.38,412.85c-105.26,0-241.58,460.06-241.58,460.06H290.13S146.09,412.85,45.38,412.85Z" style="fill:#d85754"/><path class="cls-5" d="M215.78,649.52c-22.75-18-56.67-14.7-62.68,3.07-4.4-2.16-9-4.37-13.95-4.14s-10,3.82-10.1,8.73c-7.39-9.82-29.66-24.71-49.91-22.21-25.78,3.18-43.07,18.47-39.75,47.74,1,8.79,7.85,8.23,14,14.63-2.94,3.59,14.36-15.18,13.55-10.6s.47,9.72,4.12,12.6c2.56,2,5.9,2.69,9.11,3.24,43.36,7.48,87.76,4.56,131.67,1.61,16.53-1.1,33.16-2.23,49.25-6.19A85.12,85.12,0,0,0,226,662.08"/><path class="cls-5" d="M325.78,578.64H178c-2,0-1.69-1.81.15-1.81,27.39,0,22.65-10.51,37-8.2,0,0-3.15-11.44,9.83-11.44C202.62,526.82,236.38,519,236.38,519c-1.06-13.16,19.75-35.46,41.84-27.18,20.73,7.78,8.07,29.31,8.07,29.31s15.28-5.52,20.38,8.28c3.95,10.68-.39,15.58-10.51,20h-32s25.71,2.34,23.15,23.78c0,0,37.37-14.22,28.45,3C315.8,576.09,326,570.25,325.78,578.64Z"/><path class="cls-8" d="M360.21,451.6C305.43,451.6,157,843.44,157,843.44H563.44S415,451.6,360.21,451.6Z"/><path class="cls-5" d="M325.78,578.64H254.11l10.09-29.31s25.71,2.34,23.15,23.78c0,0,37.37-14.22,28.45,3C315.8,576.09,326,570.25,325.78,578.64Z"/><path class="cls-5" d="M325.78,578.64H254.11l11.79-44.81s46.08,1.7,26.72,37.47c0,0,32.1-12.41,23.18,4.79C315.8,576.09,326,570.25,325.78,578.64Z"/><path class="cls-5" d="M164.57,578.64H126.32c-10.25,0,13.26-22.94,24.51-20,9.36,2.48,2.63,15.19,2.63,15.19,5.71-2.05,3.43,3,11,3C166.38,576.83,166.3,578.64,164.57,578.64Z"/><rect x="-5.5" y="-6.98" width="384.75" height="679.05" style="opacity:.2;fill:#cf4241"/></g></g></svg>