<svg xmlns="http://www.w3.org/2000/svg" xmlns:xlink="http://www.w3.org/1999/xlink" viewBox="0 0 375 235.23"><defs><style>.cls-1{fill:none}.cls-5{fill:#d75754}.cls-6{fill:#e78b86}.cls-8{fill:#cf4241}.cls-11{fill:#eaa7a7}</style><clipPath id="clip-path"><rect class="cls-1" x="-1.5" y="-0.94" width="378" height="237.12"/></clipPath><clipPath id="clip-path-2"><rect class="cls-1" x="-0.19" y="-133.95" width="375.37" height="667.67"/></clipPath></defs><title>Artboard 34 copy 3</title><g id="Exercise"><g style="clip-path:url(#clip-path)"><g style="clip-path:url(#clip-path-2)"><rect x="-5.5" y="-140.6" width="387.08" height="322.17" style="fill:#ee8e8f"/><path class="cls-5" d="M110.74-159.61C64.67-159.61,4.81,137.76,4.81,137.76H216.67S153.12-159.61,110.74-159.61Z"/><path class="cls-6" d="M24.16,15.37C18.33-4.24,24.11-26.49,37.6-41.86S71.57-65.77,92-66.15c4.73-.09,1.35-26.7,4.79-23.46,4.54,4.27-5.27,21,.44,23.5,14,6.09,8.43,55.42-32.36,55,0,0,7.53,20-22.17,18.62,0,6.81,16.85,6.21.91,5.74-6.8-.21-1.63,1.08-8-1.43Z"/><path d="M-30.41-138.26c-46,0-192.19,426-192.19,426H161.78S15.26-138.26-30.41-138.26Z" style="fill:#ec8280"/><path class="cls-8" d="M262.57-61.45c-32.3,0-112.43,335.56-112.43,335.56H375S293.45-61.45,262.57-61.45Z"/><path class="cls-6" d="M300.14-.45c-6.25-4.59,4.18.24-3.32-2.12C274.9-9.47,265.24,4.56,265.87,12c-2.06-.9-7.46-1-9.83,1.3-3.43,3.31-1.06,9.23.88,10-10.51-4.47-21.53-.87-28.16,11C224.6,41.65,236.05,49.39,240,57A23.34,23.34,0,0,0,247,65.66,33.45,33.45,0,0,0,255,69.42c7.46,2.72,15.85,5.16,23.2,2.33,7.1-2.75,11.22-9.66,14.53-16.21,6.15-12.17,11.48-25.4,10-38.89"/><path d="M194.32-52.59c-42.65,0-158.25,377.07-158.25,377.07H361.29S236.66-52.59,194.32-52.59Z" style="fill:#ec625a"/><path class="cls-5" d="M382.57-162.24c-42.65,0-211,409.08-211,409.08H535.88S424.91-162.24,382.57-162.24Z"/><path d="M407.64,34.1H314.86c-2.77,0-2.81-2.29.58-2.29,9.53,0,9.71-8.75,24.9-6.58,0,0-19.17-11.33-7-22.6,7.77-7.23,17.54-3.8,17.54-3.8s-7.23-36.71,35.63-31.1C429.71-26.62,407.64,34.1,407.64,34.1Z" style="fill:#eca7a8"/><path class="cls-8" d="M340.58,84.86c-52.45,0-139.09,355.21-139.09,355.21H479.68S395.21,84.86,340.58,84.86Z"/><path class="cls-11" d="M52.44,94.94c-9.71-7-24.14-6.57-33.39,1S6.58,117.67,11.6,128.55c-15.88-6.22-25.91,11.75-20.76,16.84-6.74-1.81,2.9,3.75-1.42,9.23s-7.74,12-13.7,15.65H44l11.74-36c1.12-13.06-.52-26.18-2.16-39.19"/><path d="M106.57,25.67c-73.16,0-208.16,478.46-208.16,478.46H314.73S168.42,25.67,106.57,25.67Z" style="fill:#d14240"/><path class="cls-11" d="M-8.6,172.43h42c6.2,0,3.27-13.54-8.26-14.43,0,0,11.36-19.26-7.71-23.25l-5.32,16.84L-14,160.81Z"/><path d="M331.72,213.15A19,19,0,0,1,341.47,198c4.88-2.63,11.15-2.87,15.91,0s7.51,9,5.91,14.27c7-6.58,19-4.92,26.25,1.36s10.73,15.86,12.94,25.21a141.88,141.88,0,0,1,3.81,30.51c.06,3.55,0,7.19-1.32,10.5-2.44,6.27-8.93,10.32-15.58,11.28s-13.42-.77-19.64-3.32c-24.33-10-42.48-33.7-45.77-59.8" style="fill:#e88a86"/><path d="M284.14,124.77c-60.52,0-169.67,378.61-169.67,378.61H439.7S356.64,124.77,284.14,124.77Z" style="fill:#ed615a"/><rect x="-5.5" y="-140.6" width="384.75" height="679.05" style="opacity:.2;fill:#cf4241"/></g></g></g></svg>