<svg xmlns="http://www.w3.org/2000/svg" xmlns:xlink="http://www.w3.org/1999/xlink" viewBox="0 0 375 235.23"><defs><style>.cls-3{fill:#0f2b33}.cls-5{fill:#193d4c}.cls-6{fill:#43838e}.cls-7{fill:#2a5b6b}.cls-12{fill:#94afaf}.cls-11{opacity:.35;fill:#94afaf}</style><clipPath id="clip-path"><rect x="-1.5" y="-0.94" width="378" height="237.12" style="fill:none"/></clipPath></defs><title>Artboard 34 copy 5</title><g id="Sleep"><g style="clip-path:url(#clip-path)"><rect class="cls-3" x="-11.61" y="-108.38" width="398.21" height="702.93"/><g style="opacity:.68"><path class="cls-5" d="M275.14,175.34H249.55s-8.39-7.19-.59-9.07c6.81-1.64,11.54,5.3,11.54,5.3,3.07-3,5.62,1.1,5.62,1.1,2.85-.83,4.76,2,8.8,2C275.61,174.7,275.75,175.34,275.14,175.34Z"/><path class="cls-5" d="M37.83,146.76s30.22-5.73,33,13c66,9,38.13,51.09,38.13,51.09s49.22.91,34.8,35.87c21.42,10.72,4.64,43.19,4.64,43.19s22.77-.71,12,20.4c0,0,24.41.58,8.92,42.47,0,0,13.42-3.29,8.1,18.51,0,0,15.86-9.2,23.39,4.64,0,0-5.32-39.67,22.49-47.53,0,0-16.36-45.39,18.31-42.25,0,0-27.46-35.09,8.45-40.84,0,0-2.82-38,47.51-20.74,0,0-6-23.94,23.24-28.17,0,0-8.1-16.54,10.74-21H284.58c-1,0-1.15-.63.11-.76,21.05-2.22,11.23-12.15,24.82-6.44,0,0-.34-13.13,16.73-3.8C319.91,134.94,353,143.64,353,143.64s-8.52-13.71,16.13-10.19c0,0-8.25-28.62,11.82-30.33,19.82-1.7,26.71,12.28,26.71,12.28s39.25-4.59,49.46,21.46-7,474.23-7,474.23l-479.7-1.85,3.75-497.33c10.57-10.55,40.64-13.9,55.42-2.28C47.82,123.93,37.83,146.76,37.83,146.76Z"/></g><path class="cls-6" d="M400,300.9c-32.91-38.8-67.13-2.35-67.13-2.35C305.37,285.64,297,325.07,297,325.07c-14.31-12.44-25.5,3.29-25.5,3.29S265.42,314.84,254,318c-26.89,7.29-11.4,36.92-11.4,36.92s-18.62,19,3.66,31c0,0-30.26.65-25.4,26,0,0-30.21-10.79-38,26.06l-17.75-2.82s7-31.69-22.15-34.5c0,0,8.45-21.6-8-20.66,0,0,3.29-27-22.53-32.39,0,0,42.72-5.63,35.68-32.86-5.31-20.5-31-20.65-31-20.65s15-47.24-38.61-43.23c0,0-3.13-13.71-13.21-18.79,0,0,8.63-28.34-23.41-31.31,0,0,3.17-23.44-24.64-12.17,0,0-18.13-65.13-58.45-33.45C-56.28,167-29.09,584.42-29.09,584.42l428.81,4.82Z"/><path class="cls-6" d="M403.66,269.48H301.38c-1.37,0-1.63-1.8.59-1.8,19.9,0,13.26-16.2,30-11,0,0-13.66-20.59,8.35-21.87,0,0-27.68-42.84,12.71-42.84,24.29,0,20.25,25.53,20.25,25.53S403.66,216.66,403.66,269.48Z"/><path class="cls-7" d="M-47.63,195.75c9.15-3.29,45.06-12.92,52.11,8.68A45.23,45.23,0,0,1,.24,242.24s14.76,0,9.4,18c-1.73,5.84-4,14.1,11,19.5,19.46,7,11.26,32.85,11.26,32.85S54,285.89,77.71,300.39c10.5,6.43,20.18,29.29,20.18,29.29s10.49-19.47,27.93-12.35c22.7,9.26,22.11,58.57-29.9,72.65,0,0,30.24,7.16,26.2,29.81,0,0,19.19-11.63,24.39,8.35,0,0,42.92-16.46,53.48,27.66,0,0,4.93-15.25,16.19-6.8,0,0,15-33.57,33.67-12.21,0,0,8.82-34.5,52.71-18.3,0,0-32.63-34-4.93-46.24,0,0-5.4-19,15-17.84,0,0-16.9-64.31,67.59-37.55l19.48,76.75-7.51,188.7H-24.16Z"/><path class="cls-7" d="M141.57,274.51H32.38s-1.77-3.73,4.4-4.61c0,0-14.81-15.25-.44-25,17.82-12.15,29,9.63,29,9.63S63,219.72,90.25,229.3c22.22,7.81,0,37.52,0,37.52S101.82,256,112,265.06c8.08,7.15,23.34,7.53,29.58,7.53C144.26,272.59,144,274.51,141.57,274.51Z"/><rect class="cls-3" x="-11.61" y="-108.38" width="398.21" height="702.93"/><path d="M59.12,94.59s29.27.89,25.72,22.17c74.8-8,24.07,64.45,24.07,64.45s46.19-8,46.43,37.53c25.34,5,5.32,37.69,5.32,37.69s23.21,9.93,12.41,31c0,0,17.72.06,2.23,41.95,0,0,14.62,7.71,2.32,23,0,0,15.86-9.2,23.39,4.64,0,0-5.6-50.46,22.21-58.32,0,0-16.36-45.38,18.31-42.25,0,0-24.11-30.24,11.8-36,0,0-2.22-32.81,32.53-25.73,0,0-5.93-15.95,11.81-14.62,0,0,5.55-24.33,24.38-28.82,0,0-16.85-42.57,33.26-44.34,0,0-5.77-29.71,25.67-33.49,19.75-2.37,26.71,12.28,26.71,12.28s39.25-4.59,49.46,21.46-7,474.24-7,474.24l-479.7-1.86,3.75-514.31C-15.24,54.78,17.65,38.85,47.6,50.26,75.53,60.9,59.12,94.59,59.12,94.59Z" style="fill:#173944"/><path class="cls-6" d="M408.15,261.81c-43.88-44-71.31,2.05-71.31,2.05-19.88-13-35.46,5.62-35.46,5.62-14.32-12.44-44.07,1.93-51.62,12.9C234,305.31,248,326.93,248,326.93s-24.08,17.37-1.8,29.35c0,0-27.45,4.88-22.59,30.26,0,0-36.59-5.12-44.34,31.73l-19.05-8s10.68-25.07-11.35-28.51c0,0,4.21-32.9-27-36.23,0,0,10.63-18.6-15.18-24,0,0,48.51-9.22,41.47-36.44-5.31-20.51-31-20.66-31-20.66s15-47.23-38.61-43.22c0,0,27.43-15.36,16.25-36.92-9-17.26-23.58-18.15-41.86-16.15,0,0-2.22-19.51-18.63-12.42,0,0-12.41-49.21-75.47-30.23-18.39,5.53,12.09,429.28,12.09,429.28l428.81,4.81Z"/><path class="cls-6" d="M391.52,198.34h-82.7c-1.1,0-1.31-1.45.48-1.45,16.09,0,10.72-13.1,24.22-8.92,0,0-11-16.65,6.75-17.68,0,0-22.38-34.65,10.29-34.64,19.63,0,16.37,20.64,16.37,20.64S391.52,155.63,391.52,198.34Z"/><g style="opacity:.2"><path class="cls-3" d="M408.15,261.81c-43.88-44-71.31,2.05-71.31,2.05-19.88-13-35.46,5.62-35.46,5.62-14.32-12.44-44.07,1.93-51.62,12.9C234,305.31,248,326.93,248,326.93s-24.08,17.37-1.8,29.35c0,0-27.45,4.88-22.59,30.26,0,0-36.59-5.12-44.34,31.73l-19.05-8s10.68-25.07-11.35-28.51c0,0,4.21-32.9-27-36.23,0,0,10.63-18.6-15.18-24,0,0,48.51-9.22,41.47-36.44-5.31-20.51-31-20.66-31-20.66s15-47.23-38.61-43.22c0,0,27.43-15.36,16.25-36.92-9-17.26-23.58-18.15-41.86-16.15,0,0-2.22-19.51-18.63-12.42,0,0-12.41-49.21-75.47-30.23-18.39,5.53,12.09,429.28,12.09,429.28l428.81,4.81Z"/><path class="cls-3" d="M391.52,198.34h-82.7c-1.1,0-1.31-1.45.48-1.45,16.09,0,10.72-13.1,24.22-8.92,0,0-11-16.65,6.75-17.68,0,0-22.38-34.65,10.29-34.64,19.63,0,16.37,20.64,16.37,20.64S391.52,155.63,391.52,198.34Z"/></g><path d="M450,193.93S326.56,204.21,349.1,281.35c0,0-19.4,12-4.27,30.74,0,0-14.8,4.73-17,17.59-3.37,19.54,8.62,25.09,8.62,25.09s-29-5.82-30.55,13.7c0,0-31.93-6.53-43.1,16.07C252.7,405,270,421.78,270,421.78s-12,6.18-4.26,22.29c0,0-19.58-14.54-37.24-3.1-13.53,8.76-8,20.53-8,20.53s-32.51-2.41-33.21,33.12c0,0-1.62-26.29-27.46-22.23,0,0,8.74-22.71-16.43-33.2-21.29-8.86-40.79,5.77-40.79,5.77s-10.65-28.6-40.22-14.21c0,0-3.68-15.72-19.64-12.4,0,0,11.64-21-5.66-28.26,18.63-9.65,6.32-30.93-8.31-32.59,4.66-11.64,3-61.85-57.53-46.22l-2.36,22.23,6.86,234.3,424,2.11Z" style="fill:#22485b"/><circle class="cls-11" cx="74.64" cy="67.33" r="3.9"/><circle class="cls-12" cx="74.64" cy="67.33" r="2.36"/><circle class="cls-11" cx="312.3" cy="74.05" r="3.9"/><circle class="cls-12" cx="312.3" cy="74.05" r="2.36"/><circle class="cls-11" cx="344.22" cy="17.71" r="5.29"/><circle class="cls-12" cx="344.22" cy="17.71" r="3.2"/><circle class="cls-11" cx="65.55" cy="6.69" r="2.89"/><circle class="cls-12" cx="65.55" cy="6.69" r="1.75"/><circle class="cls-11" cx="20.6" cy="-0.54" r="3.9"/><circle class="cls-12" cx="20.6" cy="-0.54" r="2.36"/><circle class="cls-11" cx="122.08" cy="58.24" r="2.89"/><circle class="cls-12" cx="122.08" cy="58.24" r="1.75"/><circle class="cls-11" cx="252.04" cy="50.58" r="4.11"/><circle class="cls-12" cx="252.04" cy="50.58" r="2.49"/><circle class="cls-11" cx="236.92" cy="6.69" r="3.9"/><circle class="cls-12" cx="236.92" cy="6.69" r="2.36"/><circle class="cls-11" cx="149.33" cy="-33.07" r="75.15"/><circle class="cls-12" cx="149.33" cy="-33.07" r="61.35"/><rect x="-4.87" y="-83.65" width="384.75" height="679.05" style="opacity:.2;fill:#0f2b33"/></g></g></svg>