<svg xmlns="http://www.w3.org/2000/svg" xmlns:xlink="http://www.w3.org/1999/xlink" viewBox="0 0 375 235.23"><defs><style>.cls-1{fill:none;}.cls-2{clip-path:url(#clip-path);}.cls-3{clip-path:url(#clip-path-2);}.cls-4{fill:#6ec6ab;}.cls-5{fill:#137d5a;}.cls-6{fill:#1c9c7c;}.cls-7{fill:#3dba96;}.cls-8,.cls-9{fill:#126e4d;}.cls-9{opacity:0.2;}</style><clipPath id="clip-path"><rect class="cls-1" x="-1.5" y="-0.94" width="378" height="237.12"/></clipPath><clipPath id="clip-path-2"><rect class="cls-1" x="-2.28" y="-423.79" width="379.57" height="675.41"/></clipPath></defs><title>Artboard 34 copy 2</title><g id="Generic"><g class="cls-2"><g class="cls-3"><polygon class="cls-4" points="108.67 10.86 177.95 4.88 271.46 22.6 255.99 109.2 358.98 272.49 58.29 265.46 13.6 107.79 108.67 10.86"/><path class="cls-5" d="M333.3-152.28c-32-41.89-230.54-48.32-263.59,152l72.87,11.11L259.75-8.93Z"/><path class="cls-6" d="M414.49,264.05l-7.19.52L265.49,274.86q2.81-4,5.23-8.29c17.72-31.14,20.38-72.2,1.3-102.25q-2-3.19-4.18-6.11-.66-.89-1.32-1.74C231.65,111.16,178,119.93,178,106.38c0-30.08,114.28-49.53,62.17-77.93a60.4,60.4,0,0,0-9.33-4c-1.65-.56-3.37-1.1-5.19-1.61A220.27,220.27,0,0,0,195,16.92c-3.44-.45-7-.86-10.54-1.23a532.29,532.29,0,0,0-66.59-2.54,127.81,127.81,0,0,0,50.74-18c2.25-1.38,4.44-2.83,6.58-4.33A148.27,148.27,0,0,0,190.88-22l1.37-1.29c13.06-12.42,24.24-27.14,34.18-43q4-6.28,7.67-12.81c41.54-72.66,62.23-161.14,119.29-161.15,42.85,0,55.75,46.42,60.22,61l.56,281,.08,40.6,0,9.71.18,90.38Z"/><path class="cls-7" d="M53,138.75s14.66-56.85,64.8-69.08,74.29-27.79,68.66-31.54c-5.21-3.46-14.46-1-26.07-11.85-18.09-16.84-3.27-41.8-34.8-46.47-13.71-2-48.48,10.55-48.48,10.55S92.05-88.87,49.61-96C3-103.84-29.46-58.82-29.46-58.82l1.23,257.87Z"/><path class="cls-8" d="M-25.79,132.79c1.82-4.09,9.63-14,21.29-11.76,10,1.94,7,11.35,7,11.35A6.25,6.25,0,0,1,9.44,131c4,1.81,2.84,6.66,2.84,6.66s10.13-1.18,11,6.55c.86,7.24-5,13.87-5,13.87L55.6,157s16.8-9.31,24.47,1c4.52,6.06-1.28,14.24-1.28,14.24s8.26.48,10.08,4.18c2.74,5.56-2.81,10.92-2.81,10.92s7-5.41,10.23-1.23c2,2.58,2,4.09,2,4.09s11.37-8,12,5.92S97.2,211.59,97.2,211.59s16.37-8.26,21.83,0c4.15,6.28,0,13.25,0,13.25s7-1.44,8.86,3.38c2.29,6.05-8.18,9.07-8.18,9.07s4.58,5.36-.46,7.64c-5.23,2.38-10.91-.22-10.91-.22s3.17,10.45-9.92,10.95c-8,.3-33.4,7-33.4,7l-95.81-12.51Z"/><path class="cls-5" d="M27.9,231.92c5.61-8.4,13.37-20.18,31.33-27,18.49-7,35.53-.86,54.33-15.52a1.35,1.35,0,0,1,2.17,1.29,54.33,54.33,0,0,1-20.2,33.72s10.31,6.42,3.94,12.64c-9.4,9.19-32.51,9-40.46,23.18-3.2,5.7-33.22-8.94-33.22-8.94Z"/><path class="cls-8" d="M47.94,198.27c2.49-3.64,32.59,0,32.59,0,6.6,10.24-8.59,13.32-8.59,13.32s6.77,9-11,11.82c0,0,10.49,7.55-2.09,13.16,0,0-.47,10.33-12.06,6Z"/><path class="cls-5" d="M-25.79,222.2c15-16.37,11.33-46.14,22.81-63.66,15.22-23.23,52.79-21.39,73.08-62.38a3.89,3.89,0,0,1,7.21.56c4,12.85,8.55,36.34-3.4,53.41,0,0-9.41-8.26-14,4.55-4,11,9.32,7.08,9.32,7.08,6,18.42-14,30.63-12.8,44,.92,10.14,2.94,43.74-21.91,55.54s-56.91-6.25-56.91-6.25Z"/><path class="cls-8" d="M406.57,169.72c-4-14.46,14.33-42.55,14.33-42.55-57.2-17.28-53.93,14.5-53.93,14.5s-8-7.14-14.6-3.62-2.45,10.87-2.45,10.87-4.65-1.29-6.73,2.54c0,0,.27-27-16.83-20.33-11.74,4.57-12.56,18.72-12.56,18.72s-11.94,4.54-5.88,15.68c0,0-13.29-5.47-20.51,1.37-9.8,9.29.34,22.87.34,22.87s-9.22-5.11-13,1.34,4.14,10.71,4.14,10.71-11.78,7.56,1,15c9.16,5.3-12.2,14-12.2,14s-17-18.81-25.46-10.74c-6.31,6,1.34,13.34,1.34,13.34s-8.52-1.06-9.71,3.55c-1.75,6.83,5,7.21,5,7.21-4,8.4,12.18,7,12.18,7-6.34,14.72,16.13,16.19,16.13,16.19s9.8,0,28.45-1,99.92-18.9,99.92-18.9Z"/><path class="cls-5" d="M332.3,274.87c-32.64-.4-79.44-35.25-83.46-66.64a1.93,1.93,0,0,1,3-1.79c4.36,2.93,13.3,6.94,28.34,5.38,18.05-1.87,42.57-8,64.9,11.06s1.66,55.74,1.66,55.74Z"/><path class="cls-8" d="M310.26,203.54c-10.59,2.36-10.58,15.87,3.61,18.79,0,0-11.61,5-1.37,13.4,0,0-18.63,6.46-12.71,23.65l87.61,12.7-14.12-64.43Z"/><path class="cls-5" d="M351.81,265.72c-13.06-3.14-25.16-13.65-30.44-38.9-4.63-22.11-8.49-35-17-40.68a1.57,1.57,0,0,1,.61-2.88c8.17-1.22,25.28-2.11,33.6,9.66,0,0-5.34,1.66-2.18,6.29,4.48,6.56,7.28,0,7.28,0,5.93.22,10.86,10.72,10.86,10.72s-4.63-21,1.43-39.18a68.7,68.7,0,0,0-.74-46.84,2.31,2.31,0,0,1,2.86-3c9,2.86,27.2,13.4,34.52,38.94,12.28,42.8,6.7,100,6.7,100Z"/><rect class="cls-9" x="-4.87" y="-425.61" width="384.75" height="679.05"/></g></g></g></svg>