<svg xmlns="http://www.w3.org/2000/svg" xmlns:xlink="http://www.w3.org/1999/xlink" viewBox="0 0 375 667"><defs><style>.cls-16,.cls-18,.cls-20,.cls-22,.cls-24,.cls-25,.cls-26{fill:none}.cls-3{fill:#a8d8d8}.cls-4{fill:#4dbab9}.cls-5{fill:#70cac7}.cls-16,.cls-18,.cls-20,.cls-22,.cls-24,.cls-25,.cls-26{stroke-miterlimit:10}.cls-25{stroke-width:.85px}.cls-22{stroke-width:.57px}.cls-15{opacity:.5}.cls-18{stroke-width:.28px}.cls-13{fill:#17726e;opacity:.08}.cls-14{fill:#21948c}.cls-16,.cls-18,.cls-20,.cls-22,.cls-24,.cls-25,.cls-26{stroke:#9fd5d3}.cls-16{stroke-width:.14px}.cls-20{stroke-width:.43px}.cls-24{stroke-width:.71px}.cls-26{stroke-width:.99px}.cls-27{fill:#c4e7e8}</style><clipPath id="clip-path"><rect x="-1.89" y="-2.88" width="377.44" height="672.77" style="fill:none"/></clipPath></defs><title>Artboard 1 copy 8</title><g id="Meditation"><g style="clip-path:url(#clip-path)"><rect class="cls-3" x="-23.46" y="-19.62" width="413.22" height="579.28"/><path class="cls-4" d="M26.38,400.45C211.32,417,217.63,319.57,379,402l-12.42,90.58Z"/><path class="cls-5" d="M387.56,422.35c-44.22,8-379.76-28.29-411-23V692.57H391.89Z"/><path d="M366.61,677.05c-34.91-1.33-41.76-27.88-77.81-24.94-16.3,1.33-4.32,19.95-69.84,29.27-37.62,5.34-87.12,4-93.11-19.29-2.11-8.22,14-14.09,6.65-18.66-15-9.27-64.51,16.33-107.41,2.36-38.82-12.64-44.22-42.89-44.22-42.89" style="opacity:.8;stroke-width:1.98px;stroke-miterlimit:10;stroke:#afdfe1;fill:none"/><path d="M-17.14,538.45C-.67,576,49.7,545.7,58.68,558s-46.49,23.09-30.59,46.56c21.61,31.92,143.32,3.66,154,14.63,4.69,4.83-34.3,9.92-17,30.93,6.65,8.06,36.78,11.59,51.21,8.9,25.8-4.79,50.71-20.8,68.74-22.55,41-4,62.62,20,102.52-1.32" style="stroke-width:1.7px;opacity:.75;stroke-miterlimit:10;stroke:#afdfe1;fill:none"/><path d="M-19.13,494.82c6,8.31,19.28,11.31,31.25,11s26.94-7.29,34.59-5.47,9.64,10.79-16.79,17.48c-16.82,4.26-22.45,15.93-10.48,20.65,16.86,6.64,63.78-9.71,71.42,1.26s-15.33,24.23,0,43.3c28,34.85,130.91,5.92,155.45,15.23s54.22,27.06,83.06,25.61c32.92-1.67,54.54-26.94,58.19-32.59" style="opacity:.7;stroke-width:1.42px;stroke-miterlimit:10;stroke:#afdfe1;fill:none"/><path d="M378.58,545.7c-24.94,0-5.87,27.36-63.84,35.25-56.2,7.65-64-8.25-88.05-10.56-59.93-5.74-93.95,16.23-100.3,1.8-5.52-12.53,22.49-9.57,26.13-19.69,5.92-16.45-7.07-33.27-36.31-33.4-35.19-.16-52.87,11-55.53,1.33-4.26-15.42,57.19-15,68.17-24.61,10.41-9.15-10.65-12.3,0-19.61,5.78-4,23.27-5,40.57,1.32,0,0,146.31,16,155,11s27.27-7.65,33.49-1.4c6.57,6.61-10.16,15.78,22.71,16.7" style="stroke-width:1.13px;opacity:.65;stroke-miterlimit:10;stroke:#afdfe1;fill:none"/><path d="M383.24,473c-19.62,5.32-18.29-11.78-33.59-6.79-16.93,5.52-21.61-9.31-48.88-3.66s-133-9.64-154-2.9c-14.33,4.61-28.26-3.75-39.09.6-12.84,5.16,10.83,17.6-6.32,24.8C91,489.43,10.19,504.16-4.5,474.54" style="opacity:.6;stroke-width:.85px;stroke-miterlimit:10;stroke:#afdfe1;fill:none"/><path d="M-4.19,464.63c9.22-13.51,55.78-15.83,72.51-14,9.31,1,30.26-10.31,55.87-5,16.82,3.48,34.49-5.78,63.85-4.3,30.92,1.56,112.53,7.24,120,7.88,24.6,2.1,31.92-5.24,43.22-1.58s15.3,5.29,31.93,1.58" style="opacity:.5;stroke-width:.57px;stroke-miterlimit:10;stroke:#afdfe1;fill:none"/><path d="M-8.83,430.28c22.62-11.64,38.69-1.43,77.15-7.62,16.3-2.62,76.16,12.63,129.36,4,52.6-8.54,99.67,18.18,142,8.3,19.3-4.51,34.67,4.67,63.53-.17" style="stroke-width:.28px;opacity:.5;stroke-miterlimit:10;stroke:#afdfe1;fill:none"/><path class="cls-13" d="M42.34,466.3c22,14.8,59.33,13.41,63.77,10.08,6.21-4.66-16.39-14.7-16.39-14.7Z"/><path class="cls-13" d="M189.85,635.65s52.45,3.11,70.85-9.31c3.29-2.22,36,9.08,31.79,15.21C284.66,653,197.24,650.89,189.85,635.65Z"/><path class="cls-13" d="M144.92,551.46c-4.95,3.24-25.27,0-32.4-5.4l23.14-2.28S151,547.47,144.92,551.46Z"/><path class="cls-13" d="M137,512.72s20.78,17.35,56.69,23.34c21.11,3.51-26.75,11.43-26.75,11.43s17.92,15.08,76.3,20.82c20.29,2,116.4,27.68,189.22,15,123-21.51-84.91-60.52-84.91-60.52l-186-24.16Z"/><path class="cls-14" d="M357.3,533.4c1,11.67-46.11,26.26-106.41,26.26-57.2,0-86-7.17-86.12-16.29-.12-8.33,14.82-10.63,13.62-14.63-2.59-8.71-44.56-8.31-43.06-20.12-.17-19.12,77-166.1,117.78-166.1C313.41,342.52,356.41,523.2,357.3,533.4Z"/><path class="cls-14" d="M111.89,544.91c-.33,3,17.43,7.66,25.26,1,2.78-2.36-.39-13.27-8-13.27C120.78,532.68,112.41,540.28,111.89,544.91Z"/><path class="cls-14" d="M90.86,463.3c0,7.53-48.36,9.91-49.94.9-.82-4.71,16.43-35.89,26.52-35.89C81.29,428.31,90.86,455.07,90.86,463.3Z"/><path class="cls-14" d="M189.85,635.65c1.62,9.48,58.16,4.82,76.56-7.59,3.28-2.22.58-40.13-20.1-41C227.77,586.21,188.77,629.32,189.85,635.65Z"/><rect class="cls-3" x="-23.46" y="-22.62" width="413.22" height="579.28"/><path class="cls-4" d="M7.68,345.5c202.17,18.09,209.08-88.42,385.51,1.7l-13.57,99Z"/><path class="cls-5" d="M401.42,360.05C362,363.21,290.55,354.37,191,352.29c-83.34-1.74-164.95-12.1-215.26-5.75L-46.8,683.4h454Z"/><g class="cls-15"><g class="cls-15"><path class="cls-16" d="M-24.22,350.54c83.88-5.69,159.39,5.93,199,6.45,84.78,1.1,148.68,9.49,226.68,8.06"/><path class="cls-16" d="M-26.28,348.06c83.88-5.69,163.55,5.47,203.12,6,84.79,1.11,151,10.07,229,8.65"/></g><g style="opacity:.6"><path class="cls-18" d="M-24.22,363.54c80.9-9.72,160.24,5.45,199,4.45,86.08-2.24,148.14,10.64,226.68,6.06"/><path class="cls-18" d="M-24.22,359.54c80.9-9.72,159.38,4.59,199,4.45,86.11-.3,148.14,10.64,226.68,6.06"/><path class="cls-18" d="M-24.22,354.54c82.88-7.37,159.39,4.93,199,5.45,84.8,1.1,148.64,9.49,226.68,8.06"/></g><g style="opacity:.7"><path class="cls-20" d="M-31.44,376.29c132.35-13.45,140.14,9.55,210.66,6.35,108.07-4.9,141.84,3.22,210.66.3"/><path class="cls-20" d="M-26.28,369c120.91-8.71,133.06,6.07,203.64,4.43,107.78-2.49,148.86,8.14,217.69,5.22"/></g><g style="opacity:.8"><path class="cls-22" d="M-26.78,382.75c133.6-19.91,138.65,17.61,206,9.2,101-12.61,151.15,2.43,215.33-3.55"/><path class="cls-22" d="M-28.78,389.93C108.94,363.87,104,413.3,173.07,401.49c100.31-17.17,155.29,5.08,219.47-.91"/></g><g style="opacity:.9"><path class="cls-24" d="M-17.94,432.06c-2.84,8.3,8.44,15.13,35.37,15.13,26.58,0,38.23-9.9,36.53-15C52.14,426.81,37.42,424,19.61,424,9.09,424.05-15.87,426-17.94,432.06Z"/><path class="cls-24" d="M-30.8,430.88c-3.84,11.24,3.41,32.1,46.17,27.7S69.21,437,66.92,430.1C64.46,422.76,44.17,419,20.05,419,5.81,419-28,422.68-30.8,430.88Z"/><path class="cls-24" d="M-42.75,426c-3.84,11.25,4.77,54,62.63,41.79,56-11.8,64.33-29.07,60.69-39.56C75.3,413,44.17,412,20.05,412,5.81,412-39.94,417.79-42.75,426Z"/><path class="cls-24" d="M-19.81,411c28.6-9,80.15-7.31,102.3,3.67,23.26,11.52,24.63,59.88-111.38,70.16"/><path class="cls-24" d="M-18.37,404c36.25-5.52,67.81-6.94,98.81,2.32,36.76,11,17.52,28.68,24.14,33.25,9.52,6.58,35.24-16.56,74.64-4"/><path class="cls-24" d="M-23.46,399.65c36.25-5.52,78-10.27,109-1C117,408.06,110,422.15,117,426c14.15,7.76,35.56-14,77,1.36"/><path class="cls-24" d="M-26.28,394.06C10,388.53,56.82,384.13,87.94,393c23.41,6.66,26.61,17.58,38.91,20.69,19,4.78,43.12-6.52,80.14,5.33"/></g><path class="cls-25" d="M165.09,460.79c-17.29,2.11-47.22,8.86-41.84,24.81,4.51,13.34,36.85,8.33,40.84,18.39,3.27,8.24-12.22,9.41-6.09,22.75,11.74,25.57,126.92,38,232.76,7.54"/><path class="cls-25" d="M164.53,454c-41.92,3.1-62.2,20.19-56.87,36.15,5.56,16.62,32.35,13.21,36.54,20.21,5.82,9.7-4,14,2.14,27.36,14.21,30.78,155.31,32.23,250.2,10.63"/><path class="cls-25" d="M166.53,448.53c-56.42,0-77.68,25.22-76.44,42,1,14.27,16.13,14.94,32.52,25.79,12.09,8,10.65,24.15,16.47,37.64,15.82,36.63,208.69,28.88,262.34,6.38"/><path class="cls-25" d="M59.67,545.37c1.5,12.8,53,12.25,51.66,3.31-.94-6.47-18.07-8-27.82-8.08C72.42,540.57,59.17,541.16,59.67,545.37Z"/><path class="cls-25" d="M46.71,544.54c-4,5.58,9,19.28,40.07,17.43,31.75-1.89,37.91-9.21,35.83-14.77-3.4-9.15-29.9-11.29-39.65-11.14C68.38,536.28,52.08,537,46.71,544.54Z"/><path class="cls-25" d="M35.57,544.37c-5.49,10.84,5.5,27,51,25.6,50.05-1.49,45.33-19.89,42.91-25.11C125.4,536,106.82,532.23,83,531.57,68.38,531.16,41.57,532.51,35.57,544.37Z"/><path class="cls-26" d="M227.71,607.45c-37.29,1.62-67.29,8.15-62.72,26.7,3.16,12.81,31.47,20.74,77.61,20.5,23.57-.12,51.29-10.41,51.26-28C293.83,614.11,265.31,605.82,227.71,607.45Z"/><path class="cls-26" d="M225.39,600c-48.95,2.12-86.47,11-80.47,35.32,4.15,16.82,30.08,31.4,103.18,26.6,47.77-3.13,71.11-21.27,65.87-40.66C309.69,605.41,274.74,597.85,225.39,600Z"/><path class="cls-26" d="M225.31,585.72C152.23,587.93,117,611.19,117,634.93c0,27.9,38,48.66,127.83,41.56,72.89-5.77,93.66-33.58,88.37-57C328.71,599.81,305,583.3,225.31,585.72Z"/><path class="cls-26" d="M385.46,575c-19.51,12.53-59.95,6.37-61.75,13.32s29.87,12.64,25.36,44.5c-3.52,24.88-13.27,35.22-66.48,59-11,4.92,30.15,8.76,30.15,8.76,1.29,13.38,39-10.26,51.42-47.84,10.35-31.29-10.18-52.08-6.31-55.35,5-4.2,17.15.77,32.91-8,2.82-1.57,10.66,10.26,10.66,10.26s16.59,9.06,7.09,7.62c-36.78-5.57,20.82,58-7.09,80.89"/><path class="cls-26" d="M95.6,687c-45.5-83.16,41.32-100.92,48.87-103.55,7.05-2.46-1.88-5.62-6.45-7.52-6.35-2.64-7.36,7.06-61.38,15.63C49.37,595.91,15.45,590.23,7.12,562-1.11,534,21.44,521,50.37,519.09c23.28-1.55,42.83,4.1,40.14-1.78s-18.86-6.2-23.51-19.5c-2.82-8,6.46-19.12.66-22.56C56,468.33,26.09,498.5-27.78,494.8"/><path class="cls-26" d="M77,697.35c-12.62-24.7-17.3-47.34-12.64-65.17,4.2-16.06,13.72-18.93,9.19-25.55-5-7.32-61.48,11.71-78.68-30.7-28.31-69.81,65.82-57.5,69.17-66.48,2-5.43-6-3-6.65-10.64-.44-5.16,3.34-9.26-3.59-11.65-10.12-3.48-41.3,23.77-85.2,18.34"/><path class="cls-26" d="M57.66,696.35C34.71,655.78,54.8,634.09,44,622.21c-7.64-8.43-47,1.64-62.15-31C-53,516.34,41.1,512.46,46.72,504.49c4-5.75-5-8.67-24.83,0-16.36,7.15-24.51,12.72-53.33,12.28"/><path class="cls-26" d="M35.91,698.43C24,672.56,34,650.28,24.37,638c-12.32-15.72-29.2-7.34-47.65-18-18.94-11-8.23,14.78-4.24,16.39,7.82,3.15,26.5,3.24,35.2,15.84,9.12,13.21,3.33,37.16,8.06,45.14,1.94,3.25-34.11-4.64-34.11-4.64s-13.07-44.89,3.89-41.43"/><path class="cls-26" d="M172.74,442.17c-25.21-4.42-90.17,0-95.44,44.33-2.84,23.89,30.59,22,36.58,37.24,3.64,9.27-14.41-.1-37.69,1.45-28.93,1.93-62.76,3.52-54.53,31.47,8.33,28.26,50.69,28.64,91.77,18,16.44-4.28,16.39-10.66,22.37-10.76,2.91,0,2.93,4.22,14.66,9.75,13.19,6.21,26.48,3.52,27.38,7.21,1.88,7.77-113.83,5.65-65,97.67"/></g><path class="cls-13" d="M-7.51,436.06c22.67,16.74,63.21,19.59,72.93,13.79,7.62-4.53-18.79-19.07-18.79-19.07Z"/><path class="cls-14" d="M47.94,432.63c0,8.61-55.27,11.32-57.07,1-.94-5.38,18.77-41,30.3-41C37,392.66,47.93,423.23,47.94,432.63Z"/><path class="cls-13" d="M135.52,484s50.29,24.38,57.42,35.07l-21.34,7.09s27.17,21,100.1,30.22C317.54,562.18,413,598.73,504.3,571c149.77-45.43-106.39-75.82-106.39-75.82L164.85,464.92Z"/><path class="cls-14" d="M410.13,508.53c1.27,14.62-57.78,32.91-133.33,32.91-71.67,0-107.76-9-107.91-20.41-.15-10.44,18.57-13.32,17.07-18.33-3.26-10.92-55.83-10.42-54-25.21-.22-24,96.46-208.13,147.57-208.13C355.13,269.36,409,495.75,410.13,508.53Z"/><path class="cls-13" d="M109.72,559c-16.27,4.13-41.73-8.31-43.09-11.83l38-1S121.53,556,109.72,559Z"/><path class="cls-14" d="M66.15,546.49c1.59,4.32,31.55,8.63,38.2,1.56,3.77-4-20.76-21.66-32.2-20.47C63.06,528.52,63.11,538.27,66.15,546.49Z"/><path class="cls-13" d="M185.28,640.61s61.39,3.06,89.45-15.87c5-3.39,61.26,16.3,49.33,28.07C310.2,666.48,212.46,660.24,185.28,640.61Z"/><path class="cls-14" d="M179.9,636.29c16.39,18.72,93.76,18.46,103.53-8.93,2-5.7-10.64-58.79-42.18-60.18C213,565.94,173.1,628.52,179.9,636.29Z"/><path class="cls-27" d="M391.74,266.69H356.32c-3.2,0,.51-6.42,6.42-6.42H318.48a.47.47,0,0,1-.09-.94c13.19-2.59,14.9-8.34,25.23-2.91,0,0-2.06-9.89,10.52-8.34,0,0-13.43-17,3.14-21.28,15.77-4.05,35.49,13,35.49,13Z"/><path class="cls-27" d="M-36.21,290.86H56.6c1.75,0,2.11-1.66-1.36-1.66-3.67,0-13.39-2.6-14.45-4.16-2.53-3.68,1.16-4.84-2.33-8.34S28.57,274,28.57,274s8.92-9.12,3.49-15.9-19.36-4.57-19.36-4.57,11.41-24.53-12-33C-9.57,216.78-17,224.37-17,224.37c-9.12-6-19.24,4.82-19.24,4.82Z"/><path class="cls-27" d="M-17.42,144.15H84.21c2.4,0,2.33-1.76,0-1.76-12,0-22.83-12.43-31.47-8.29,0,0,2.13-7.68-.84-12.44-2.43-3.89-11-4.43-16.87.64,0,0-6-44.23-38.68-29.6C-41.46,109.62-29.89,144.15-17.42,144.15Z"/><path class="cls-27" d="M96.69,144.15h13.75c2.89,0-2.61-5.24-6.22-3.36,0,0-1.63-4.94-5.35-2.76S93.82,144.15,96.69,144.15Z"/><path class="cls-27" d="M186.17,82.33h118.4c6.18,0-9.55-6.37-20.35-1.86,0,0-5.66-7.52-12-1.86,0,0-15.95-25.85-36.28-22.7C214,59.32,223,77.37,223,77.37s-5.31-9.2-13.63-5.48c-5.48,2.45-13.54,8.21-22.17,8.21C184,80.1,183.31,82.33,186.17,82.33Z"/><path class="cls-27" d="M393.79,123.65H337.57c-1.77-3.05,6-12.14,16.61-4.26,0,0-6.07-23.76,24.63-13.42Z"/><rect x="-5.54" y="-6.02" width="384.75" height="679.05" style="opacity:.2;fill:#17726e"/></g></g></svg>