<svg xmlns="http://www.w3.org/2000/svg" xmlns:xlink="http://www.w3.org/1999/xlink" viewBox="0 0 375 235.23"><defs><style>.cls-1{fill:none}</style><clipPath id="clip-path"><rect class="cls-1" x="-1.5" y="-0.94" width="378" height="237.12"/></clipPath><clipPath id="clip-path-2"><rect class="cls-1" x="-3.27" y="-317.37" width="380.21" height="670.99"/></clipPath></defs><title>Artboard 34 copy 4</title><g id="Behavior"><g style="clip-path:url(#clip-path)"><g style="clip-path:url(#clip-path-2)"><rect x="-12.15" y="-328.35" width="397.05" height="442.5" style="fill:#e38bba"/><rect x="-11.15" y="-324.36" width="396.39" height="685.03" style="fill:#893a69"/><path d="M-84.31,93c99.09-38.32,124.83,22.82,163.73,28.8,55.28,8.51,67.05-32.59,140.87-25.34,58.83,5.78,57.19,61.17,73.81,67.28,17.4,6.4,19.57-8.23,45.24-12,41.24-6,52.55,22.56,99.21,18.17,42.29-4-29.7,132.17-29.7,132.17L-42.08,314.38Z" style="fill:#bb4e85"/><path d="M412.22-102.66c-43.81-34.79-158.1-15.21-100.81,105.78,35.86,75.73,97.77,66.25,133.06,24.37C467.78-.17,412.22-102.66,412.22-102.66Z" style="fill:#bd4e87"/><path d="M175.67,190.34c1-16.73,2.83-33.42,5.45-50C185.3,113.9,192.83,85.62,214,69.16c5.56-4.34,12.15-7.74,19.19-8s14.52,3.06,17.67,9.37c1.69,3.39,2,7.28,2,11.06.06,12.27-3,24.31-6,36.19a50.15,50.15,0,0,1,18.65-26.66c3.31-2.4,7.3-4.46,11.32-3.73s7.33,5.5,5.25,9c12.67-26.94,39.57-46.67,69.07-50.67,4.55-.61,9.43-.82,13.48,1.34C370.7,50.29,373.09,58.16,372,65s-5.09,12.76-9.08,18.38c-12.9,18.18-27.32,35.24-41.71,52.27,4.62,1.45,9.86-.17,14.36,1.61,6.08,2.41,8.34,10.36,6.57,16.66s-6.43,11.3-10.94,16l-17.6,18.47a6.15,6.15,0,0,1,5.55,10.79c4.1-4.65,8.92-9.66,15.11-9.86,4.92-.16,9.55,3,12.09,7.19s3.23,9.32,3,14.23c-1.07,19.64-15.92,35.5-30.6,48.61-11.48,10.26-25.22,20.6-40.55,19.13-6.29-.6-12.23-3.2-17.74-6.29a101.3,101.3,0,0,1-49.31-68.51" style="fill:#a24678"/><path d="M-84.31,145.81C37.4,94.06,36.07,195,81.42,201.07c55.45,7.37,55.74-60.44,138.87-51.8,58.79,6.11,47.23,83.14,69.63,88.11,18.09,4,21.18-22.84,40.11-33.57,34.44-19.51,46.34,27.44,108.52,14.95,41.64-8.36-29.7,136.17-29.7,136.17L-42.08,367.15Z" style="fill:#d35a9c"/><path d="M140,278.2c9.48-27.65,1.61-60.45-19.37-80.79-3.45-3.34-8.33-6.54-12.71-4.6a10.84,10.84,0,0,0-4.38,4.22,29.41,29.41,0,0,0-4.22,21.2A9.2,9.2,0,0,0,87.65,212c-8.05-20.91-13.87-61.35-35.58-55.77-16.59,4.27-14.68,39.2,1.06,47.16-5.06-1-9.23,5-8.54,10.09s4.45,9.17,8,12.88c-5.38-5.07-15-2.93-19.45,2.94s-4.77,14-3.06,21.23a10.21,10.21,0,0,0,1.73,4.14c1,1.22,2.39,2,3.46,3.13,3.77,4,2,10.42,2.78,15.86,1.4,10,11.43,16.29,21,19.51a87.58,87.58,0,0,0,59.25-1.33" style="fill:#a4477a"/><path d="M-91,241.89c115.72-54.87,115.72,12,170.38,21.8,70.49,12.62,70-55.48,132.89-49.74,58.86,5.38,34.59,91.84,77.61,90.69,22.13-.59,14.65-28.71,34.12-38.44,39.25-19.6,36.92,38.44,99.09,25.95,41.65-8.36-14.28,78.3-14.28,78.3L-42.08,382.67Z" style="fill:#e16eaa"/><path d="M407.05-85.53c-43.8-34.79-101.4,5.42-83,61.4,16,48.57,65.18,80.2,102.42,46.28C453.21-2.2,407.05-85.53,407.05-85.53Z" style="fill:#d25c9f"/><path d="M411.74-69.8c-43.81-34.79-78.06,11.26-62.42,48.72C358-.35,363.94,21.78,403.82,5.25,437.23-8.59,411.74-69.8,411.74-69.8Z" style="fill:#e36eaa"/><rect x="-5.54" y="-321.4" width="384.75" height="679.05" style="opacity:.2;fill:#893a69"/></g></g></g></svg>