<svg width="335" height="155" viewBox="0 0 335 155" fill="none" xmlns="http://www.w3.org/2000/svg">
<path d="M0 0H335V155H0V0Z" fill="#FFD4A1"/>
<rect x="241" y="18" width="3" height="18" rx="1.5" fill="#232323"/>
<ellipse cx="255.848" cy="18.4393" rx="10.5" ry="5.59518" transform="rotate(-33.2802 255.848 18.4393)" fill="#45B776"/>
<path fill-rule="evenodd" clip-rule="evenodd" d="M242.562 69.4372C240.073 70.445 237.351 71 234.5 71C222.626 71 213 61.3741 213 49.5C213 37.6259 222.626 28 234.5 28C237.351 28 240.073 28.555 242.562 29.5628C245.052 28.555 247.774 28 250.625 28C262.499 28 272.125 37.6259 272.125 49.5C272.125 61.3741 262.499 71 250.625 71C247.774 71 245.052 70.445 242.562 69.4372Z" fill="#E96358"/>
<path d="M94.4404 78.4276C90.6656 73.6421 92.0133 66.6216 97.2918 63.5741L103.503 59.9882C108.72 56.976 115.397 59.2269 117.725 64.7831L132.239 99.4112C133.835 103.22 132.461 107.625 128.983 109.851C125.304 112.205 120.438 111.386 117.733 107.957L94.4404 78.4276Z" fill="#167E59"/>
<path fill-rule="evenodd" clip-rule="evenodd" d="M107.085 35.2361C101.888 28.6157 92.48 26.6512 84.9791 30.9818C77.1309 35.513 74.2071 45.298 78.0854 53.3294C75.6792 53.5472 73.2809 54.2783 71.051 55.5657C62.8286 60.3129 60.0114 70.8268 64.7586 79.0492C69.5058 87.2716 80.0198 90.0888 88.2422 85.3416C89.228 84.7725 90.1361 84.1204 90.9628 83.3994C96.3053 89.0645 105.021 90.5423 112.058 86.4794C119.602 82.1238 122.596 72.9134 119.372 65.0727C122.083 64.9733 124.81 64.229 127.323 62.7781C135.545 58.0309 138.362 47.517 133.615 39.2946C128.868 31.0722 118.354 28.255 110.132 33.0022C109.015 33.6471 107.997 34.3985 107.085 35.2361Z" fill="#45B776"/>
<path fill-rule="evenodd" clip-rule="evenodd" d="M202.407 84.75C200.733 83.7835 198.592 84.3571 197.626 86.0311L196.626 87.7631C196.346 88.2484 196.195 88.773 196.163 89.2967C188.929 85.5502 182.501 84.229 181.252 86.3923C179.871 88.7837 185.343 94.528 193.474 99.2224C201.605 103.917 209.316 105.784 210.696 103.392C211.895 101.316 207.929 96.7128 201.542 92.4634C202 92.1709 202.397 91.7668 202.688 91.2631L203.688 89.5311C204.655 87.8571 204.081 85.7165 202.407 84.75Z" fill="#177E60"/>
<path fill-rule="evenodd" clip-rule="evenodd" d="M167.09 132.638C167.515 132.752 167.941 132.837 168.366 132.894C169.212 134.328 170.429 135.57 171.974 136.461C173.598 137.399 175.375 137.829 177.123 137.802C177.435 138.235 177.786 138.649 178.176 139.039C182.081 142.944 188.412 142.944 192.318 139.039L214.238 117.118C218.143 113.213 218.143 106.881 214.238 102.976C211.053 99.7908 206.253 99.2036 202.473 101.215C202.562 97.6711 200.76 94.1911 197.474 92.2941C194.338 90.4836 190.629 90.5646 187.668 92.1832C187.319 88.1063 184.471 84.4964 180.29 83.3762C174.955 81.9468 169.472 85.1126 168.043 90.4473L160.019 120.391C158.59 125.726 161.756 131.209 167.09 132.638Z" fill="#F4BE1B"/>
</svg>
