<svg width="58" height="58" viewBox="0 0 58 58" fill="none" xmlns="http://www.w3.org/2000/svg">
<circle cx="29" cy="29" r="29" fill="#FFD4A1"/>
<path d="M27.8065 16.4524C27.8065 15.9948 28.1775 15.6238 28.6351 15.6238V15.6238C29.0927 15.6238 29.4637 15.9948 29.4637 16.4524V24.7384C29.4637 25.196 29.0927 25.567 28.6351 25.567V25.567C28.1775 25.567 27.8065 25.196 27.8065 24.7384V16.4524Z" fill="#232323"/>
<path d="M40.8582 12.6833C41.7949 14.1103 40.3832 16.6922 37.7052 18.45C35.0272 20.2078 32.0969 20.4759 31.1603 19.0489C30.2236 17.6218 31.6352 15.04 34.3132 13.2822C36.9912 11.5244 39.9215 11.2563 40.8582 12.6833Z" fill="#45B776"/>
<path d="M36.0925 33.0243C36.0925 39.5836 30.7751 44.901 24.2159 44.901C17.6566 44.901 12.3392 39.5836 12.3392 33.0243C12.3392 26.4651 17.6566 21.1477 24.2159 21.1477C30.7751 21.1477 36.0925 26.4651 36.0925 33.0243Z" fill="#E96358"/>
<path d="M45 33.0243C45 39.5836 39.6826 44.901 33.1233 44.901C26.5641 44.901 21.2467 39.5836 21.2467 33.0243C21.2467 26.4651 26.5641 21.1477 33.1233 21.1477C39.6826 21.1477 45 26.4651 45 33.0243Z" fill="#E96358"/>
</svg>
