<svg width="58" height="58" viewBox="0 0 58 58" fill="none" xmlns="http://www.w3.org/2000/svg">
<mask id="mask0_1236_154952" style="mask-type:alpha" maskUnits="userSpaceOnUse" x="0" y="0" width="58" height="58">
<circle cx="29" cy="29" r="29" fill="#D9D9D9"/>
</mask>
<g mask="url(#mask0_1236_154952)">
<path d="M-50.0909 6.77923C-50.0909 2.61917 -46.7185 -0.753235 -42.5584 -0.753235H68.5454C72.7055 -0.753235 76.0779 2.61917 76.0779 6.77923V57.6234H-50.0909V6.77923Z" fill="#D5E4EC"/>
<path d="M1.12979 26.7402H19.2077V33.1428H1.12979V26.7402Z" fill="#F4BE1B"/>
<path d="M36.7853 22.2395V22.0512L38.9885 17.5317V17.494H37.3126C37.1242 17.494 36.9736 17.3246 36.9736 17.1362V15.4226C36.9736 15.2155 37.1242 15.0648 37.3126 15.0648H42.4158C42.6983 15.0648 42.8677 15.3096 42.7359 15.5733L40.3632 20.1492V20.1869H42.0392C42.2463 20.1869 42.397 20.3375 42.397 20.5447V22.2395C42.397 22.4278 42.2463 22.5973 42.0392 22.5973H37.1431C36.9548 22.5973 36.7853 22.4278 36.7853 22.2395Z" fill="#AAB2DB"/>
<path d="M45.3088 15.98V15.867L46.6307 13.1553V13.1327H45.6251C45.5122 13.1327 45.4218 13.031 45.4218 12.9181V11.8899C45.4218 11.7656 45.5122 11.6752 45.6251 11.6752H48.6871C48.8566 11.6752 48.9583 11.8221 48.8792 11.9803L47.4555 14.7259V14.7484H48.4611C48.5854 14.7484 48.6758 14.8388 48.6758 14.9631V15.98C48.6758 16.093 48.5854 16.1947 48.4611 16.1947H45.5235C45.4105 16.1947 45.3088 16.093 45.3088 15.98Z" fill="#AAB2DB"/>
<path d="M50.5815 13.3437V13.2307L51.9034 10.519V10.4964H50.8978C50.7849 10.4964 50.6945 10.3947 50.6945 10.2817V9.25352C50.6945 9.12924 50.7849 9.03885 50.8978 9.03885H53.9598C54.1293 9.03885 54.231 9.18573 54.1519 9.34391L52.7282 12.0895V12.1121H53.7338C53.8581 12.1121 53.9485 12.2025 53.9485 12.3268V13.3437C53.9485 13.4566 53.8581 13.5583 53.7338 13.5583H50.7962C50.6832 13.5583 50.5815 13.4566 50.5815 13.3437Z" fill="#AAB2DB"/>
<path d="M26.4089 30.255C22.2951 34.3688 15.6253 34.3688 11.5115 30.255C7.39771 26.1412 7.39771 19.4715 11.5115 15.3577C15.6253 11.2439 22.2951 11.2439 26.4089 15.3577C30.5227 19.4715 30.5227 26.1412 26.4089 30.255Z" fill="#F4BE1B"/>
<path fill-rule="evenodd" clip-rule="evenodd" d="M19.5001 24.2643C19.5001 24.4723 19.3315 24.6409 19.1235 24.6409C18.0326 24.6409 17.1483 23.7566 17.1483 22.6657C17.1483 22.4577 17.3169 22.2891 17.5249 22.2891C17.7329 22.2891 17.9015 22.4577 17.9015 22.6657C17.9015 23.3406 18.4486 23.8877 19.1235 23.8877C19.3315 23.8877 19.5001 24.0563 19.5001 24.2643Z" fill="black"/>
<path fill-rule="evenodd" clip-rule="evenodd" d="M19.6796 19.4782C19.6796 19.6862 19.511 19.8548 19.303 19.8548C18.2121 19.8548 17.3277 18.9705 17.3277 17.8796C17.3277 17.6716 17.4964 17.5029 17.7044 17.5029C17.9124 17.5029 18.081 17.6716 18.081 17.8796C18.081 18.5544 18.6281 19.1016 19.303 19.1016C19.511 19.1016 19.6796 19.2702 19.6796 19.4782Z" fill="black"/>
<path fill-rule="evenodd" clip-rule="evenodd" d="M24.2401 24.0386C24.2401 24.2466 24.0715 24.4152 23.8635 24.4152C22.7726 24.4152 21.8882 23.5308 21.8882 22.44C21.8882 22.232 22.0568 22.0633 22.2648 22.0633C22.4728 22.0633 22.6415 22.232 22.6415 22.44C22.6415 23.1148 23.1886 23.6619 23.8635 23.6619C24.0715 23.6619 24.2401 23.8306 24.2401 24.0386Z" fill="black"/>
<path d="M-0.859774 26.318C-3.08903 24.4444 -2.00007 19.4797 1.57247 15.229C5.14502 10.9783 9.84831 9.05137 12.0776 10.925C14.3068 12.7986 13.2179 17.7633 9.64531 22.014C6.07277 26.2646 1.36948 28.1916 -0.859774 26.318Z" fill="white"/>
<path d="M-9.8925 31.8242C-11.5012 29.224 -8.85367 24.6713 -3.97903 21.6554C0.89561 18.6395 6.15141 18.3026 7.76013 20.9028C9.36885 23.503 6.7213 28.0558 1.84666 31.0716C-3.02798 34.0875 -8.28378 34.4245 -9.8925 31.8242Z" fill="white"/>
<path d="M-6.69969 33.5192C-7.96004 33.5192 -8.57967 31.9851 -7.67287 31.1098L7.79859 16.1756C9.64225 14.396 12.7248 15.5839 12.8973 18.1406L13.7179 30.3034C13.8353 32.0433 12.4556 33.5192 10.7118 33.5192H-6.69969Z" fill="white"/>
<path d="M18.8313 30.6316C18.8313 29.6393 19.4157 28.74 20.3225 28.337L30.4835 23.821C32.974 22.7141 35.7793 24.5372 35.7793 27.2626V29.3764C35.7793 31.4564 34.0931 33.1426 32.0131 33.1426H21.3423C19.9555 33.1426 18.8313 32.0184 18.8313 30.6316Z" fill="white"/>
<path d="M13.1819 13.1816L12.9936 21.279L6.96762 20.9024L9.98061 13.1816H13.1819Z" fill="white"/>
<path d="M31.6363 45.5714C31.6363 45.3634 31.8049 45.1948 32.0129 45.1948H33.5194C33.7274 45.1948 33.8961 45.3634 33.8961 45.5714V50.8441C33.8961 51.0521 33.7274 51.2208 33.5194 51.2208H32.0129C31.8049 51.2208 31.6363 51.0521 31.6363 50.8441V45.5714Z" fill="#232323"/>
<path d="M-16.1948 41.0519C-16.1948 38.9719 -14.5086 37.2857 -12.4286 37.2857H33.5195C35.5995 37.2857 37.2857 38.9719 37.2857 41.0519V43.6883C37.2857 45.7683 35.5995 47.4545 33.5195 47.4545H-12.4286C-14.5086 47.4545 -16.1948 45.7683 -16.1948 43.6883V41.0519Z" fill="#AF6BC0"/>
<path d="M-16.1949 35.2142C-16.1949 33.8621 -15.0988 32.7661 -13.7468 32.7661H34.8376C36.1896 32.7661 37.2857 33.8621 37.2857 35.2142C37.2857 36.5662 36.1896 37.6622 34.8376 37.6622H-13.7468C-15.0988 37.6622 -16.1949 36.5662 -16.1949 35.2142Z" fill="#AF6BC0"/>
</g>
</svg>
