<svg width="335" height="155" viewBox="0 0 335 155" fill="none" xmlns="http://www.w3.org/2000/svg">
<path d="M0 0H335V155H0V0Z" fill="#AAB2DB"/>
<path d="M162 107V138H154" stroke="#232323" stroke-width="4" stroke-linecap="round" stroke-linejoin="round"/>
<path d="M172 107V138H179" stroke="#232323" stroke-width="4" stroke-linecap="round" stroke-linejoin="round"/>
<path fill-rule="evenodd" clip-rule="evenodd" d="M234.77 43.3095C240.738 46.6904 242.835 54.2694 239.455 60.2377L258.366 70.9503C258.366 70.9503 258.366 70.9502 258.366 70.9501C261.747 64.9818 269.326 62.8843 275.295 66.2651C281.263 69.6459 283.36 77.2249 279.98 83.1932C276.599 89.1615 269.02 91.2591 263.051 87.8782C258.016 85.0259 255.736 79.1853 257.176 73.8448L237.584 62.7463C233.744 66.7278 227.562 67.7751 222.527 64.9227C216.558 61.5418 214.461 53.9628 217.841 47.9945C221.222 42.0262 228.801 39.9287 234.77 43.3095Z" fill="#25475C"/>
<path fill-rule="evenodd" clip-rule="evenodd" d="M114.427 32.5278L114.427 32.5284L92.7683 34.3494C92.7683 34.3493 92.7683 34.3491 92.7683 34.3489C92.1936 27.5137 86.1866 22.4385 79.3514 23.0132C72.5162 23.5879 67.441 29.5949 68.0157 36.4301C68.5904 43.2654 74.5973 48.3405 81.4326 47.7658C87.1993 47.281 91.7132 42.9296 92.6384 37.4763L115.077 35.5897C116.9 40.8118 122.077 44.3483 127.844 43.8635C134.679 43.2888 139.754 37.2818 139.179 30.4466C138.605 23.6114 132.598 18.5362 125.763 19.1109C118.927 19.6856 113.852 25.6925 114.427 32.5278Z" fill="#25475C"/>
<circle cx="154.802" cy="59.6097" r="16" fill="#FBE0DE"/>
<circle cx="157.802" cy="53.6097" r="16" fill="#FBE0DE"/>
<circle cx="178.802" cy="53.6097" r="16" fill="#FBE0DE"/>
<circle cx="147.802" cy="91.6097" r="16" fill="#FBE0DE"/>
<circle cx="202.802" cy="84.6097" r="16" fill="#FBE0DE"/>
<path d="M209.608 70.3771C213.766 74.6724 224.231 82.5846 232.831 79.8718C241.431 77.1589 245.348 70.2824 246.232 67.1832" stroke="#232323" stroke-width="3" stroke-linecap="round"/>
<path d="M123.337 67.7763C117.429 66.8627 104.926 62.8886 102.174 54.3011C99.4226 45.7137 102.774 38.5441 104.794 36.0328" stroke="#232323" stroke-width="3" stroke-linecap="round"/>
<circle cx="180.802" cy="59.6097" r="16" fill="#FBE0DE"/>
<circle cx="173.802" cy="91.6097" r="16" fill="#FBE0DE"/>
<circle cx="187.802" cy="91.6097" r="16" fill="#FBE0DE"/>
<circle cx="163.802" cy="91.6097" r="16" fill="#FBE0DE"/>
<circle cx="157.802" cy="81.6097" r="16" fill="#FBE0DE"/>
<circle cx="171.802" cy="81.6097" r="16" fill="#FBE0DE"/>
<circle cx="161.302" cy="65.1099" r="2.5" fill="#232323"/>
<circle cx="174.302" cy="65.1099" r="2.5" fill="#232323"/>
<circle cx="131.802" cy="81.6099" r="16" fill="#FBE0DE"/>
<path d="M140.032 48.3803C141.806 46.6064 144.211 45.6099 146.72 45.6099H189.884C192.393 45.6099 194.799 46.6064 196.573 48.3803C197.764 49.5721 196.92 51.6099 195.235 51.6099H141.369C139.684 51.6099 138.84 49.5721 140.032 48.3803Z" fill="#D87706"/>
<circle cx="137.802" cy="66.6099" r="16" fill="#FBE0DE"/>
<circle cx="198.802" cy="66.6099" r="16" fill="#FBE0DE"/>
</svg>
