<svg width="58" height="58" viewBox="0 0 58 58" fill="none" xmlns="http://www.w3.org/2000/svg">
<mask id="mask0_1236_154981" style="mask-type:alpha" maskUnits="userSpaceOnUse" x="0" y="0" width="58" height="58">
<circle cx="29" cy="29" r="29" fill="#D9D9D9"/>
</mask>
<g mask="url(#mask0_1236_154981)">
<path d="M-43.9353 13.6869C-43.9353 2.64122 -34.981 -6.31308 -23.9353 -6.31308H76.6672C87.7129 -6.31308 96.6672 2.64122 96.6672 13.6869V58.7418H-43.9353V13.6869Z" fill="#8DCDBD"/>
<mask id="mask1_1236_154981" style="mask-type:alpha" maskUnits="userSpaceOnUse" x="-29" y="10" width="105" height="49">
<path d="M-29 30.2089C-29 19.1632 -20.0457 10.2089 -9 10.2089H56C67.0457 10.2089 76 19.1632 76 30.2089V38.791C76 49.8367 67.0457 58.791 56 58.791H-9C-20.0457 58.791 -29 49.8367 -29 38.791V30.2089Z" fill="#5DADF3"/>
</mask>
<g mask="url(#mask1_1236_154981)">
<ellipse cx="23.5" cy="87.1567" rx="52.5" ry="46.2313" fill="#E2E5F3"/>
<rect x="21.7761" y="16.7909" width="4.07463" height="31.3433" rx="2.03731" fill="white"/>
<path d="M21.7761 20.596V34.2746C24.0124 32.5671 29.3573 30.1766 32.846 34.2746C36.3347 38.3725 42.3824 35.982 44.9701 34.2746V20.596C42.3664 22.2847 36.2963 24.6489 32.846 20.596C29.3956 16.5431 24.0284 18.9073 21.7761 20.596Z" fill="#6D7BC1"/>
</g>
</g>
</svg>
