<svg width="335" height="155" viewBox="0 0 335 155" fill="none" xmlns="http://www.w3.org/2000/svg">
<path d="M0 0H335V155H0V0Z" fill="#D5E4EC"/>
<rect x="136" y="73" width="48" height="17" fill="#F4BE1B"/>
<path d="M230.671 61.05V60.55L236.521 48.55V48.45H232.071C231.571 48.45 231.171 48 231.171 47.5V42.95C231.171 42.4 231.571 42 232.071 42H245.621C246.371 42 246.821 42.65 246.471 43.35L240.171 55.5V55.6H244.621C245.171 55.6 245.571 56 245.571 56.55V61.05C245.571 61.55 245.171 62 244.621 62H231.621C231.121 62 230.671 61.55 230.671 61.05Z" fill="#AAB2DB"/>
<path d="M253.303 44.43V44.13L256.813 36.93V36.87H254.143C253.843 36.87 253.603 36.6 253.603 36.3V33.57C253.603 33.24 253.843 33 254.143 33H262.273C262.723 33 262.993 33.39 262.783 33.81L259.003 41.1V41.16H261.673C262.003 41.16 262.243 41.4 262.243 41.73V44.43C262.243 44.73 262.003 45 261.673 45H253.873C253.573 45 253.303 44.73 253.303 44.43Z" fill="#AAB2DB"/>
<path d="M267.303 37.43V37.13L270.813 29.93V29.87H268.143C267.843 29.87 267.603 29.6 267.603 29.3V26.57C267.603 26.24 267.843 26 268.143 26H276.273C276.723 26 276.993 26.39 276.783 26.81L273.003 34.1V34.16H275.673C276.003 34.16 276.243 34.4 276.243 34.73V37.43C276.243 37.73 276.003 38 275.673 38H267.873C267.573 38 267.303 37.73 267.303 37.43Z" fill="#AAB2DB"/>
<circle cx="183.343" cy="62.5551" r="27.9697" transform="rotate(45 183.343 62.5551)" fill="#F4BE1B"/>
<path d="M179.532 62.1819C179.532 64.5261 181.432 66.4265 183.777 66.4265" stroke="#232323" stroke-width="2" stroke-linecap="round"/>
<path d="M180.01 49.4742C180.01 51.8184 181.91 53.7188 184.254 53.7188" stroke="#232323" stroke-width="2" stroke-linecap="round"/>
<path d="M192.118 61.5829C192.118 63.9271 194.019 65.8275 196.363 65.8275" stroke="#232323" stroke-width="2" stroke-linecap="round"/>
<ellipse cx="147.893" cy="51.4436" rx="26.6947" ry="14" transform="rotate(130.046 147.893 51.4436)" fill="white"/>
<ellipse cx="130.169" cy="72.0001" rx="27.558" ry="14.6999" transform="rotate(148.256 130.169 72.0001)" fill="white"/>
<path d="M115.212 90.9999C111.865 90.9999 110.22 86.9265 112.628 84.6024L153.707 44.9495C158.602 40.2243 166.787 43.3786 167.245 50.1669L169.424 82.4613C169.736 87.0811 166.072 90.9999 161.442 90.9999H115.212V90.9999Z" fill="white"/>
<path d="M183 83.3327C183 80.6979 184.552 78.3102 186.96 77.2402L213.939 65.2494C220.552 62.3103 228 67.1509 228 74.3875V79.9999C228 85.5227 223.523 89.9999 218 89.9999H189.668C185.985 89.9999 183 87.0149 183 83.3327V83.3327Z" fill="white"/>
<path d="M168 36.9999L167.5 58.4999L151.5 57.4999L159.5 36.9999H168Z" fill="white"/>
<rect x="99" y="122" width="6" height="16" rx="1" fill="#232323"/>
<rect x="217" y="122" width="6" height="16" rx="1" fill="#232323"/>
<rect x="90" y="101" width="142" height="27" rx="10" fill="#AF6BC0"/>
<rect x="90" y="89" width="142" height="13" rx="6.5" fill="#AF6BC0"/>
</svg>
