<svg width="58" height="58" viewBox="0 0 58 58" fill="none" xmlns="http://www.w3.org/2000/svg">
<circle cx="29" cy="29" r="29" fill="#96BCCF"/>
<path d="M27.6671 12.0847C27.9755 10.6384 30.0395 10.6384 30.348 12.0847L30.8469 14.4246C31.0943 15.5844 32.598 15.904 33.2957 14.9451L34.7032 13.0105C35.5732 11.8146 37.4588 12.6542 37.1523 14.1009L36.6564 16.4414C36.4106 17.6015 37.6543 18.5051 38.6817 17.9128L40.7544 16.718C42.0356 15.9794 43.4167 17.5133 42.5483 18.7103L41.1433 20.6467C40.4469 21.6066 41.2156 22.9379 42.395 22.8148L44.7745 22.5663C46.2454 22.4126 46.8832 24.3757 45.603 25.1159L43.5318 26.3135C42.5052 26.9071 42.6659 28.436 43.7935 28.8032L46.0684 29.544C47.4745 30.0019 47.2588 32.0547 45.7882 32.2102L43.409 32.4619C42.2297 32.5866 41.7546 34.0487 42.6354 34.8428L44.4123 36.4448C45.5106 37.4351 44.4786 39.2226 43.0718 38.7665L40.796 38.0287C39.6679 37.663 38.6392 38.8054 39.1209 39.8891L40.0925 42.0754C40.6931 43.4268 39.0233 44.64 37.9236 43.6512L36.1446 42.0515C35.2628 41.2585 33.8584 41.8838 33.8577 43.0697L33.8561 45.4622C33.8551 46.941 31.8362 47.3701 31.2338 46.0195L30.2592 43.8346C29.7762 42.7515 28.2389 42.7515 27.7558 43.8346L26.7813 46.0195C26.1789 47.3701 24.16 46.941 24.159 45.4622L24.1574 43.0697C24.1566 41.8838 22.7522 41.2585 21.8704 42.0515L20.0914 43.6512C18.9918 44.64 17.3219 43.4267 17.9225 42.0754L18.8942 39.8891C19.3758 38.8054 18.3472 37.663 17.2191 38.0287L14.9432 38.7665C13.5365 39.2226 12.5045 37.4351 13.6028 36.4448L15.3797 34.8428C16.2604 34.0487 15.7854 32.5866 14.6061 32.4619L12.2269 32.2102C10.7563 32.0547 10.5405 30.0019 11.9467 29.544L14.2215 28.8032C15.3491 28.436 15.5098 26.9071 14.4832 26.3135L12.4121 25.1159C11.1319 24.3757 11.7697 22.4126 13.2405 22.5663L15.62 22.8148C16.7995 22.9379 17.5682 21.6066 16.8717 20.6467L15.4668 18.7103C14.5983 17.5133 15.9794 15.9794 17.2606 16.718L19.3333 17.9128C20.3607 18.5051 21.6044 17.6015 21.3587 16.4414L20.8628 14.1009C20.5563 12.6542 22.4419 11.8146 23.3119 13.0105L24.7194 14.9451C25.4171 15.904 26.9208 15.5844 27.1681 14.4246L27.6671 12.0847Z" fill="#F5BE17"/>
<path d="M26.5011 25.719C26.5011 26.3125 26.0199 26.7937 25.4264 26.7937C24.8328 26.7937 24.3517 26.3125 24.3517 25.719C24.3517 25.1254 24.8328 24.6443 25.4264 24.6443C26.0199 24.6443 26.5011 25.1254 26.5011 25.719Z" fill="#232323"/>
<path d="M33.7554 25.719C33.7554 26.3125 33.2742 26.7937 32.6807 26.7937C32.0871 26.7937 31.606 26.3125 31.606 25.719C31.606 25.1254 32.0871 24.6443 32.6807 24.6443C33.2742 24.6443 33.7554 25.1254 33.7554 25.719Z" fill="#232323"/>
<path fill-rule="evenodd" clip-rule="evenodd" d="M32.8631 30.1192C32.6223 30.0183 32.3452 30.1318 32.2443 30.3727C31.7129 31.6416 30.5329 32.5006 29.187 32.5006C27.8421 32.5006 26.663 31.6431 26.1309 30.3758C26.0298 30.135 25.7526 30.0217 25.5118 30.1228C25.271 30.2239 25.1578 30.5011 25.2589 30.7419C25.922 32.3212 27.4205 33.4463 29.187 33.4463C30.9548 33.4463 32.4544 32.3193 33.1166 30.738C33.2175 30.4972 33.104 30.2201 32.8631 30.1192Z" fill="#232323"/>
</svg>
