<svg width="335" height="155" viewBox="0 0 335 155" fill="none" xmlns="http://www.w3.org/2000/svg">
<path d="M0 0H335V155H0V0Z" fill="#FFD4A1"/>
<mask id="mask0_1205_130102" style="mask-type:alpha" maskUnits="userSpaceOnUse" x="0" y="0" width="335" height="155">
<path d="M0 0H335V155H0V0Z" fill="#5DADF3"/>
</mask>
<g mask="url(#mask0_1205_130102)">
<rect x="237" y="18" width="3" height="18" rx="1.5" fill="#232323"/>
<ellipse cx="251.848" cy="18.4393" rx="10.5" ry="5.59518" transform="rotate(-33.2802 251.848 18.4393)" fill="#45B776"/>
<circle cx="230.5" cy="49.5" r="21.5" fill="#E96358"/>
<circle cx="246.625" cy="49.5" r="21.5" fill="#E96358"/>
</g>
<path d="M90.4405 78.4276C86.6657 73.6421 88.0134 66.6216 93.2919 63.5741L99.5028 59.9882C104.72 56.976 111.397 59.2269 113.726 64.7831L128.239 99.4112C129.835 103.22 128.461 107.625 124.983 109.851V109.851C121.304 112.205 116.438 111.386 113.733 107.957L90.4405 78.4276Z" fill="#167E59"/>
<circle cx="75.6466" cy="70.4534" r="17.1912" transform="rotate(-30 75.6466 70.4534)" fill="#45B776"/>
<circle cx="89.5749" cy="45.8695" r="17.1912" transform="rotate(-30 89.5749 45.8695)" fill="#45B776"/>
<circle cx="99.4628" cy="71.5912" r="17.1912" transform="rotate(-30 99.4628 71.5912)" fill="#45B776"/>
<circle cx="114.727" cy="47.8899" r="17.1912" transform="rotate(-30 114.727 47.8899)" fill="#45B776"/>
<ellipse cx="191.974" cy="94.8923" rx="17" ry="5" transform="rotate(30 191.974 94.8923)" fill="#177E60"/>
<rect x="166.631" y="80.7881" width="20" height="51" rx="10" transform="rotate(15 166.631 80.7881)" fill="#F4BE1B"/>
<rect x="184.814" y="87.2942" width="20" height="51" rx="10" transform="rotate(30 184.814 87.2942)" fill="#F4BE1B"/>
<rect x="203.167" y="95.9052" width="20" height="51" rx="10" transform="rotate(45 203.167 95.9052)" fill="#F4BE1B"/>
<rect x="195.376" y="83" width="7" height="9" rx="3.5" transform="rotate(30 195.376 83)" fill="#177E60"/>
</svg>
