<svg width="335" height="155" viewBox="0 0 335 155" fill="none" xmlns="http://www.w3.org/2000/svg">
<path d="M0 0H335V155H0V0Z" fill="#D5E4EC"/>
<rect x="136" y="73" width="48" height="17" fill="#F4BE1B"/>
<path d="M236.671 61.05V60.55L242.521 48.55V48.45H238.071C237.571 48.45 237.171 48 237.171 47.5V42.95C237.171 42.4 237.571 42 238.071 42H251.621C252.371 42 252.821 42.65 252.471 43.35L246.171 55.5V55.6H250.621C251.171 55.6 251.571 56 251.571 56.55V61.05C251.571 61.55 251.171 62 250.621 62H237.621C237.121 62 236.671 61.55 236.671 61.05Z" fill="#AAB2DB"/>
<path d="M259.303 44.43V44.13L262.813 36.93V36.87H260.143C259.843 36.87 259.603 36.6 259.603 36.3V33.57C259.603 33.24 259.843 33 260.143 33H268.273C268.723 33 268.993 33.39 268.783 33.81L265.003 41.1V41.16H267.673C268.003 41.16 268.243 41.4 268.243 41.73V44.43C268.243 44.73 268.003 45 267.673 45H259.873C259.573 45 259.303 44.73 259.303 44.43Z" fill="#AAB2DB"/>
<path d="M273.303 37.43V37.13L276.813 29.93V29.87H274.143C273.843 29.87 273.603 29.6 273.603 29.3V26.57C273.603 26.24 273.843 26 274.143 26H282.273C282.723 26 282.993 26.39 282.783 26.81L279.003 34.1V34.16H281.673C282.003 34.16 282.243 34.4 282.243 34.73V37.43C282.243 37.73 282.003 38 281.673 38H273.873C273.573 38 273.303 37.73 273.303 37.43Z" fill="#AAB2DB"/>
<circle cx="189.343" cy="62.5551" r="27.9697" transform="rotate(45 189.343 62.5551)" fill="#F4BE1B"/>
<path d="M185.532 62.1819C185.532 64.5261 187.432 66.4265 189.777 66.4265" stroke="#232323" stroke-width="2" stroke-linecap="round"/>
<path d="M186.009 49.4742C186.009 51.8184 187.91 53.7188 190.254 53.7188" stroke="#232323" stroke-width="2" stroke-linecap="round"/>
<path d="M198.118 61.5829C198.118 63.9271 200.019 65.8275 202.363 65.8275" stroke="#232323" stroke-width="2" stroke-linecap="round"/>
<ellipse cx="153.893" cy="51.4436" rx="26.6947" ry="14" transform="rotate(130.046 153.893 51.4436)" fill="white"/>
<ellipse cx="136.169" cy="72.0001" rx="27.558" ry="14.6999" transform="rotate(148.256 136.169 72.0001)" fill="white"/>
<path d="M121.212 90.9999C117.865 90.9999 116.22 86.9265 118.628 84.6024L159.707 44.9495C164.602 40.2243 172.787 43.3786 173.245 50.1669L175.424 82.4613C175.736 87.0811 172.072 90.9999 167.442 90.9999H121.212Z" fill="white"/>
<path d="M189 83.3327C189 80.6979 190.552 78.3102 192.96 77.2402L219.939 65.2494C226.552 62.3103 234 67.1509 234 74.3875V79.9999C234 85.5227 229.523 89.9999 224 89.9999H195.668C191.985 89.9999 189 87.0149 189 83.3327Z" fill="white"/>
<path d="M174 36.9999L173.5 58.4999L157.5 57.4999L165.5 36.9999H174Z" fill="white"/>
<rect x="105" y="122" width="6" height="16" rx="1" fill="#232323"/>
<rect x="223" y="122" width="6" height="16" rx="1" fill="#232323"/>
<rect x="96" y="101" width="142" height="27" rx="10" fill="#AF6BC0"/>
<rect x="96" y="89" width="142" height="13" rx="6.5" fill="#AF6BC0"/>
</svg>
