<svg width="335" height="155" viewBox="0 0 335 155" fill="none" xmlns="http://www.w3.org/2000/svg">
<path d="M0 0H335V155H0V0Z" fill="#A6DDDC"/>
<mask id="mask0_1223_143549" style="mask-type:alpha" maskUnits="userSpaceOnUse" x="0" y="0" width="335" height="155">
<path d="M0 0H335V155H0V0Z" fill="#A6DDDC"/>
</mask>
<g mask="url(#mask0_1223_143549)">
<ellipse cx="163" cy="140.5" rx="204" ry="28.5" fill="#136261"/>
<rect x="180" y="31" width="12" height="93" rx="2" fill="#234759"/>
<path d="M153.034 44.5444C153.406 44.1947 153.896 44 154.406 44H193C194.105 44 195 44.8954 195 46V62C195 63.1046 194.105 64 193 64H154.406C153.896 64 153.406 63.8053 153.034 63.4556L144.545 55.4556C143.707 54.6661 143.707 53.3339 144.545 52.5444L153.034 44.5444Z" fill="white"/>
<path d="M214.966 87.4556C214.594 87.8053 214.104 88 213.594 88L175 88C173.895 88 173 87.1046 173 86L173 70C173 68.8954 173.895 68 175 68L213.594 68C214.104 68 214.594 68.1947 214.966 68.5444L223.455 76.5444C224.293 77.3339 224.293 78.6661 223.455 79.4556L214.966 87.4556Z" fill="#FFD4A1"/>
</g>
</svg>
