<svg width="335" height="155" viewBox="0 0 335 155" fill="none" xmlns="http://www.w3.org/2000/svg">
<path d="M0 0H335V155H0V0Z" fill="#FFEBB4"/>
<mask id="mask0_660_28834" style="mask-type:alpha" maskUnits="userSpaceOnUse" x="0" y="0" width="335" height="155">
<path d="M0 0H335V155H0V0Z" fill="#FFEBB4"/>
</mask>
<g mask="url(#mask0_660_28834)">
<path d="M34.2844 66.1048C34.2844 84.1077 19.6512 98.7018 1.60019 98.7018C-16.4508 98.7018 -31.084 84.1077 -31.084 66.1048C-31.084 48.102 -16.4508 33.5078 1.60019 33.5078C19.6512 33.5078 34.2844 48.102 34.2844 66.1048Z" fill="white"/>
<path d="M86.0363 56.597C86.0363 74.5998 71.4031 89.194 53.3521 89.194C35.3012 89.194 20.668 74.5998 20.668 56.597C20.668 38.5942 35.3012 24 53.3521 24C71.4031 24 86.0363 38.5942 86.0363 56.597Z" fill="white"/>
<path d="M66.9699 82.4017C66.9699 100.405 52.3367 114.999 34.2857 114.999C16.2348 114.999 1.60156 100.405 1.60156 82.4017C1.60156 64.3989 16.2348 49.8047 34.2857 49.8047C52.3367 49.8047 66.9699 64.3989 66.9699 82.4017Z" fill="white"/>
<path d="M93.5233 74.2524C93.5233 87.7546 80.2619 98.7002 63.9032 98.7002C47.5445 98.7002 34.2832 87.7546 34.2832 74.2524C34.2832 60.7503 47.5445 49.8047 63.9032 49.8047C80.2619 49.8047 93.5233 60.7503 93.5233 74.2524Z" fill="white"/>
<path d="M346.118 25.1048C346.118 43.1077 331.485 57.7018 313.434 57.7018C295.383 57.7018 280.75 43.1077 280.75 25.1048C280.75 7.10199 295.383 -7.49219 313.434 -7.49219C331.485 -7.49219 346.118 7.10199 346.118 25.1048Z" fill="white"/>
<path d="M397.87 15.597C397.87 33.5998 383.237 48.194 365.186 48.194C347.135 48.194 332.502 33.5998 332.502 15.597C332.502 -2.40582 347.135 -17 365.186 -17C383.237 -17 397.87 -2.40582 397.87 15.597Z" fill="white"/>
<path d="M378.804 41.4017C378.804 59.4045 364.171 73.9987 346.12 73.9987C328.069 73.9987 313.436 59.4045 313.436 41.4017C313.436 23.3989 328.069 8.80469 346.12 8.80469C364.171 8.80469 378.804 23.3989 378.804 41.4017Z" fill="white"/>
<path d="M168.643 29.1658C169.543 24.9447 175.567 24.9447 176.467 29.1658L177.923 35.9946C178.645 39.3795 183.033 40.3123 185.069 37.5136L189.177 31.8675C191.716 28.3775 197.22 30.8276 196.325 35.0498L194.878 41.8805C194.16 45.2664 197.79 47.9035 200.789 46.175L206.838 42.6879C210.577 40.5324 214.608 45.0089 212.073 48.5023L207.973 54.1538C205.94 56.9552 208.184 60.8407 211.626 60.4812L218.57 59.7559C222.863 59.3076 224.725 65.0366 220.988 67.1971L214.944 70.6922C211.947 72.4247 212.416 76.8867 215.707 77.9584L222.347 80.1205C226.45 81.4569 225.821 87.4477 221.529 87.9017L214.585 88.6361C211.143 89.0002 209.757 93.2672 212.327 95.5848L217.513 100.26C220.719 103.15 217.707 108.367 213.601 107.036L206.959 104.883C203.667 103.816 200.665 107.15 202.07 110.312L204.906 116.693C206.659 120.637 201.785 124.178 198.576 121.292L193.384 116.623C190.811 114.309 186.712 116.134 186.71 119.595L186.705 126.577C186.702 130.893 180.81 132.146 179.052 128.204L176.208 121.827C174.798 118.666 170.311 118.666 168.902 121.827L166.057 128.204C164.299 132.146 158.407 130.893 158.404 126.577L158.4 119.595C158.397 116.134 154.299 114.309 151.725 116.623L146.533 121.292C143.324 124.178 138.45 120.637 140.203 116.693L143.039 110.312C144.445 107.15 141.443 103.816 138.15 104.883L131.508 107.036C127.403 108.367 124.391 103.15 127.596 100.26L132.782 95.5847C135.352 93.2672 133.966 89.0002 130.524 88.6361L123.581 87.9017C119.289 87.4477 118.659 81.4569 122.763 80.1205L129.402 77.9584C132.693 76.8867 133.162 72.4247 130.166 70.6922L124.121 67.1971C120.385 65.0366 122.246 59.3076 126.539 59.7559L133.483 60.4812C136.926 60.8407 139.169 56.9552 137.137 54.1538L133.036 48.5023C130.502 45.0089 134.532 40.5324 138.272 42.6879L144.321 46.175C147.319 47.9035 150.949 45.2664 150.232 41.8805L148.784 35.0498C147.89 30.8276 153.393 28.3775 155.932 31.8675L160.04 37.5136C162.076 40.3123 166.465 39.3795 167.186 35.9946L168.643 29.1658Z" fill="#F5BE17"/>
<circle cx="162.137" cy="68.9568" r="3.13651" fill="#232323"/>
<circle cx="183.308" cy="68.9568" r="3.13651" fill="#232323"/>
<path fill-rule="evenodd" clip-rule="evenodd" d="M184.179 81.7989C183.455 81.5045 182.623 81.8357 182.319 82.5387C180.722 86.2419 177.175 88.7489 173.13 88.7489C169.088 88.7489 165.544 86.2463 163.945 82.5476C163.641 81.8448 162.808 81.5144 162.084 81.8094C161.36 82.1045 161.02 82.9133 161.324 83.6161C163.317 88.2254 167.821 91.5089 173.13 91.5089C178.444 91.5089 182.951 88.2198 184.941 83.6049C185.244 82.9019 184.903 82.0933 184.179 81.7989Z" fill="#232323"/>
</g>
</svg>
