<svg width="335" height="155" viewBox="0 0 335 155" fill="none" xmlns="http://www.w3.org/2000/svg">
<path d="M0 0H335V155H0V0Z" fill="#96BCCF"/>
<mask id="mask0_1223_143813" style="mask-type:alpha" maskUnits="userSpaceOnUse" x="0" y="0" width="335" height="155">
<path d="M0 0H335V155H0V0Z" fill="#96BCCF"/>
</mask>
<g mask="url(#mask0_1223_143813)">
<ellipse cx="1.60019" cy="66.1048" rx="32.6842" ry="32.597" fill="#F5F5F5"/>
<ellipse cx="53.3521" cy="56.597" rx="32.6842" ry="32.597" fill="#F5F5F5"/>
<ellipse cx="34.2857" cy="82.4017" rx="32.6842" ry="32.597" fill="#F5F5F5"/>
<ellipse cx="63.9032" cy="74.2524" rx="29.62" ry="24.4478" fill="#F5F5F5"/>
<ellipse cx="313.434" cy="25.1048" rx="32.6842" ry="32.597" fill="#F5F5F5"/>
<ellipse cx="365.186" cy="15.597" rx="32.6842" ry="32.597" fill="#F5F5F5"/>
<ellipse cx="346.12" cy="41.4017" rx="32.6842" ry="32.597" fill="#F5F5F5"/>
<path d="M163.643 29.1658C164.543 24.9447 170.567 24.9447 171.467 29.1658L172.923 35.9946C173.645 39.3795 178.033 40.3123 180.069 37.5136L184.177 31.8675C186.716 28.3775 192.22 30.8276 191.325 35.0498L189.878 41.8805C189.16 45.2664 192.79 47.9035 195.789 46.175L201.838 42.6879C205.577 40.5324 209.608 45.0089 207.073 48.5023L202.973 54.1538C200.94 56.9552 203.184 60.8407 206.626 60.4812L213.57 59.7559C217.863 59.3076 219.725 65.0366 215.988 67.1971L209.944 70.6922C206.947 72.4247 207.416 76.8867 210.707 77.9584L217.347 80.1205C221.45 81.4569 220.821 87.4477 216.529 87.9017L209.585 88.6361C206.143 89.0002 204.757 93.2672 207.327 95.5848L212.513 100.26C215.719 103.15 212.707 108.367 208.601 107.036L201.959 104.883C198.667 103.816 195.665 107.15 197.07 110.312L199.906 116.693C201.659 120.637 196.785 124.178 193.576 121.292L188.384 116.623C185.811 114.309 181.712 116.134 181.71 119.595L181.705 126.577C181.702 130.893 175.81 132.146 174.052 128.204L171.208 121.827C169.798 118.666 165.311 118.666 163.902 121.827L161.057 128.204C159.299 132.146 153.407 130.893 153.404 126.577L153.4 119.595C153.397 116.134 149.299 114.309 146.725 116.623L141.533 121.292C138.324 124.178 133.45 120.637 135.203 116.693L138.039 110.312C139.445 107.15 136.443 103.816 133.15 104.883L126.508 107.036C122.403 108.367 119.391 103.15 122.596 100.26L127.782 95.5847C130.352 93.2672 128.966 89.0002 125.524 88.6361L118.581 87.9017C114.289 87.4477 113.659 81.4569 117.763 80.1205L124.402 77.9584C127.693 76.8867 128.162 72.4247 125.166 70.6922L119.121 67.1971C115.385 65.0366 117.246 59.3076 121.539 59.7559L128.483 60.4812C131.926 60.8407 134.169 56.9552 132.137 54.1538L128.036 48.5023C125.502 45.0089 129.532 40.5324 133.272 42.6879L139.321 46.175C142.319 47.9035 145.949 45.2664 145.232 41.8805L143.784 35.0498C142.89 30.8276 148.393 28.3775 150.932 31.8675L155.04 37.5136C157.076 40.3123 161.465 39.3795 162.186 35.9946L163.643 29.1658Z" fill="#F5BE17"/>
<circle cx="157.137" cy="68.9573" r="3.13651" fill="#232323"/>
<circle cx="178.307" cy="68.9573" r="3.13651" fill="#232323"/>
<path fill-rule="evenodd" clip-rule="evenodd" d="M178.841 81.7989C178.138 81.5045 177.329 81.8357 177.035 82.5387C175.484 86.2419 172.04 88.7489 168.112 88.7489C164.187 88.7489 160.746 86.2463 159.193 82.5476C158.898 81.8448 158.089 81.5144 157.386 81.8094C156.684 82.1045 156.353 82.9133 156.648 83.6161C158.584 88.2254 162.957 91.5089 168.112 91.5089C173.272 91.5089 177.648 88.2198 179.581 83.6049C179.875 82.9019 179.544 82.0933 178.841 81.7989Z" fill="#232323"/>
</g>
</svg>
