<svg width="58" height="58" viewBox="0 0 58 58" fill="none" xmlns="http://www.w3.org/2000/svg">
<mask id="mask0_1236_154885" style="mask-type:alpha" maskUnits="userSpaceOnUse" x="0" y="0" width="58" height="58">
<circle cx="29" cy="29" r="29" fill="#D9D9D9"/>
</mask>
<g mask="url(#mask0_1236_154885)">
<path d="M-43.9353 13.6869C-43.9353 2.64122 -34.981 -6.31308 -23.9353 -6.31308H76.6672C87.7129 -6.31308 96.6672 2.64122 96.6672 13.6869V58.7418H-43.9353V13.6869Z" fill="#A6DDDC"/>
<mask id="mask1_1236_154885" style="mask-type:alpha" maskUnits="userSpaceOnUse" x="-44" y="-7" width="141" height="66">
<path d="M-43.9352 -6.31308H96.6673V58.7418H-43.9352V-6.31308Z" fill="#5DADF3"/>
</mask>
<g mask="url(#mask1_1236_154885)">
<ellipse cx="24.4764" cy="52.6563" rx="85.6207" ry="11.9617" fill="#136261"/>
<rect x="31.6112" y="6.69803" width="5.03651" height="39.0329" rx="2" fill="#234759"/>
<path d="M19.959 12.6988C20.3301 12.3492 20.8207 12.1544 21.3306 12.1544H35.9076C37.0121 12.1544 37.9076 13.0498 37.9076 14.1544V18.5486C37.9076 19.6532 37.0121 20.5486 35.9076 20.5486H21.3306C20.8207 20.5486 20.3301 20.3539 19.959 20.0042L17.6274 17.8071C16.7895 17.0176 16.7895 15.6855 17.6274 14.8959L19.959 12.6988Z" fill="white"/>
<path d="M46.6216 30.0771C46.2505 30.4267 45.7598 30.6215 45.25 30.6215L30.673 30.6215C29.5684 30.6215 28.673 29.7261 28.673 28.6215L28.673 24.2273C28.673 23.1227 29.5684 22.2273 30.673 22.2273L45.25 22.2273C45.7598 22.2273 46.2505 22.4221 46.6216 22.7717L48.9532 24.9688C49.791 25.7583 49.791 27.0905 48.9532 27.88L46.6216 30.0771Z" fill="#FFD4A1"/>
</g>
</g>
</svg>
