<svg width="335" height="155" viewBox="0 0 335 155" fill="none" xmlns="http://www.w3.org/2000/svg">
<path d="M0 0H335V155H0V0Z" fill="#96BCCF"/>
<mask id="mask0_1205_130183" style="mask-type:alpha" maskUnits="userSpaceOnUse" x="0" y="0" width="335" height="155">
<path d="M0 0H335V155H0V0Z" fill="#5DADF3"/>
</mask>
<g mask="url(#mask0_1205_130183)">
<ellipse cx="1.60019" cy="66.1048" rx="32.6842" ry="32.597" fill="#F5F5F5"/>
<ellipse cx="53.3521" cy="56.597" rx="32.6842" ry="32.597" fill="#F5F5F5"/>
<ellipse cx="34.2857" cy="82.4017" rx="32.6842" ry="32.597" fill="#F5F5F5"/>
<ellipse cx="63.9032" cy="74.2524" rx="29.62" ry="24.4478" fill="#F5F5F5"/>
<ellipse cx="313.434" cy="25.1048" rx="32.6842" ry="32.597" fill="#F5F5F5"/>
<ellipse cx="365.186" cy="15.597" rx="32.6842" ry="32.597" fill="#F5F5F5"/>
<ellipse cx="346.12" cy="41.4017" rx="32.6842" ry="32.597" fill="#F5F5F5"/>
<path d="M165.643 29.1658C166.543 24.9447 172.567 24.9447 173.467 29.1658L174.923 35.9946C175.645 39.3795 180.033 40.3123 182.069 37.5136L186.177 31.8675C188.716 28.3775 194.22 30.8276 193.325 35.0498L191.878 41.8805C191.16 45.2664 194.79 47.9035 197.789 46.175L203.838 42.6879C207.577 40.5324 211.608 45.0089 209.073 48.5023L204.973 54.1538C202.94 56.9552 205.184 60.8407 208.626 60.4812L215.57 59.7559C219.863 59.3076 221.725 65.0366 217.988 67.1971L211.944 70.6922C208.947 72.4247 209.416 76.8867 212.707 77.9584L219.347 80.1205C223.45 81.4569 222.821 87.4477 218.529 87.9017L211.585 88.6361C208.143 89.0002 206.757 93.2672 209.327 95.5848L214.513 100.26C217.719 103.15 214.707 108.367 210.601 107.036L203.959 104.883C200.667 103.816 197.665 107.15 199.07 110.312L201.906 116.693C203.659 120.637 198.785 124.178 195.576 121.292L190.384 116.623C187.811 114.309 183.712 116.134 183.71 119.595L183.705 126.577C183.702 130.893 177.81 132.146 176.052 128.204L173.208 121.827C171.798 118.666 167.311 118.666 165.902 121.827L163.057 128.204C161.299 132.146 155.407 130.893 155.404 126.577L155.4 119.595C155.397 116.134 151.299 114.309 148.725 116.623L143.533 121.292C140.324 124.178 135.45 120.637 137.203 116.693L140.039 110.312C141.445 107.15 138.443 103.816 135.15 104.883L128.508 107.036C124.403 108.367 121.391 103.15 124.596 100.26L129.782 95.5847C132.352 93.2672 130.966 89.0002 127.524 88.6361L120.581 87.9017C116.289 87.4477 115.659 81.4569 119.763 80.1205L126.402 77.9584C129.693 76.8867 130.162 72.4247 127.166 70.6922L121.121 67.1971C117.385 65.0366 119.246 59.3076 123.539 59.7559L130.483 60.4812C133.926 60.8407 136.169 56.9552 134.137 54.1538L130.036 48.5023C127.502 45.0089 131.532 40.5324 135.272 42.6879L141.321 46.175C144.319 47.9035 147.949 45.2664 147.232 41.8805L145.784 35.0498C144.89 30.8276 150.393 28.3775 152.932 31.8675L157.04 37.5136C159.076 40.3123 163.465 39.3795 164.186 35.9946L165.643 29.1658Z" fill="#F5BE17"/>
<circle cx="159.103" cy="68.9573" r="3.13651" fill="#232323"/>
<circle cx="180.274" cy="68.9573" r="3.13651" fill="#232323"/>
<path fill-rule="evenodd" clip-rule="evenodd" d="M180.808 81.7989C180.105 81.5045 179.296 81.8357 179.002 82.5387C177.451 86.242 174.007 88.749 170.079 88.749C166.154 88.749 162.713 86.2464 161.16 82.5476C160.865 81.8449 160.056 81.5144 159.353 81.8095C158.65 82.1045 158.32 82.9134 158.615 83.6161C160.55 88.2255 164.924 91.509 170.079 91.509C175.238 91.509 179.615 88.2198 181.548 83.6049C181.842 82.9019 181.511 82.0934 180.808 81.7989Z" fill="#232323"/>
</g>
</svg>
