<svg width="335" height="155" viewBox="0 0 335 155" fill="none" xmlns="http://www.w3.org/2000/svg">
<path d="M0 0H335V155H0V0Z" fill="#FBE0DE"/>
<mask id="mask0_1223_143572" style="mask-type:alpha" maskUnits="userSpaceOnUse" x="0" y="0" width="335" height="155">
<path d="M0 20C0 8.9543 8.95431 0 20 0H315C326.046 0 335 8.9543 335 20V135C335 146.046 326.046 155 315 155H20C8.95431 155 0 146.046 0 135V20Z" fill="#FBE0DE"/>
</mask>
<g mask="url(#mask0_1223_143572)">
<ellipse cx="167.5" cy="164.5" rx="86.5" ry="56.5" fill="#D87706"/>
<circle cx="167" cy="78" r="39" fill="#F4BE1B"/>
<path d="M162.875 81.3892C165.186 83.7005 168.934 83.7005 171.245 81.3892" stroke="#232323" stroke-width="2" stroke-linecap="round"/>
<path d="M150.816 68.3891C153.128 70.7004 156.875 70.7004 159.186 68.3891" stroke="#232323" stroke-width="2" stroke-linecap="round"/>
<path d="M174.694 68.3891C177.005 70.7004 180.753 70.7004 183.064 68.3891" stroke="#232323" stroke-width="2" stroke-linecap="round"/>
<path d="M152.079 106C145.053 108.32 131 115.021 131 123.269C131 131.517 148.885 127.135 157.828 123.913L160 126.877" stroke="#232323" stroke-width="3" stroke-linecap="round" stroke-linejoin="round"/>
<path d="M181.921 106C188.947 108.32 203 115.021 203 123.269C203 131.517 185.115 127.135 176.172 123.913L174 126.877" stroke="#232323" stroke-width="3" stroke-linecap="round" stroke-linejoin="round"/>
<path d="M132.816 89C135.219 93.6796 138.582 104.521 132.816 110.448C127.051 116.376 119.203 117.251 116 116.948" stroke="#232323" stroke-width="3" stroke-linecap="round"/>
<path d="M201.184 89C198.781 93.6796 195.418 104.521 201.184 110.448C206.949 116.376 214.797 117.251 218 116.948" stroke="#232323" stroke-width="3" stroke-linecap="round"/>
</g>
</svg>
