<svg width="58" height="58" viewBox="0 0 58 58" fill="none" xmlns="http://www.w3.org/2000/svg">
<circle cx="29" cy="29" r="29" fill="#96BCCF"/>
<path d="M27.1229 12.1144C27.4398 10.6285 29.5602 10.6285 29.8771 12.1144L30.3897 14.5182C30.6438 15.7098 32.1886 16.0381 32.9054 15.053L34.3514 13.0654C35.2452 11.8369 37.1824 12.6994 36.8675 14.1857L36.3581 16.5902C36.1055 17.782 37.3833 18.7104 38.4388 18.1019L40.5682 16.8744C41.8844 16.1156 43.3033 17.6914 42.4111 18.9211L40.9677 20.9106C40.2522 21.8967 41.0419 23.2644 42.2536 23.1379L44.6982 22.8826C46.2093 22.7248 46.8645 24.7415 45.5493 25.502L43.4215 26.7323C42.3668 27.3422 42.5319 28.9129 43.6904 29.2901L46.0275 30.0512C47.472 30.5216 47.2504 32.6305 45.7396 32.7903L43.2953 33.0488C42.0837 33.177 41.5957 34.679 42.5006 35.4948L44.326 37.1407C45.4544 38.158 44.3942 39.9944 42.9489 39.5259L40.6108 38.7679C39.4519 38.3922 38.3951 39.5659 38.8899 40.6792L39.8881 42.9252C40.5052 44.3136 38.7897 45.5599 37.66 44.5441L35.8323 42.9007C34.9264 42.086 33.4836 42.7284 33.4828 43.9467L33.4811 46.4046C33.4801 47.9239 31.406 48.3648 30.7871 46.9773L29.7859 44.7325C29.2897 43.6199 27.7103 43.6199 27.2141 44.7325L26.2129 46.9773C25.594 48.3648 23.5199 47.9239 23.5189 46.4046L23.5172 43.9467C23.5164 42.7284 22.0736 42.086 21.1677 42.9007L19.34 44.5441C18.2103 45.5599 16.4948 44.3136 17.1119 42.9252L18.1101 40.6792C18.6049 39.5659 17.5481 38.3922 16.3892 38.7679L14.0511 39.5259C12.6058 39.9944 11.5456 38.158 12.674 37.1407L14.4994 35.4948C15.4043 34.679 14.9163 33.177 13.7047 33.0488L11.2604 32.7903C9.7496 32.6305 9.52795 30.5216 10.9726 30.0512L13.3096 29.2901C14.4681 28.9129 14.6332 27.3422 13.5785 26.7323L11.4507 25.502C10.1355 24.7415 10.7907 22.7248 12.3018 22.8826L14.7464 23.1379C15.9581 23.2644 16.7478 21.8967 16.0323 20.9106L14.5889 18.9211C13.6967 17.6914 15.1156 16.1156 16.4318 16.8744L18.5612 18.1019C19.6167 18.7104 20.8945 17.782 20.6419 16.5902L20.1325 14.1857C19.8176 12.6994 21.7548 11.8369 22.6486 13.0654L24.0946 15.053C24.8114 16.0381 26.3562 15.7098 26.6103 14.5182L27.1229 12.1144Z" fill="#F5BE17"/>
<path d="M25.9249 26.1216C25.9249 26.7314 25.4306 27.2257 24.8208 27.2257C24.2111 27.2257 23.7167 26.7314 23.7167 26.1216C23.7167 25.5118 24.2111 25.0175 24.8208 25.0175C25.4306 25.0175 25.9249 25.5118 25.9249 26.1216Z" fill="black"/>
<path d="M33.3777 26.1216C33.3777 26.7314 32.8834 27.2257 32.2736 27.2257C31.6638 27.2257 31.1695 26.7314 31.1695 26.1216C31.1695 25.5118 31.6638 25.0175 32.2736 25.0175C32.8834 25.0175 33.3777 25.5118 33.3777 26.1216Z" fill="black"/>
<path fill-rule="evenodd" clip-rule="evenodd" d="M32.4611 30.6421C32.2136 30.5384 31.929 30.655 31.8254 30.9025C31.2794 32.2061 30.0671 33.0886 28.6844 33.0886C27.3027 33.0886 26.0914 32.2076 25.5447 30.9056C25.4408 30.6582 25.1561 30.5419 24.9087 30.6458C24.6614 30.7496 24.545 31.0344 24.6489 31.2817C25.3302 32.9043 26.8696 34.0601 28.6844 34.0601C30.5006 34.0601 32.0411 32.9023 32.7215 31.2778C32.8251 31.0303 32.7085 30.7457 32.4611 30.6421Z" fill="#232323"/>
</svg>
