<svg width="58" height="58" viewBox="0 0 58 58" fill="none" xmlns="http://www.w3.org/2000/svg">
<circle cx="29" cy="29" r="29" fill="#AAB2DB"/>
<mask id="mask0_1236_154913" style="mask-type:alpha" maskUnits="userSpaceOnUse" x="0" y="0" width="58" height="58">
<circle cx="29" cy="29" r="29" fill="#96BCCF"/>
</mask>
<g mask="url(#mask0_1236_154913)">
<path fill-rule="evenodd" clip-rule="evenodd" d="M26.9318 37.041C27.3263 37.041 27.646 37.3607 27.646 37.7551V48.8247C27.646 49.2191 27.3263 49.5388 26.9318 49.5388H24.0752C23.6808 49.5388 23.361 49.2191 23.361 48.8247C23.361 48.4303 23.6808 48.1105 24.0752 48.1105H26.2177V37.7551C26.2177 37.3607 26.5374 37.041 26.9318 37.041Z" fill="black"/>
<path fill-rule="evenodd" clip-rule="evenodd" d="M30.5023 37.041C30.1078 37.041 29.7881 37.3607 29.7881 37.7551V48.8247C29.7881 49.2191 30.1078 49.5388 30.5023 49.5388H33.0018C33.3963 49.5388 33.716 49.2191 33.716 48.8247C33.716 48.4303 33.3963 48.1105 33.0018 48.1105H31.2164V37.7551C31.2164 37.3607 30.8967 37.041 30.5023 37.041Z" fill="black"/>
<path d="M30.0735 20.8327C30.0735 23.9881 27.5155 26.5461 24.3602 26.5461C21.2048 26.5461 18.6469 23.9881 18.6469 20.8327C18.6469 17.6774 21.2048 15.1194 24.3602 15.1194C27.5155 15.1194 30.0735 17.6774 30.0735 20.8327Z" fill="#FBE0DE"/>
<path d="M31.1442 18.6901C31.1442 21.8455 28.5863 24.4034 25.4309 24.4034C22.2755 24.4034 19.7176 21.8455 19.7176 18.6901C19.7176 15.5347 22.2755 12.9768 25.4309 12.9768C28.5863 12.9768 31.1442 15.5347 31.1442 18.6901Z" fill="#FBE0DE"/>
<path d="M38.644 18.6901C38.644 21.8455 36.0861 24.4034 32.9307 24.4034C29.7753 24.4034 27.2174 21.8455 27.2174 18.6901C27.2174 15.5347 29.7753 12.9768 32.9307 12.9768C36.0861 12.9768 38.644 15.5347 38.644 18.6901Z" fill="#FBE0DE"/>
<path d="M27.5735 32.2593C27.5735 35.4146 25.0156 37.9726 21.8602 37.9726C18.7048 37.9726 16.1469 35.4146 16.1469 32.2593C16.1469 29.1039 18.7048 26.546 21.8602 26.546C25.0156 26.546 27.5735 29.1039 27.5735 32.2593Z" fill="#FBE0DE"/>
<path d="M47.2129 29.7601C47.2129 32.9155 44.6549 35.4735 41.4996 35.4735C38.3442 35.4735 35.7863 32.9155 35.7863 29.7601C35.7863 26.6048 38.3442 24.0468 41.4996 24.0468C44.6549 24.0468 47.2129 26.6048 47.2129 29.7601Z" fill="#FBE0DE"/>
<path d="M39.3578 20.8327C39.3578 23.9881 36.7999 26.5461 33.6445 26.5461C30.4891 26.5461 27.9312 23.9881 27.9312 20.8327C27.9312 17.6774 30.4891 15.1194 33.6445 15.1194C36.7999 15.1194 39.3578 17.6774 39.3578 20.8327Z" fill="#FBE0DE"/>
<path d="M36.8579 32.2593C36.8579 35.4146 34.2999 37.9726 31.1446 37.9726C27.9892 37.9726 25.4313 35.4146 25.4313 32.2593C25.4313 29.1039 27.9892 26.546 31.1446 26.546C34.2999 26.546 36.8579 29.1039 36.8579 32.2593Z" fill="#FBE0DE"/>
<path d="M41.8578 32.2593C41.8578 35.4146 39.2998 37.9726 36.1445 37.9726C32.9891 37.9726 30.4312 35.4146 30.4312 32.2593C30.4312 29.1039 32.9891 26.546 36.1445 26.546C39.2998 26.546 41.8578 29.1039 41.8578 32.2593Z" fill="#FBE0DE"/>
<path d="M33.2872 32.2593C33.2872 35.4146 30.7293 37.9726 27.5739 37.9726C24.4185 37.9726 21.8606 35.4146 21.8606 32.2593C21.8606 29.1039 24.4185 26.546 27.5739 26.546C30.7293 26.546 33.2872 29.1039 33.2872 32.2593Z" fill="#FBE0DE"/>
<path d="M31.1442 28.6886C31.1442 31.844 28.5863 34.4019 25.4309 34.4019C22.2755 34.4019 19.7176 31.844 19.7176 28.6886C19.7176 25.5333 22.2755 22.9753 25.4309 22.9753C28.5863 22.9753 31.1442 25.5333 31.1442 28.6886Z" fill="#FBE0DE"/>
<path d="M36.1441 28.6886C36.1441 31.844 33.5861 34.4019 30.4308 34.4019C27.2754 34.4019 24.7175 31.844 24.7175 28.6886C24.7175 25.5333 27.2754 22.9753 30.4308 22.9753C33.5861 22.9753 36.1441 25.5333 36.1441 28.6886Z" fill="#FBE0DE"/>
<path d="M27.5736 22.7965C27.5736 23.2895 27.1739 23.6892 26.6809 23.6892C26.1878 23.6892 25.7881 23.2895 25.7881 22.7965C25.7881 22.3035 26.1878 21.9038 26.6809 21.9038C27.1739 21.9038 27.5736 22.3035 27.5736 22.7965Z" fill="black"/>
<path d="M32.2166 22.7965C32.2166 23.2895 31.8169 23.6892 31.3239 23.6892C30.8308 23.6892 30.4312 23.2895 30.4312 22.7965C30.4312 22.3035 30.8308 21.9038 31.3239 21.9038C31.8169 21.9038 32.2166 22.3035 32.2166 22.7965Z" fill="black"/>
<path d="M21.8607 28.6886C21.8607 31.844 19.3028 34.4019 16.1474 34.4019C12.992 34.4019 10.4341 31.844 10.4341 28.6886C10.4341 25.5333 12.992 22.9753 16.1474 22.9753C19.3028 22.9753 21.8607 25.5333 21.8607 28.6886Z" fill="#FBE0DE"/>
<path d="M19.0865 16.8229C19.7199 16.1895 20.579 15.8336 21.4748 15.8336H36.8879C37.7837 15.8336 38.6428 16.1895 39.2762 16.8229Lnan nanL39.2762 16.8229C39.7018 17.2485 39.4004 17.9761 38.7985 17.9761H19.5642C18.9623 17.9761 18.6609 17.2485 19.0865 16.8229Lnan nanL19.0865 16.8229Z" fill="#D87706"/>
<path d="M24.0029 23.3323C24.0029 26.4876 21.445 29.0456 18.2896 29.0456C15.1342 29.0456 12.5763 26.4876 12.5763 23.3323C12.5763 20.1769 15.1342 17.619 18.2896 17.619C21.445 17.619 24.0029 20.1769 24.0029 23.3323Z" fill="#FBE0DE"/>
<path d="M45.7853 23.3323C45.7853 26.4876 43.2273 29.0456 40.0719 29.0456C36.9166 29.0456 34.3586 26.4876 34.3586 23.3323C34.3586 20.1769 36.9166 17.619 40.0719 17.619C43.2273 17.619 45.7853 20.1769 45.7853 23.3323Z" fill="#FBE0DE"/>
</g>
</svg>
