<svg width="335" height="155" viewBox="0 0 335 155" fill="none" xmlns="http://www.w3.org/2000/svg">
<path d="M0 0H335V155H0V0Z" fill="#A6DDDC"/>
<mask id="mask0_1205_137832" style="mask-type:alpha" maskUnits="userSpaceOnUse" x="0" y="0" width="335" height="155">
<path d="M0 0H335V155H0V0Z" fill="#5DADF3"/>
</mask>
<g mask="url(#mask0_1205_137832)">
<path d="M367 140.5C367 156.24 275.666 169 163 169C50.3339 169 -41 156.24 -41 140.5C-41 124.76 50.3339 112 163 112C275.666 112 367 124.76 367 140.5Z" fill="#136261"/>
<path d="M180 33C180 31.8954 180.895 31 182 31H190C191.105 31 192 31.8954 192 33V122C192 123.105 191.105 124 190 124H182C180.895 124 180 123.105 180 122V33Z" fill="#234759"/>
<path d="M153.034 44.5444C153.405 44.1947 153.896 44 154.406 44H193C194.104 44 195 44.8954 195 46V62C195 63.1046 194.104 64 193 64H154.406C153.896 64 153.405 63.8053 153.034 63.4556L144.544 55.4556C143.707 54.6661 143.707 53.3339 144.544 52.5444L153.034 44.5444Z" fill="white"/>
<path d="M214.965 87.4556C214.594 87.8053 214.103 88 213.593 88L174.999 88C173.895 88 172.999 87.1046 172.999 86L172.999 70C172.999 68.8954 173.895 68 174.999 68L213.593 68C214.103 68 214.594 68.1947 214.965 68.5444L223.455 76.5444C224.292 77.3339 224.292 78.6661 223.455 79.4556L214.965 87.4556Z" fill="#FFD4A1"/>
</g>
</svg>
