<svg width="335" height="155" viewBox="0 0 335 155" fill="none" xmlns="http://www.w3.org/2000/svg">
<path d="M0 0H335V155H0V0Z" fill="#FFD4A1"/>
<mask id="mask0_1223_143756" style="mask-type:alpha" maskUnits="userSpaceOnUse" x="0" y="0" width="335" height="155">
<path d="M0 20C0 8.9543 8.95431 0 20 0H315C326.046 0 335 8.9543 335 20V135C335 146.046 326.046 155 315 155H20C8.95431 155 0 146.046 0 135V20Z" fill="#5DADF3"/>
</mask>
<g mask="url(#mask0_1223_143756)">
<rect x="241" y="18" width="3" height="18" rx="1.5" fill="#232323"/>
<ellipse cx="255.848" cy="18.4393" rx="10.5" ry="5.59518" transform="rotate(-33.2802 255.848 18.4393)" fill="#45B776"/>
<circle cx="234.5" cy="49.5" r="21.5" fill="#E96358"/>
<circle cx="250.625" cy="49.5" r="21.5" fill="#E96358"/>
</g>
<path d="M94.4405 78.4276C90.6657 73.6421 92.0134 66.6216 97.2919 63.5741L103.503 59.9882C108.72 56.976 115.397 59.2269 117.726 64.7831L132.239 99.4112C133.835 103.22 132.461 107.625 128.983 109.851V109.851C125.304 112.205 120.438 111.386 117.733 107.957L94.4405 78.4276Z" fill="#167E59"/>
<circle cx="79.6468" cy="70.4534" r="17.1912" transform="rotate(-30 79.6468 70.4534)" fill="#45B776"/>
<circle cx="93.5749" cy="45.8695" r="17.1912" transform="rotate(-30 93.5749 45.8695)" fill="#45B776"/>
<circle cx="103.463" cy="71.5912" r="17.1912" transform="rotate(-30 103.463 71.5912)" fill="#45B776"/>
<circle cx="118.727" cy="47.8899" r="17.1912" transform="rotate(-30 118.727 47.8899)" fill="#45B776"/>
<ellipse cx="195.974" cy="94.8923" rx="17" ry="5" transform="rotate(30 195.974 94.8923)" fill="#177E60"/>
<rect x="170.631" y="80.7881" width="20" height="51" rx="10" transform="rotate(15 170.631 80.7881)" fill="#F4BE1B"/>
<rect x="188.814" y="87.2942" width="20" height="51" rx="10" transform="rotate(30 188.814 87.2942)" fill="#F4BE1B"/>
<rect x="207.167" y="95.9052" width="20" height="51" rx="10" transform="rotate(45 207.167 95.9052)" fill="#F4BE1B"/>
<rect x="199.376" y="83" width="7" height="9" rx="3.5" transform="rotate(30 199.376 83)" fill="#177E60"/>
</svg>
