<svg width="58" height="58" viewBox="0 0 58 58" fill="none" xmlns="http://www.w3.org/2000/svg">
<circle cx="29" cy="29" r="29" fill="#FFD4A1"/>
<path d="M27.8065 16.4524C27.8065 15.9948 28.1775 15.6238 28.6351 15.6238C29.0927 15.6238 29.4637 15.9948 29.4637 16.4524V24.7385C29.4637 25.1961 29.0927 25.5671 28.6351 25.5671C28.1775 25.5671 27.8065 25.1961 27.8065 24.7385V16.4524Z" fill="#232323"/>
<path d="M40.8582 12.6833C41.7949 14.1104 40.3833 16.6922 37.7053 18.45C35.0273 20.2078 32.097 20.4759 31.1603 19.0489C30.2236 17.6218 31.6352 15.04 34.3132 13.2822C36.9912 11.5244 39.9215 11.2563 40.8582 12.6833Z" fill="#45B776"/>
<path d="M36.0925 33.0244C36.0925 39.5837 30.7752 44.901 24.2159 44.901C17.6566 44.901 12.3393 39.5837 12.3393 33.0244C12.3393 26.4651 17.6566 21.1478 24.2159 21.1478C30.7752 21.1478 36.0925 26.4651 36.0925 33.0244Z" fill="#E96358"/>
<path d="M44.9999 33.0244C44.9999 39.5837 39.6826 44.901 33.1233 44.901C26.564 44.901 21.2466 39.5837 21.2466 33.0244C21.2466 26.4651 26.564 21.1478 33.1233 21.1478C39.6826 21.1478 44.9999 26.4651 44.9999 33.0244Z" fill="#E96358"/>
</svg>
