<svg width="58" height="58" viewBox="0 0 58 58" fill="none" xmlns="http://www.w3.org/2000/svg">
<mask id="mask0_1236_154896" style="mask-type:alpha" maskUnits="userSpaceOnUse" x="0" y="0" width="58" height="58">
<circle cx="29" cy="29" r="29" fill="#D9D9D9"/>
</mask>
<g mask="url(#mask0_1236_154896)">
<path d="M-55.2988 -9.31157C-55.2988 -14.8278 -50.8271 -19.2996 -45.3108 -19.2996H102.012C107.528 -19.2996 112 -14.8278 112 -9.31157V58.1074H-55.2988V-9.31157Z" fill="#FBE0DE"/>
<mask id="mask1_1236_154896" style="mask-type:alpha" maskUnits="userSpaceOnUse" x="-36" y="-2" width="131" height="61">
<path d="M-35.8569 6.1966C-35.8569 1.88639 -32.3628 -1.60773 -28.0525 -1.60773H87.0613C91.3715 -1.60773 94.8656 1.88639 94.8656 6.1966V51.0715C94.8656 55.3817 91.3715 58.8758 87.0613 58.8758H-28.0525C-32.3628 58.8758 -35.8569 55.3817 -35.8569 51.0715V6.1966Z" fill="#5DADF3"/>
</mask>
<g mask="url(#mask1_1236_154896)">
<path d="M63.2586 62.5828C63.2586 74.7592 48.1465 84.63 29.5049 84.63C10.8632 84.63 -4.24884 74.7592 -4.24884 62.5828C-4.24884 50.4065 10.8632 40.5356 29.5049 40.5356C48.1465 40.5356 63.2586 50.4065 63.2586 62.5828Z" fill="#D87706"/>
<path d="M45.3085 28.8292C45.3085 37.2341 38.495 44.0476 30.0901 44.0476C21.6852 44.0476 14.8716 37.2341 14.8716 28.8292C14.8716 20.4242 21.6852 13.6107 30.0901 13.6107C38.495 13.6107 45.3085 20.4242 45.3085 28.8292Z" fill="#F4BE1B"/>
<path fill-rule="evenodd" clip-rule="evenodd" d="M32.0225 29.8757C32.1749 30.0281 32.1749 30.2751 32.0225 30.4275C30.9682 31.4818 29.2589 31.4818 28.2046 30.4275C28.0522 30.2751 28.0522 30.0281 28.2046 29.8757C28.3569 29.7233 28.604 29.7233 28.7564 29.8757C29.5059 30.6252 30.7212 30.6252 31.4707 29.8757C31.6231 29.7233 31.8701 29.7233 32.0225 29.8757Z" fill="black"/>
<path fill-rule="evenodd" clip-rule="evenodd" d="M27.3173 24.8027C27.4697 24.9551 27.4697 25.2021 27.3173 25.3545C26.263 26.4088 24.5537 26.4088 23.4994 25.3545C23.347 25.2021 23.347 24.9551 23.4994 24.8027C23.6517 24.6503 23.8988 24.6503 24.0512 24.8027C24.8007 25.5522 26.016 25.5522 26.7655 24.8027C26.9179 24.6503 27.1649 24.6503 27.3173 24.8027Z" fill="black"/>
<path fill-rule="evenodd" clip-rule="evenodd" d="M36.6344 24.8027C36.7868 24.9551 36.7868 25.2021 36.6344 25.3545C35.5801 26.4088 33.8707 26.4088 32.8164 25.3545C32.664 25.2021 32.664 24.9551 32.8164 24.8027C32.9688 24.6503 33.2159 24.6503 33.3683 24.8027C34.1178 25.5522 35.333 25.5522 36.0826 24.8027C36.235 24.6503 36.482 24.6503 36.6344 24.8027Z" fill="black"/>
<path fill-rule="evenodd" clip-rule="evenodd" d="M24.8237 39.5718C24.925 39.8787 24.7583 40.2097 24.4513 40.3111C23.1167 40.7517 21.1134 41.6103 19.4568 42.7406C18.6287 43.3056 17.9099 43.9233 17.403 44.5712C16.8965 45.2186 16.6277 45.8617 16.6277 46.4939C16.6277 46.7841 16.7038 46.9805 16.8142 47.1251C16.9293 47.2758 17.1146 47.4127 17.3975 47.5215C17.9808 47.7458 18.8547 47.8037 19.9194 47.7147C22.028 47.5385 24.5907 46.8151 26.3128 46.1947C26.5569 46.1067 26.8299 46.19 26.9833 46.3994L27.8308 47.556C28.0218 47.8168 27.9653 48.1831 27.7046 48.3741C27.4438 48.5652 27.0775 48.5087 26.8865 48.2479L26.2957 47.4416C24.5422 48.044 22.1008 48.7071 20.0169 48.8813C18.9006 48.9746 17.8117 48.9351 16.9772 48.6141C16.5513 48.4502 16.1641 48.2025 15.8839 47.8356C15.599 47.4626 15.457 47.0084 15.457 46.4939C15.457 45.5169 15.8736 44.6262 16.481 43.8498C17.088 43.0739 17.9115 42.3778 18.797 41.7736C20.5677 40.5655 22.6771 39.664 24.0843 39.1994C24.3913 39.0981 24.7223 39.2648 24.8237 39.5718Z" fill="black"/>
<path fill-rule="evenodd" clip-rule="evenodd" d="M35.3569 39.5718C35.2556 39.8787 35.4223 40.2097 35.7293 40.3111C37.0639 40.7517 39.0672 41.6103 40.7238 42.7406C41.5519 43.3056 42.2707 43.9233 42.7776 44.5712C43.2841 45.2186 43.5529 45.8617 43.5529 46.4939C43.5529 46.7841 43.4768 46.9805 43.3664 47.1251C43.2513 47.2758 43.066 47.4127 42.7831 47.5215C42.1999 47.7458 41.3259 47.8037 40.2612 47.7147C38.1527 47.5385 35.5899 46.8151 33.8678 46.1947C33.6237 46.1067 33.3507 46.19 33.1973 46.3994L32.3498 47.556C32.1588 47.8168 32.2153 48.1831 32.476 48.3741C32.7368 48.5652 33.1031 48.5087 33.2941 48.2479L33.8849 47.4416C35.6384 48.044 38.0798 48.7071 40.1637 48.8813C41.28 48.9746 42.3689 48.9351 43.2034 48.6141C43.6293 48.4502 44.0165 48.2025 44.2967 47.8356C44.5816 47.4626 44.7236 47.0084 44.7236 46.4939C44.7236 45.5169 44.307 44.6262 43.6996 43.8498C43.0926 43.0739 42.2691 42.3778 41.3836 41.7736C39.6129 40.5655 37.5035 39.664 36.0963 39.1994C35.7893 39.0981 35.4583 39.2648 35.3569 39.5718Z" fill="black"/>
<path fill-rule="evenodd" clip-rule="evenodd" d="M16.4837 32.6008C16.7713 32.4532 17.1241 32.5666 17.2717 32.8542C17.7661 33.8173 18.3553 35.4014 18.5284 37.063C18.7006 38.7158 18.4701 40.5631 17.1706 41.8991C14.7622 44.3751 11.5035 44.7396 10.1338 44.6099C9.81194 44.5795 9.57575 44.2939 9.60622 43.972C9.6367 43.6502 9.92229 43.414 10.2441 43.4445C11.3742 43.5515 14.2401 43.2329 16.3314 41.0829C17.2817 40.1059 17.52 38.6815 17.3641 37.1843C17.209 35.696 16.6733 34.2518 16.2303 33.3888C16.0827 33.1013 16.1961 32.7484 16.4837 32.6008Z" fill="black"/>
<path fill-rule="evenodd" clip-rule="evenodd" d="M43.6964 32.6008C43.4088 32.4532 43.056 32.5666 42.9083 32.8542C42.4139 33.8173 41.8247 35.4014 41.6516 37.063C41.4795 38.7158 41.7099 40.5631 43.0095 41.8991C45.4179 44.3751 48.6766 44.7396 50.0463 44.6099C50.3681 44.5795 50.6043 44.2939 50.5738 43.972C50.5434 43.6502 50.2578 43.414 49.9359 43.4445C48.8058 43.5515 45.9399 43.2329 43.8486 41.0829C42.8983 40.1059 42.66 38.6815 42.816 37.1843C42.971 35.696 43.5067 34.2518 43.9498 33.3888C44.0974 33.1013 43.9839 32.7484 43.6964 32.6008Z" fill="black"/>
</g>
</g>
</svg>
