<svg id="Layer_0" data-name="Layer 0" xmlns="http://www.w3.org/2000/svg" xmlns:xlink="http://www.w3.org/1999/xlink" viewBox="0 0 726.3 233.4"><defs><style>.cls-1{fill:#d33b3b;}.cls-2{fill:url(#linear-gradient);}.cls-3{fill:#e1514c;}.cls-4{fill:#e65a53;}</style><linearGradient id="linear-gradient" x1="-9.2" y1="120.3" x2="664.13" y2="120.3" gradientTransform="matrix(1, 0, 0, -1, 0, 236)" gradientUnits="userSpaceOnUse"><stop offset="0" stop-color="#ec625a"/><stop offset="1" stop-color="#d7413f"/></linearGradient></defs><path class="cls-1" d="M-9.2-9V240.4H735.5V-9Z"/><path class="cls-2" d="M573,160.1c3.1-48.9,75.8-54.1,86.8-96.1,10.9-41.7,3-73.3-44.2-73H-9.2V240.4h500C548,240.4,570,208,573,160.1Z"/><path class="cls-3" d="M446,166c11.1-38,81.9-61.4,63-108C491.7,15.4,441-9,409-9c-10.5,0-53.8,7.2-61,0H9.8V240.4H363.2C397.1,240.4,429,224,446,166Z"/><path class="cls-4" d="M222,240.4H-9.2V-9H269c33,17.7,48.8,32,66.9,59,34.4,51.3-17.3,91.2-22,121.7C306,222,268,240.4,222,240.4Z"/></svg>