<?xml version="1.0" encoding="utf-8"?>
<!-- Generator: Adobe Illustrator 25.1.0, SVG Export Plug-In . SVG Version: 6.00 Build 0)  -->
<svg version="1.1" id="Layer_0" xmlns="http://www.w3.org/2000/svg" xmlns:xlink="http://www.w3.org/1999/xlink" x="0px" y="0px"
	 viewBox="0 0 726.3 233.4" style="enable-background:new 0 0 726.3 233.4;" xml:space="preserve">
<style type="text/css">
	.st0{fill:#1A2A35;}
	.st1{fill:#1D313E;}
	.st2{fill:#223A4B;}
	.st3{fill:#254659;}
</style>
<g>
	<path class="st0" d="M-9.2-9v249.4h744.7V-9H-9.2z"/>
	<path class="st1" d="M656.1,182.1c-5.6-42.7-5.2-81.9-27.8-118.6C612.5,37.8,595,13.3,573.3-9H-9.2v249.4h684.7
		C667.5,220.9,658.6,201.2,656.1,182.1z"/>
	<path class="st2" d="M519.6,189.7c-5.2-40,8.7-86.2-15.3-119.3C481.9,39.3,435,31,399.7,7.9C390.9,2.2,382-3.5,373.1-9H-9.2v249.4
		h530.9C522.9,224.5,522,208.2,519.6,189.7z"/>
	<path class="st3" d="M327.2,240.4H-9.2V-9h207.7c33,17.7,59.5,48.9,84.6,69.5c36.7,30.1,57.6,66.5,63.3,110.1
		C350,198,341.1,219.3,327.2,240.4z"/>
</g>
</svg>
