<svg id="Layer_10" data-name="Layer 10" xmlns="http://www.w3.org/2000/svg" viewBox="0 0 595.28 267.87">
  <polygon points="335.51 -1.06 597.64 -1.06 597.64 53 597.64 246.91 597.64 268.94 -2.36 268.94 -2.36 145.86 -2.36 74.54 -2.36 -1.06 202.92 -1.06 335.51 -1.06" style="fill:#ec625a"/>
  <path d="M335.51-1.06c60.92,28.64,128.86,92.85,186,81.62C548.31,75.3,573.35,65.21,597.64,53V268.94h-600V74.54C99,63.9,149.34,21.7,202.92-1.06Z" style="fill:#d85050"/>
  <path d="M597.64,246.91v22h-600V145.86q3.54-1.91,7.15-3.72c82.75-41.47,201.27-38.7,280.33,6.55,31.38,18,56.48,41.53,89,58.36C415.73,228.61,506.12,259.88,597.64,246.91Z" style="fill:#cf4241"/>
</svg>
