<svg id="Layer_10" data-name="Layer 10" xmlns="http://www.w3.org/2000/svg" viewBox="0 0 595.28 267.87">
  <title>
    Sleep - Up Next
  </title>
  <rect x="-2.37" y="-1.06" width="600" height="270" style="fill:#22485b"/>
  <path d="M597.63,78.21V268.94h-600V166.74c19.46,1,36.38-1.58,50.11-9.6C123.64,112.83,186,41.26,271.44,20.71,359-.35,409.1,63.69,532.77,69.1A326.51,326.51,0,0,1,597.63,78.21Z" style="fill:#193d4c"/>
  <path d="M597.63,204v64.94h-600V214.17C40,217.64,82.27,214.3,125,198.9c50.52-18.22,99.68-41.65,152.59-50.82a295.62,295.62,0,0,1,187.75,30c21.31,11.34,41.76,25.52,65.4,30.4C552.87,213.09,575.32,209.06,597.63,204Z" style="fill:#0f2b33"/>
</svg>
